{
.appVersion = "1161";
classes = (
{
automatic = 1;
code = "A Aacute Abreve Acircumflex Adieresis Agrave Amacron Aogonek Aring Atilde AE B C Cacute Ccaron Ccedilla Cdotaccent D Eth Dcaron Dcroat E Eacute Ecaron Ecircumflex Edieresis Edotaccent Egrave Emacron Eogonek F G Gbreve Gcommaaccent Gdotaccent H Hbar I Iacute Icircumflex Idieresis Idotaccent Igrave Imacron Iogonek J K Kcommaaccent L Lacute Lcaron Lcommaaccent Lslash M N Nacute Ncaron Ncommaaccent Eng Ntilde O Oacute Ocircumflex Odieresis Ograve Ohungarumlaut Omacron Oslash Otilde OE P Thorn Q R Racute Rcaron Rcommaaccent S Sacute Scaron Scedilla Scommaaccent Germandbls T Tbar Tcaron Tcommaaccent U Uacute Ucircumflex Udieresis Ugrave Uhungarumlaut Umacron Uogonek Uring V W Wacute Wcircumflex Wdieresis Wgrave X Y Yacute Ycircumflex Ydieresis Ygrave Z Zacute Zcaron Zdotaccent Q.ss01";
name = Uppercase;
}
);
customParameters = (
{
name = Axes;
value = (
{
Name = Weight;
Tag = wght;
}
);
},
{
name = "Enforce Compatibility Check";
value = 1;
}
);
date = "2018-06-10 18:25:40 +0000";
disablesNiceNames = 1;
familyName = "League Spartan";
featurePrefixes = (
{
automatic = 1;
code = "languagesystem DFLT dflt;\012languagesystem latn dflt;\012languagesystem latn ROM;\012languagesystem latn CRT;\012languagesystem latn MOL;\012languagesystem latn TAT;\012languagesystem latn KAZ;\012languagesystem latn AZE;\012languagesystem latn TRK;\012";
name = Languagesystems;
}
);
features = (
{
automatic = 1;
code = "feature locl;\012feature sups;\012feature frac;\012feature ordn;\012feature salt;\012feature ss01;\012feature calt;\012";
name = aalt;
},
{
automatic = 1;

glyphs = (
{
color = 1;
glyphname = A;
lastChange = "2018-06-18 13:42:23 +0000";
layers = (
{
anchors = (
{
name = bottom;
position = "{367, 0}";
},
{
name = ogonek;
position = "{699, 10}";
},
{
name = top;
position = "{512, 825}";
}
);
layerId = "6F85D940-A117-47EE-950D-70F837F8C9CE";
paths = (
{
closed = 1;
nodes = (
"-53 0 LINE",
"153 0 LINE",
"243 165 LINE",
"557 165 LINE",
"589 0 LINE",
"787 0 LINE",
"600 825 LINE",
"426 825 LINE"
);
},
{
closed = 1;
nodes = (
"472 570 LINE",
"473 570 LINE",
"522 330 LINE",
"336 330 LINE"
);
}
);
width = 824;
},
{
anchors = (
{
name = bottom;
position = "{294, 0}";
},
{
name = ogonek;
position = "{567, 10}";
},
{
name = top;
position = "{439, 825}";
}
);
layerId = "7984B694-437B-44C7-A8AE-41A7C9CC5720";
paths = (
{
closed = 1;
nodes = (
"-35 0 LINE",
"42 0 LINE",
"155 214 LINE",
"513 214 LINE",
"558 0 LINE",
"633 0 LINE",
"465 825 LINE",
"395 825 LINE"
);
},
{
closed = 1;
nodes = (
"413 723 LINE",
"416 723 LINE",
"504 279 LINE",
"184 279 LINE"
);
}
);
width = 678;
}
);
leftKerningGroup = A;
leftMetricsKey = A;
rightKerningGroup = A;
rightMetricsKey = A;
unicode = 0041;
},
{
glyphname = AE;
lastChange = "2018-06-18 13:17:39 +0000";
layers = (
{
anchors = (
{
name = bottom;
position = "{484, 0}";
},
{
name = top;
position = "{629, 825}";
}
);
components = (
{
alignment = -1;
name = E;
transform = "{1, 0, 0, 1, 430, 0}";
}
);
layerId = "6F85D940-A117-47EE-950D-70F837F8C9CE";
paths = (
{
closed = 1;
nodes = (
"-40 0 LINE",
"176 0 LINE",
"280 165 LINE",
"591 165 LINE",
"721 825 LINE",
"525 825 LINE"
);
},
{
closed = 1;
nodes = (
"563 570 LINE",
"520 330 LINE",
"397 330 LINE"
);
}
);
width = 1058;
},
{
anchors = (
{
name = bottom;
position = "{423, 0}";
},
{
name = top;
position = "{568, 825}";
}
);
components = (
{
alignment = -1;
name = E;
transform = "{1, 0, 0, 1, 407, 0}";
}
);
layerId = "7984B694-437B-44C7-A8AE-41A7C9CC5720";
paths = (
{
closed = 1;
nodes = (
"-51 0 LINE",
"27 0 LINE",
"188 214 LINE",
"521 214 LINE",
"629 825 LINE",
"558 825 LINE"
);
},
{
closed = 1;
nodes = (
"555 723 LINE",
"478 279 LINE",
"232 279 LINE"
);
}
);
width = 936;
}
);
leftKerningGroup = A;
rightKerningGroup = E;
rightMetricsKey = E;
unicode = 00C6;
},
{
color = 1;
glyphname = B;
lastChange = "2018-06-18 13:17:39 +0000";
layers = (
{
anchors = (
{
name = bottom;
position = "{245, 0}";
},
{
name = top;
position = "{390, 825}";
}
);
layerId = "7984B694-437B-44C7-A8AE-41A7C9CC5720";
paths = (
{
closed = 1;
nodes = (
"15 0 LINE",
"272 0 LINE SMOOTH",
"443 0 OFFCURVE",
"533 104 OFFCURVE",
"555 230 CURVE SMOOTH",
"577 357 OFFCURVE",
"479 419 OFFCURVE",
"421 424 CURVE",
"476 434 OFFCURVE",
"564 518 OFFCURVE",
"583 625 CURVE SMOOTH",
"611 782 OFFCURVE",
"496 825 OFFCURVE",
"364 825 CURVE SMOOTH",
"160 825 LINE"
);
},
{
closed = 1;
nodes = (
"151 390 LINE",
"330 390 LINE SMOOTH",
"459 390 OFFCURVE",
"502 313 OFFCURVE",
"487 227 CURVE SMOOTH",
"474 152 OFFCURVE",
"422 65 OFFCURVE",
"283 65 CURVE SMOOTH",
"94 65 LINE"
);
},
{
closed = 1;
nodes = (
"217 760 LINE",
"360 760 LINE SMOOTH",
"482 760 OFFCURVE",
"533 715 OFFCURVE",
"515 616 CURVE SMOOTH",
"501 537 OFFCURVE",
"436 452 OFFCURVE",
"325 452 CURVE SMOOTH",
"162 452 LINE"
);
}
);
width = 580;
},
{
associatedMasterId = "6F85D940-A117-47EE-950D-70F837F8C9CE";
layerId = "00D00C54-A920-40CA-A102-6F5B11AB58EA";
name = "Nov 4 17, 14:34";
paths = (
{
closed = 1;
nodes = (
"-13 0 LINE",
"310 0 LINE SMOOTH",
"481 0 OFFCURVE",
"586 87 OFFCURVE",
"609 217 CURVE SMOOTH",
"633 356 OFFCURVE",
"575 419 OFFCURVE",
"481 435 CURVE",
"561 454 OFFCURVE",
"625 511 OFFCURVE",
"641 602 CURVE SMOOTH",
"670 765 OFFCURVE",
"553 825 OFFCURVE",
"411 825 CURVE SMOOTH",
"133 825 LINE"
);
},
{
closed = 1;
nodes = (
"235 340 LINE",
"300 340 LINE SMOOTH",
"389 340 OFFCURVE",
"427 320 OFFCURVE",
"416 250 CURVE SMOOTH",
"405 179 OFFCURVE",
"343 145 OFFCURVE",
"254 145 CURVE SMOOTH",
"201 145 LINE"
);
},
{
closed = 1;
nodes = (
"295 680 LINE",
"354 680 LINE SMOOTH",
"444 680 OFFCURVE",
"466 650 OFFCURVE",
"457 597 CURVE SMOOTH",
"443 522 OFFCURVE",
"392 502 OFFCURVE",
"311 502 CURVE SMOOTH",
"264 502 LINE"
);
}
);
width = 666;
},
{
anchors = (
{
name = bottom;
position = "{301, 0}";
},
{
name = top;
position = "{446, 825}";
}
);
layerId = "6F85D940-A117-47EE-950D-70F837F8C9CE";
paths = (
{
closed = 1;
nodes = (
"34 0 LINE",
"351 0 LINE SMOOTH",
"522 0 OFFCURVE",
"633 94 OFFCURVE",
"657 230 CURVE SMOOTH",
"680 363 OFFCURVE",
"627 420 OFFCURVE",
"527 438 CURVE",
"601 455 OFFCURVE",
"672 518 OFFCURVE",
"689 615 CURVE SMOOTH",
"717 772 OFFCURVE",
"604 825 OFFCURVE",
"462 825 CURVE SMOOTH",
"178 825 LINE"
);
},
{
closed = 1;
nodes = (
"281 340 LINE",
"340 340 LINE SMOOTH",
"429 340 OFFCURVE",
"474 313 OFFCURVE",
"460 237 CURVE SMOOTH",
"449 172 OFFCURVE",
"395 145 OFFCURVE",
"306 145 CURVE SMOOTH",
"247 145 LINE"
);
},
{
closed = 1;
nodes = (
"341 680 LINE",
"394 680 LINE SMOOTH",
"476 680 OFFCURVE",
"510 655 OFFCURVE",
"500 596 CURVE SMOOTH",
"488 527 OFFCURVE",
"444 502 OFFCURVE",
"363 502 CURVE SMOOTH",
"310 502 LINE"
);
}
);
width = 691;
}
);
leftKerningGroup = N;
leftMetricsKey = H;
unicode = 0042;
},
{
color = 1;
glyphname = C;
lastChange = "2018-06-30 12:47:27 +0000";
layers = (
{
anchors = (
{
name = bottom;
position = "{304, 0}";
},
{
name = top;
position = "{449, 825}";
}
);
background = {
components = (
{
name = O;
transform = "{1, 0, 0, 1, 27, 0}";
}
);
};
guideLines = (
{
angle = 80;
position = "{678, 372}";
}
);
layerId = "6F85D940-A117-47EE-950D-70F837F8C9CE";
paths = (
{
closed = 1;
nodes = (
"272 163 OFFCURVE",
"238 304 OFFCURVE",
"257 429 CURVE SMOOTH",
"276 557 OFFCURVE",
"354 664 OFFCURVE",
"520 664 CURVE SMOOTH",
"641 664 OFFCURVE",
"720 622 OFFCURVE",
"720 622 CURVE",
"752 804 LINE",
"709 822 OFFCURVE",
"644 840 OFFCURVE",
"539 838 CURVE SMOOTH",
"247 833 OFFCURVE",
"88 634 OFFCURVE",
"57 424 CURVE SMOOTH",
"25 205 OFFCURVE",
"132 -15 OFFCURVE",
"431 -15 CURVE SMOOTH",
"507 -15 OFFCURVE",
"575 1 OFFCURVE",
"621 19 CURVE",
"652 204 LINE",
"654 204 OFFCURVE",
"569 163 OFFCURVE",
"468 163 CURVE SMOOTH"
);
}
);
width = 698;
},
{
anchors = (
{
name = bottom;
position = "{266, 0}";
},
{
name = top;
position = "{411, 825}";
}
);
background = {
paths = (
{
closed = 1;
nodes = (
"687 803 LINE",
"655 825 OFFCURVE",
"608 840 OFFCURVE",
"521 840 CURVE SMOOTH",
"290 840 OFFCURVE",
"96 654 OFFCURVE",
"53 413 CURVE SMOOTH",
"10 172 OFFCURVE",
"121 -15 OFFCURVE",
"370 -15 CURVE SMOOTH",
"450 -15 OFFCURVE",
"516 5 OFFCURVE",
"550 25 CURVE",
"563 101 LINE",
"540 86 OFFCURVE",
"484 53 OFFCURVE",
"382 53 CURVE SMOOTH",
"229 53 OFFCURVE",
"86 170 OFFCURVE",
"128 413 CURVE SMOOTH",
"170 656 OFFCURVE",
"365 773 OFFCURVE",
"509 773 CURVE SMOOTH",
"614 773 OFFCURVE",
"657 740 OFFCURVE",
"674 727 CURVE"
);
}
);
};
guideLines = (
{
angle = 80;
position = "{622, 494}";
}
);
layerId = "7984B694-437B-44C7-A8AE-41A7C9CC5720";
paths = (
{
closed = 1;
nodes = (
"225 52 OFFCURVE",
"84 167 OFFCURVE",
"126 410 CURVE SMOOTH",
"168 653 OFFCURVE",
"349 776 OFFCURVE",
"498 776 CURVE SMOOTH",
"603 776 OFFCURVE",
"650 745 OFFCURVE",
"667 732 CURVE",
"680 803 LINE",
"648 825 OFFCURVE",
"601 840 OFFCURVE",
"514 840 CURVE SMOOTH",
"268 840 OFFCURVE",
"96 654 OFFCURVE",
"53 413 CURVE SMOOTH",
"10 172 OFFCURVE",
"121 -15 OFFCURVE",
"370 -15 CURVE SMOOTH",
"450 -15 OFFCURVE",
"516 5 OFFCURVE",
"550 25 CURVE",
"563 101 LINE",
"540 86 OFFCURVE",
"480 52 OFFCURVE",
"378 52 CURVE SMOOTH"
);
}
);
width = 621;
}
);
leftKerningGroup = O;
leftMetricsKey = O;
unicode = 0043;
},
{
glyphname = D;
lastChange = "2018-06-18 13:17:39 +0000";
layers = (
{
anchors = (
{
name = bottom;
position = "{328, 0}";
},
{
name = center;
position = "{401, 413}";
},
{
name = top;
position = "{473, 825}";
}
);
layerId = "6F85D940-A117-47EE-950D-70F837F8C9CE";
paths = (
{
closed = 1;
nodes = (
"33 0 LINE",
"288 0 LINE SMOOTH",
"515 0 OFFCURVE",
"702 165 OFFCURVE",
"744 400 CURVE SMOOTH",
"787 646 OFFCURVE",
"648 825 OFFCURVE",
"422 825 CURVE SMOOTH",
"179 825 LINE"
);
},
{
closed = 1;
nodes = (
"382 657 LINE SMOOTH",
"522 657 OFFCURVE",
"571 557 OFFCURVE",
"550 425 CURVE SMOOTH",
"527 281 OFFCURVE",
"423 168 OFFCURVE",
"284 168 CURVE SMOOTH",
"251 168 LINE",
"337 657 LINE"
);
}
);
width = 745;
},
{
anchors = (
{
name = bottom;
position = "{276, 0}";
},
{
name = center;
position = "{349, 413}";
},
{
name = top;
position = "{421, 825}";
}
);
background = {
paths = (
{
closed = 1;
nodes = (
"29 0 LINE",
"198 0 LINE SMOOTH",
"455 0 OFFCURVE",
"606 172 OFFCURVE",
"644 413 CURVE SMOOTH",
"682 653 OFFCURVE",
"585 825 OFFCURVE",
"329 825 CURVE SMOOTH",
"160 825 LINE"
);
},
{
closed = 1;
nodes = (
"296 757 LINE SMOOTH",
"516 757 OFFCURVE",
"612 630 OFFCURVE",
"576 412 CURVE SMOOTH",
"540 194 OFFCURVE",
"406 68 OFFCURVE",
"187 68 CURVE SMOOTH",
"108 68 LINE",
"217 757 LINE"
);
}
);
};
layerId = "7984B694-437B-44C7-A8AE-41A7C9CC5720";
paths = (
{
closed = 1;
nodes = (
"29 0 LINE",
"198 0 LINE SMOOTH",
"455 0 OFFCURVE",
"606 172 OFFCURVE",
"644 413 CURVE SMOOTH",
"682 653 OFFCURVE",
"585 825 OFFCURVE",
"329 825 CURVE SMOOTH",
"160 825 LINE"
);
},
{
closed = 1;
nodes = (
"297 763 LINE SMOOTH",
"535 763 OFFCURVE",
"609 630 OFFCURVE",
"573 412 CURVE SMOOTH",
"537 194 OFFCURVE",
"406 68 OFFCURVE",
"187 68 CURVE SMOOTH",
"108 68 LINE",
"218 763 LINE"
);
}
);
width = 642;
}
);
leftKerningGroup = N;
leftMetricsKey = H;
rightKerningGroup = O;
rightMetricsKey = O;
unicode = 0044;
},
{
glyphname = Eth;
lastChange = "2017-11-04 14:37:29 +0000";
layers = (
{
layerId = "6F85D940-A117-47EE-950D-70F837F8C9CE";
paths = (
{
closed = 1;
nodes = (
"171 825 LINE",
"111 489 LINE",
"29 489 LINE",
"3 336 LINE",
"85 336 LINE",
"25 0 LINE",
"270 0 LINE SMOOTH",
"496 0 OFFCURVE",
"708 164 OFFCURVE",
"751 399 CURVE SMOOTH",
"794 646 OFFCURVE",
"631 825 OFFCURVE",
"404 825 CURVE SMOOTH"
);
},
{
closed = 1;
nodes = (
"243 168 LINE",
"273 336 LINE",
"382 336 LINE",
"408 489 LINE",
"299 489 LINE",
"329 657 LINE",
"364 657 LINE SMOOTH",
"503 657 OFFCURVE",
"574 557 OFFCURVE",
"552 426 CURVE SMOOTH",
"527 282 OFFCURVE",
"406 168 OFFCURVE",
"266 168 CURVE SMOOTH"
);
}
);
width = 776;
},
{
layerId = "7984B694-437B-44C7-A8AE-41A7C9CC5720";
paths = (
{
closed = 1;
nodes = (
"223 825 LINE",
"155 439 LINE",
"21 439 LINE",
"11 386 LINE",
"145 386 LINE",
"77 0 LINE",
"249 0 LINE SMOOTH",
"506 0 OFFCURVE",
"657 170 OFFCURVE",
"699 408 CURVE SMOOTH",
"742 651 OFFCURVE",
"645 825 OFFCURVE",
"389 825 CURVE SMOOTH"
);
},
{
closed = 1;
nodes = (
"157 68 LINE",
"213 386 LINE",
"360 386 LINE",
"370 439 LINE",
"223 439 LINE",
"279 757 LINE",
"360 757 LINE SMOOTH",
"580 757 OFFCURVE",
"672 632 OFFCURVE",
"633 417 CURVE SMOOTH",
"593 196 OFFCURVE",
"453 68 OFFCURVE",
"234 68 CURVE SMOOTH"
);
}
);
width = 723;
}
);
rightKerningGroup = O;
unicode = 00D0;
},
{
glyphname = Dcroat;
lastChange = "2017-11-04 14:37:29 +0000";
layers = (
{
layerId = "6F85D940-A117-47EE-950D-70F837F8C9CE";
paths = (
{
closed = 1;
nodes = (
"270 0 LINE SMOOTH",
"497 0 OFFCURVE",
"709 165 OFFCURVE",
"751 400 CURVE SMOOTH",
"794 646 OFFCURVE",
"630 825 OFFCURVE",
"404 825 CURVE SMOOTH",
"171 825 LINE",
"111 489 LINE",
"29 489 LINE",
"3 336 LINE",
"85 336 LINE",
"25 0 LINE"
);
},
{
closed = 1;
nodes = (
"273 336 LINE",
"382 336 LINE",
"408 489 LINE",
"299 489 LINE",
"329 657 LINE",
"364 657 LINE SMOOTH",
"504 657 OFFCURVE",
"575 557 OFFCURVE",
"552 425 CURVE SMOOTH",
"526 281 OFFCURVE",
"405 168 OFFCURVE",
"266 168 CURVE SMOOTH",
"243 168 LINE"
);
}
);
width = 776;
},
{
layerId = "7984B694-437B-44C7-A8AE-41A7C9CC5720";
paths = (
{
closed = 1;
nodes = (
"249 0 LINE SMOOTH",
"506 0 OFFCURVE",
"657 170 OFFCURVE",
"699 408 CURVE SMOOTH",
"742 651 OFFCURVE",
"645 825 OFFCURVE",
"389 825 CURVE SMOOTH",
"223 825 LINE",
"155 439 LINE",
"21 439 LINE",
"11 386 LINE",
"145 386 LINE",
"77 0 LINE"
);
},
{
closed = 1;
nodes = (
"213 386 LINE",
"360 386 LINE",
"370 439 LINE",
"223 439 LINE",
"279 757 LINE",
"360 757 LINE SMOOTH",
"580 757 OFFCURVE",
"672 632 OFFCURVE",
"633 417 CURVE SMOOTH",
"593 196 OFFCURVE",
"453 68 OFFCURVE",
"234 68 CURVE SMOOTH",
"157 68 LINE"
);
}
);
width = 723;
}
);
rightKerningGroup = O;
unicode = 0110;
},
{
color = 1;
glyphname = E;
lastChange = "2018-06-18 13:17:39 +0000";
layers = (
{
anchors = (
{
name = bottom;
position = "{269, 0}";
},
{
name = ogonek;
position = "{522, 10}";
},
{
name = top;
position = "{414, 825}";
},
{
name = topleft;
position = "{120, 825}";
}
);
layerId = "6F85D940-A117-47EE-950D-70F837F8C9CE";
paths = (
{
closed = 1;
nodes = (
"33 0 LINE",
"525 0 LINE",
"554 165 LINE",
"250 165 LINE",
"280 331 LINE",
"572 331 LINE",
"601 496 LINE",
"309 496 LINE",
"338 660 LINE",
"642 660 LINE",
"671 825 LINE",
"179 825 LINE"
);
}
);
width = 628;
},
{
anchors = (
{
name = bottom;
position = "{220, 0}";
},
{
name = ogonek;
position = "{433, 10}";
},
{
name = top;
position = "{365, 825}";
},
{
name = topleft;
position = "{120, 825}";
}
);
layerId = "7984B694-437B-44C7-A8AE-41A7C9CC5720";
paths = (
{
closed = 1;
nodes = (
"15 0 LINE",
"437 0 LINE",
"449 65 LINE",
"95 65 LINE",
"150 381 LINE",
"492 381 LINE",
"504 446 LINE",
"162 446 LINE",
"217 760 LINE",
"571 760 LINE",
"583 825 LINE",
"161 825 LINE"
);
}
);
width = 529;
}
);
leftKerningGroup = N;
leftMetricsKey = H;
rightKerningGroup = E;
unicode = 0045;
},
{
color = 1;
glyphname = F;
lastChange = "2018-06-18 13:17:39 +0000";
layers = (
{
anchors = (
{
name = bottom;
position = "{246, 0}";
},
{
name = top;
position = "{391, 825}";
}
);
layerId = "6F85D940-A117-47EE-950D-70F837F8C9CE";
paths = (
{
closed = 1;
nodes = (
"33 0 LINE",
"221 0 LINE",
"280 331 LINE",
"547 331 LINE",
"576 496 LINE",
"309 496 LINE",
"338 660 LINE",
"627 660 LINE",
"656 825 LINE",
"179 825 LINE"
);
}
);
width = 582;
},
{
anchors = (
{
name = bottom;
position = "{204, 0}";
},
{
name = top;
position = "{349, 825}";
}
);
layerId = "7984B694-437B-44C7-A8AE-41A7C9CC5720";
paths = (
{
closed = 1;
nodes = (
"28 0 LINE",
"96 0 LINE",
"157 381 LINE",
"474 381 LINE",
"484 446 LINE",
"167 446 LINE",
"217 760 LINE",
"556 760 LINE",
"567 825 LINE",
"160 825 LINE"
);
}
);
width = 497;
}
);
leftKerningGroup = N;
leftMetricsKey = H;
rightKerningGroup = F;
unicode = 0046;
},
{
glyphname = G;
lastChange = "2018-06-18 13:17:39 +0000";
layers = (
{
anchors = (
{
name = bottom;
position = "{376, 0}";
},
{
name = top;
position = "{521, 825}";
}
);
background = {
components = (
{
name = O;
transform = "{1, 0, 0, 1, 31, 0}";
}
);
};
layerId = "6F85D940-A117-47EE-950D-70F837F8C9CE";
paths = (
{
closed = 1;
nodes = (
"439 317 LINE",
"636 319 LINE",
"619 218 OFFCURVE",
"531 151 OFFCURVE",
"418 157 CURVE SMOOTH",
"308 163 OFFCURVE",
"231 282 OFFCURVE",
"255 416 CURVE SMOOTH",
"281 565 OFFCURVE",
"368 670 OFFCURVE",
"489 670 CURVE SMOOTH",
"557 670 OFFCURVE",
"647 647 OFFCURVE",
"682 570 CURVE",
"821 701 LINE",
"756 797 OFFCURVE",
"645 841 OFFCURVE",
"528 841 CURVE SMOOTH",
"262 841 OFFCURVE",
"96 648 OFFCURVE",
"59 438 CURVE SMOOTH",
"20 220 OFFCURVE",
"121 -15 OFFCURVE",
"392 -15 CURVE SMOOTH",
"745 -15 OFFCURVE",
"822 284 OFFCURVE",
"827 318 CURVE SMOOTH",
"850 462 LINE",
"465 462 LINE"
);
}
);
width = 842;
},
{
anchors = (
{
name = bottom;
position = "{344, 0}";
},
{
name = top;
position = "{489, 825}";
}
);
background = {
paths = (
{
closed = 1;
nodes = (
"419 377 LINE",
"699 377 LINE",
"667 174 OFFCURVE",
"541 53 OFFCURVE",
"368 53 CURVE SMOOTH",
"189 53 OFFCURVE",
"92 202 OFFCURVE",
"126 412 CURVE SMOOTH",
"160 625 OFFCURVE",
"318 774 OFFCURVE",
"484 774 CURVE SMOOTH",
"623 774 OFFCURVE",
"675 710 OFFCURVE",
"699 683 CURVE",
"759 732 LINE",
"727 768 OFFCURVE",
"659 840 OFFCURVE",
"494 840 CURVE SMOOTH",
"272 840 OFFCURVE",
"90 649 OFFCURVE",
"53 412 CURVE SMOOTH",
"16 176 OFFCURVE",
"125 -15 OFFCURVE",
"357 -15 CURVE SMOOTH",
"706 -15 OFFCURVE",
"770 350 OFFCURVE",
"775 384 CURVE",
"784 442 LINE",
"429 442 LINE"
);
}
);
};
layerId = "7984B694-437B-44C7-A8AE-41A7C9CC5720";
paths = (
{
closed = 1;
nodes = (
"419 377 LINE",
"699 377 LINE",
"667 174 OFFCURVE",
"541 53 OFFCURVE",
"368 53 CURVE SMOOTH",
"189 53 OFFCURVE",
"92 202 OFFCURVE",
"126 412 CURVE SMOOTH",
"160 625 OFFCURVE",
"318 774 OFFCURVE",
"484 774 CURVE SMOOTH",
"623 774 OFFCURVE",
"675 710 OFFCURVE",
"699 683 CURVE",
"759 732 LINE",
"727 768 OFFCURVE",
"659 840 OFFCURVE",
"494 840 CURVE SMOOTH",
"272 840 OFFCURVE",
"90 649 OFFCURVE",
"53 412 CURVE SMOOTH",
"16 176 OFFCURVE",
"125 -15 OFFCURVE",
"357 -15 CURVE SMOOTH",
"706 -15 OFFCURVE",
"770 350 OFFCURVE",
"775 384 CURVE",
"784 442 LINE",
"429 442 LINE"
);
}
);
width = 778;
}
);
leftKerningGroup = O;
leftMetricsKey = O;
rightKerningGroup = d;
rightMetricsKey = O;
unicode = 0047;
},
{
glyphname = Gcommaaccent;
lastChange = "2018-06-18 11:58:50 +0000";
layers = (
{
components = (
{
name = G;
}
);
layerId = "6F85D940-A117-47EE-950D-70F837F8C9CE";
paths = (
{
closed = 1;
nodes = (
"342 -36 OFFCURVE",
"309 -71 OFFCURVE",
"303 -107 CURVE SMOOTH",
"297 -144 OFFCURVE",
"328 -179 OFFCURVE",
"373 -179 CURVE",
"358 -203 OFFCURVE",
"331 -218 OFFCURVE",
"294 -237 CURVE",
"331 -281 LINE",
"391 -263 OFFCURVE",
"475 -202 OFFCURVE",
"485 -139 CURVE SMOOTH",
"495 -78 OFFCURVE",
"462 -36 OFFCURVE",
"401 -36 CURVE SMOOTH"
);
}
);
width = 842;
},
{
components = (
{
alignment = -1;
name = G;
}
);
layerId = "7984B694-437B-44C7-A8AE-41A7C9CC5720";
paths = (
{
closed = 1;
nodes = (
"326 -49 OFFCURVE",
"294 -78 OFFCURVE",
"287 -113 CURVE SMOOTH",
"280 -147 OFFCURVE",
"314 -178 OFFCURVE",
"355 -169 CURVE",
"327 -208 OFFCURVE",
"269 -240 OFFCURVE",
"269 -240 CURVE",
"299 -265 LINE",
"343 -242 OFFCURVE",
"408 -191 OFFCURVE",
"420 -123 CURVE SMOOTH",
"427 -82 OFFCURVE",
"401 -49 OFFCURVE",
"360 -49 CURVE SMOOTH"
);
}
);
width = 769;
}
);
leftKerningGroup = O;
rightKerningGroup = d;
unicode = 0122;
},
{
color = 1;
glyphname = H;
lastChange = "2018-06-18 13:17:39 +0000";
layers = (
{
anchors = (
{
name = bottom;
position = "{355, 0}";
},
{
name = center;
position = "{428, 413}";
},
{
name = top;
position = "{500, 825}";
},
{
name = topleft;
position = "{120, 825}";
}
);
layerId = "6F85D940-A117-47EE-950D-70F837F8C9CE";
paths = (
{
closed = 1;
nodes = (
"487 0 LINE",
"675 0 LINE",
"821 825 LINE",
"633 825 LINE",
"575 496 LINE",
"309 496 LINE",
"367 825 LINE",
"179 825 LINE",
"33 0 LINE",
"221 0 LINE",
"280 331 LINE",
"546 331 LINE"
);
}
);
width = 799;
},
{
anchors = (
{
name = bottom;
position = "{288, 0}";
},
{
name = center;
position = "{361, 413}";
},
{
name = top;
position = "{433, 825}";
},
{
name = topleft;
position = "{120, 825}";
}
);
layerId = "7984B694-437B-44C7-A8AE-41A7C9CC5720";
paths = (
{
closed = 1;
nodes = (
"492 0 LINE",
"560 0 LINE",
"692 825 LINE",
"624 825 LINE",
"563 446 LINE",
"167 446 LINE",
"228 825 LINE",
"160 825 LINE",
"28 0 LINE",
"96 0 LINE",
"157 381 LINE",
"553 381 LINE"
);
}
);
width = 665;
}
);
leftKerningGroup = N;
rightKerningGroup = N;
unicode = 0048;
},
{
glyphname = Hbar;
lastChange = "2018-06-18 12:47:57 +0000";
layers = (
{
components = (
{
name = H;
}
);
layerId = "6F85D940-A117-47EE-950D-70F837F8C9CE";
paths = (
{
closed = 1;
nodes = (
"77 578 LINE",
"839 578 LINE",
"864 718 LINE",
"102 718 LINE"
);
}
);
width = 762;
},
{
components = (
{
name = H;
}
);
layerId = "7984B694-437B-44C7-A8AE-41A7C9CC5720";
paths = (
{
closed = 1;
nodes = (
"60 628 LINE",
"722 628 LINE",
"731 678 LINE",
"69 678 LINE"
);
}
);
width = 652;
}
);
unicode = 0126;
},
{
color = 1;
glyphname = I;
lastChange = "2018-06-18 13:17:39 +0000";
layers = (
{
anchors = (
{
name = bottom;
position = "{128, 0}";
},
{
name = ogonek;
position = "{268, 10}";
},
{
name = top;
position = "{273, 825}";
},
{
name = topleft;
position = "{120, 825}";
}
);
layerId = "6F85D940-A117-47EE-950D-70F837F8C9CE";
paths = (
{
closed = 1;
nodes = (
"33 0 LINE",
"221 0 LINE",
"367 825 LINE",
"179 825 LINE"
);
}
);
width = 345;
},
{
anchors = (
{
name = bottom;
position = "{66, 0}";
},
{
name = ogonek;
position = "{156, 10}";
},
{
name = top;
position = "{211, 825}";
},
{
name = topleft;
position = "{120, 825}";
}
);
layerId = "7984B694-437B-44C7-A8AE-41A7C9CC5720";
paths = (
{
closed = 1;
nodes = (
"38 0 LINE",
"106 0 LINE",
"238 825 LINE",
"170 825 LINE"
);
}
);
width = 221;
}
);
leftKerningGroup = i;
rightKerningGroup = d;
unicode = 0049;
},
{
color = 1;
glyphname = J;
lastChange = "2018-06-18 13:17:39 +0000";
layers = (
{
anchors = (
{
name = bottom;
position = "{216, 0}";
},
{
name = top;
position = "{361, 825}";
}
);
background = {
paths = (
{
closed = 1;
nodes = (
"543 825 LINE",
"355 825 LINE",
"260 288 LINE SMOOTH",
"245 205 OFFCURVE",
"192 165 OFFCURVE",
"132 165 CURVE SMOOTH",
"90 165 OFFCURVE",
"51 211 OFFCURVE",
"47 215 CURVE",
"-38 64 LINE",
"-36 64 OFFCURVE",
"25 -15 OFFCURVE",
"149 -15 CURVE SMOOTH",
"308 -15 OFFCURVE",
"409 64 OFFCURVE",
"437 226 CURVE SMOOTH"
);
}
);
};
layerId = "6F85D940-A117-47EE-950D-70F837F8C9CE";
paths = (
{
closed = 1;
nodes = (
"543 825 LINE",
"355 825 LINE",
"261 288 LINE SMOOTH",
"246 205 OFFCURVE",
"219 171 OFFCURVE",
"182 159 CURVE SMOOTH",
"140 145 OFFCURVE",
"90 170 OFFCURVE",
"47 215 CURVE",
"-38 64 LINE",
"-36 64 OFFCURVE",
"25 -15 OFFCURVE",
"149 -15 CURVE SMOOTH",
"308 -15 OFFCURVE",
"409 64 OFFCURVE",
"437 226 CURVE SMOOTH"
);
}
);
width = 521;
},
{
anchors = (
{
name = bottom;
position = "{184, 0}";
},
{
name = top;
position = "{329, 825}";
}
);
layerId = "7984B694-437B-44C7-A8AE-41A7C9CC5720";
paths = (
{
closed = 1;
nodes = (
"488 825 LINE",
"420 825 LINE",
"327 243 LINE SMOOTH",
"314 160 OFFCURVE",
"289 45 OFFCURVE",
"157 45 CURVE SMOOTH",
"69 45 OFFCURVE",
"15 97 OFFCURVE",
"1 118 CURVE",
"-34 61 LINE",
"-10 28 OFFCURVE",
"57 -15 OFFCURVE",
"153 -15 CURVE SMOOTH",
"316 -15 OFFCURVE",
"370 89 OFFCURVE",
"396 251 CURVE SMOOTH"
);
}
);
width = 457;
}
);
rightKerningGroup = d;
rightMetricsKey = H;
unicode = 004A;
},
{
color = 1;
glyphname = K;
lastChange = "2018-06-18 13:17:39 +0000";
layers = (
{
anchors = (
{
name = bottom;
position = "{338, 0}";
},
{
name = top;
position = "{483, 825}";
}
);
layerId = "6F85D940-A117-47EE-950D-70F837F8C9CE";
paths = (
{
closed = 1;
nodes = (
"850 825 LINE",
"618 825 LINE",
"305 488 LINE",
"367 825 LINE",
"179 825 LINE",
"33 0 LINE",
"221 0 LINE",
"287 360 LINE",
"497 0 LINE",
"732 0 LINE",
"467 434 LINE"
);
}
);
width = 765;
},
{
anchors = (
{
name = bottom;
position = "{237, 0}";
},
{
name = top;
position = "{382, 825}";
}
);
layerId = "7984B694-437B-44C7-A8AE-41A7C9CC5720";
paths = (
{
closed = 1;
nodes = (
"630 825 LINE",
"540 825 LINE",
"164 428 LINE",
"228 825 LINE",
"160 825 LINE",
"28 0 LINE",
"96 0 LINE",
"159 390 LINE",
"431 0 LINE",
"518 0 LINE",
"231 414 LINE"
);
}
);
width = 563;
}
);
leftKerningGroup = N;
leftMetricsKey = H;
rightKerningGroup = X;
unicode = 004B;
},
{
glyphname = Kcommaaccent;
lastChange = "2018-06-16 16:13:05 +0000";
layers = (
{
components = (
{
name = K;
}
);
layerId = "6F85D940-A117-47EE-950D-70F837F8C9CE";
paths = (
{
closed = 1;
nodes = (
"283 -36 OFFCURVE",
"250 -71 OFFCURVE",
"244 -107 CURVE SMOOTH",
"238 -144 OFFCURVE",
"269 -179 OFFCURVE",
"314 -179 CURVE",
"299 -203 OFFCURVE",
"272 -218 OFFCURVE",
"235 -237 CURVE",
"272 -281 LINE",
"332 -263 OFFCURVE",
"416 -202 OFFCURVE",
"426 -139 CURVE SMOOTH",
"436 -78 OFFCURVE",
"403 -36 OFFCURVE",
"342 -36 CURVE SMOOTH"
);
}
);
width = 765;
},
{
components = (
{
alignment = -1;
name = K;
}
);
layerId = "7984B694-437B-44C7-A8AE-41A7C9CC5720";
paths = (
{
closed = 1;
nodes = (
"201 -49 OFFCURVE",
"169 -78 OFFCURVE",
"162 -113 CURVE SMOOTH",
"155 -147 OFFCURVE",
"189 -178 OFFCURVE",
"230 -169 CURVE",
"202 -208 OFFCURVE",
"144 -240 OFFCURVE",
"144 -240 CURVE",
"174 -265 LINE",
"218 -242 OFFCURVE",
"283 -191 OFFCURVE",
"295 -123 CURVE SMOOTH",
"302 -82 OFFCURVE",
"276 -49 OFFCURVE",
"235 -49 CURVE SMOOTH"
);
}
);
width = 551;
}
);
leftKerningGroup = N;
rightKerningGroup = X;
unicode = 0136;
},
{
color = 1;
glyphname = L;
lastChange = "2018-06-18 13:17:39 +0000";
layers = (
{
anchors = (
{
name = bottom;
position = "{232, 0}";
},
{
name = center;
position = "{305, 413}";
},
{
name = top;
position = "{377, 825}";
},
{
name = topright;
position = "{633, 825}";
}
);
layerId = "6F85D940-A117-47EE-950D-70F837F8C9CE";
paths = (
{
closed = 1;
nodes = (
"33 0 LINE",
"505 0 LINE",
"534 165 LINE",
"250 165 LINE",
"367 825 LINE",
"179 825 LINE"
);
}
);
width = 553;
},
{
anchors = (
{
name = bottom;
position = "{193, 0}";
},
{
name = center;
position = "{266, 413}";
},
{
name = top;
position = "{338, 825}";
},
{
name = topright;
position = "{555, 825}";
}
);
layerId = "7984B694-437B-44C7-A8AE-41A7C9CC5720";
paths = (
{
closed = 1;
nodes = (
"28 0 LINE",
"430 0 LINE",
"441 65 LINE",
"107 65 LINE",
"228 825 LINE",
"160 825 LINE"
);
}
);
width = 475;
}
);
leftKerningGroup = N;
leftMetricsKey = H;
rightKerningGroup = L;
unicode = 004C;
},
{
glyphname = Lcommaaccent;
lastChange = "2018-06-16 16:12:59 +0000";
layers = (
{
components = (
{
name = L;
}
);
layerId = "6F85D940-A117-47EE-950D-70F837F8C9CE";
paths = (
{
closed = 1;
nodes = (
"183 -36 OFFCURVE",
"150 -71 OFFCURVE",
"144 -107 CURVE SMOOTH",
"138 -144 OFFCURVE",
"169 -179 OFFCURVE",
"214 -179 CURVE",
"199 -203 OFFCURVE",
"172 -218 OFFCURVE",
"135 -237 CURVE",
"172 -281 LINE",
"232 -263 OFFCURVE",
"316 -202 OFFCURVE",
"326 -139 CURVE SMOOTH",
"336 -78 OFFCURVE",
"303 -36 OFFCURVE",
"242 -36 CURVE SMOOTH"
);
}
);
width = 553;
},
{
components = (
{
alignment = -1;
name = L;
}
);
layerId = "7984B694-437B-44C7-A8AE-41A7C9CC5720";
paths = (
{
closed = 1;
nodes = (
"181 -49 OFFCURVE",
"149 -78 OFFCURVE",
"142 -113 CURVE SMOOTH",
"135 -147 OFFCURVE",
"168 -178 OFFCURVE",
"209 -169 CURVE",
"182 -208 OFFCURVE",
"123 -240 OFFCURVE",
"123 -240 CURVE",
"154 -265 LINE",
"198 -242 OFFCURVE",
"263 -191 OFFCURVE",
"275 -123 CURVE SMOOTH",
"282 -82 OFFCURVE",
"256 -49 OFFCURVE",
"215 -49 CURVE SMOOTH"
);
}
);
width = 495;
}
);
leftKerningGroup = N;
rightKerningGroup = L;
unicode = 013B;
},
{
glyphname = Lslash;
lastChange = "2017-11-04 14:37:09 +0000";
layers = (
{
layerId = "6F85D940-A117-47EE-950D-70F837F8C9CE";
paths = (
{
closed = 1;
nodes = (
"495 0 LINE",
"524 165 LINE",
"240 165 LINE",
"294 457 LINE",
"413 540 LINE",
"437 693 LINE",
"317 610 LINE",
"357 825 LINE",
"169 825 LINE",
"103 462 LINE",
"17 403 LINE",
"-7 250 LINE",
"79 309 LINE",
"23 0 LINE"
);
}
);
width = 601;
},
{
layerId = "7984B694-437B-44C7-A8AE-41A7C9CC5720";
paths = (
{
closed = 1;
nodes = (
"439 0 LINE",
"451 65 LINE",
"117 65 LINE",
"184 444 LINE",
"274 506 LINE",
"287 589 LINE",
"198 527 LINE",
"251 825 LINE",
"183 825 LINE",
"120 474 LINE",
"18 403 LINE",
"4 320 LINE",
"107 391 LINE",
"37 0 LINE"
);
}
);
width = 545;
}
);
leftKerningGroup = N;
rightKerningGroup = L;
unicode = 0141;
},
{
glyphname = M;
lastChange = "2018-06-18 13:17:39 +0000";
layers = (
{
anchors = (
{
name = bottom;
position = "{453, 0}";
},
{
name = top;
position = "{598, 825}";
}
);
background = {
paths = (
{
closed = 1;
nodes = (
"777 825 LINE",
"512 301 LINE",
"503 279 LINE",
"500 301 LINE",
"405 825 LINE",
"179 825 LINE",
"33 0 LINE",
"221 0 LINE",
"311 529 LINE",
"316 473 LINE",
"388 0 LINE",
"520 0 LINE",
"763 494 LINE",
"779 533 LINE",
"683 0 LINE",
"871 0 LINE",
"1017 825 LINE"
);
}
);
};
layerId = "6F85D940-A117-47EE-950D-70F837F8C9CE";
paths = (
{
closed = 1;
nodes = (
"817 825 LINE",
"508 301 LINE",
"499 279 LINE",
"496 301 LINE",
"375 825 LINE",
"179 825 LINE",
"33 0 LINE",
"221 0 LINE",
"304 461 LINE",
"307 423 LINE",
"388 0 LINE",
"520 0 LINE",
"752 423 LINE",
"765 461 LINE",
"683 0 LINE",
"871 0 LINE",
"1017 825 LINE"
);
}
);
width = 995;
},
{
anchors = (
{
name = bottom;
position = "{361, 0}";
},
{
name = top;
position = "{506, 825}";
}
);
layerId = "7984B694-437B-44C7-A8AE-41A7C9CC5720";
paths = (
{
closed = 1;
nodes = (
"769 825 LINE",
"391 121 LINE",
"383 99 LINE",
"379 121 LINE",
"227 825 LINE",
"160 825 LINE",
"28 0 LINE",
"96 0 LINE",
"205 689 LINE",
"210 603 LINE",
"342 0 LINE",
"394 0 LINE",
"715 603 LINE",
"749 689 LINE",
"638 0 LINE",
"706 0 LINE",
"838 825 LINE"
);
}
);
width = 811;
}
);
leftKerningGroup = N;
leftMetricsKey = H;
rightKerningGroup = N;
rightMetricsKey = H;
unicode = 004D;
},
{
glyphname = N;
lastChange = "2018-06-18 13:17:39 +0000";
layers = (
{
anchors = (
{
name = bottom;
position = "{387, 0}";
},
{
name = top;
position = "{532, 825}";
}
);
layerId = "6F85D940-A117-47EE-950D-70F837F8C9CE";
paths = (
{
closed = 1;
nodes = (
"553 0 LINE",
"739 0 LINE",
"885 825 LINE",
"697 825 LINE",
"606 313 LINE",
"602 313 LINE",
"365 825 LINE",
"179 825 LINE",
"33 0 LINE",
"221 0 LINE",
"312 512 LINE",
"316 512 LINE"
);
}
);
width = 863;
},
{
anchors = (
{
name = bottom;
position = "{315, 0}";
},
{
name = top;
position = "{460, 825}";
}
);
layerId = "7984B694-437B-44C7-A8AE-41A7C9CC5720";
paths = (
{
closed = 1;
nodes = (
"547 0 LINE",
"614 0 LINE",
"746 825 LINE",
"678 825 LINE",
"566 123 LINE",
"561 123 LINE",
"227 825 LINE",
"160 825 LINE",
"28 0 LINE",
"96 0 LINE",
"207 700 LINE",
"211 700 LINE"
);
}
);
width = 719;
}
);
leftKerningGroup = N;
leftMetricsKey = H;
rightKerningGroup = N;
rightMetricsKey = H;
unicode = 004E;
},
{
glyphname = Ncommaaccent;
lastChange = "2018-06-16 16:13:44 +0000";
layers = (
{
components = (
{
name = N;
}
);
layerId = "6F85D940-A117-47EE-950D-70F837F8C9CE";
paths = (
{
closed = 1;
nodes = (
"321 -36 OFFCURVE",
"288 -71 OFFCURVE",
"282 -107 CURVE SMOOTH",
"276 -144 OFFCURVE",
"307 -179 OFFCURVE",
"352 -179 CURVE",
"337 -203 OFFCURVE",
"310 -218 OFFCURVE",
"273 -237 CURVE",
"310 -281 LINE",
"370 -263 OFFCURVE",
"454 -202 OFFCURVE",
"464 -139 CURVE SMOOTH",
"474 -78 OFFCURVE",
"441 -36 OFFCURVE",
"380 -36 CURVE SMOOTH"
);
}
);
width = 863;
},
{
components = (
{
alignment = -1;
name = N;
}
);
layerId = "7984B694-437B-44C7-A8AE-41A7C9CC5720";
paths = (
{
closed = 1;
nodes = (
"275 -49 OFFCURVE",
"243 -78 OFFCURVE",
"236 -113 CURVE SMOOTH",
"229 -147 OFFCURVE",
"263 -178 OFFCURVE",
"304 -169 CURVE",
"276 -208 OFFCURVE",
"218 -240 OFFCURVE",
"218 -240 CURVE",
"248 -265 LINE",
"292 -242 OFFCURVE",
"357 -191 OFFCURVE",
"369 -123 CURVE SMOOTH",
"376 -82 OFFCURVE",
"350 -49 OFFCURVE",
"309 -49 CURVE SMOOTH"
);
}
);
width = 706;
}
);
leftKerningGroup = N;
rightKerningGroup = N;
unicode = 0145;
},
{
glyphname = Eng;
lastChange = "2018-06-18 12:46:44 +0000";
layers = (
{
components = (
{
name = N;
}
);
layerId = "6F85D940-A117-47EE-950D-70F837F8C9CE";
paths = (
{
closed = 1;
nodes = (
"726 -72 LINE SMOOTH",
"710 -163 OFFCURVE",
"641 -275 OFFCURVE",
"483 -275 CURVE SMOOTH",
"405 -275 OFFCURVE",
"377 -257 OFFCURVE",
"354 -246 CURVE",
"436 -100 LINE",
"445 -106 OFFCURVE",
"471 -115 OFFCURVE",
"492 -115 CURVE SMOOTH",
"523 -115 OFFCURVE",
"535 -93 OFFCURVE",
"542 -52 CURVE SMOOTH",
"551 0 LINE",
"739 0 LINE"
);
}
);
width = 826;
},
{
components = (
{
name = N;
}
);
layerId = "7984B694-437B-44C7-A8AE-41A7C9CC5720";
paths = (
{
closed = 1;
nodes = (
"601 -77 LINE SMOOTH",
"584 -178 OFFCURVE",
"542 -275 OFFCURVE",
"432 -275 CURVE SMOOTH",
"381 -275 OFFCURVE",
"344 -256 OFFCURVE",
"342 -254 CURVE",
"380 -195 LINE",
"391 -206 OFFCURVE",
"414 -213 OFFCURVE",
"437 -213 CURVE SMOOTH",
"507 -213 OFFCURVE",
"523 -141 OFFCURVE",
"539 -47 CURVE SMOOTH",
"547 0 LINE",
"614 0 LINE"
);
}
);
width = 706;
}
);
leftKerningGroup = N;
rightKerningGroup = N;
unicode = 014A;
},
{
color = 1;
glyphname = O;
lastChange = "2018-06-18 13:17:39 +0000";
layers = (
{
anchors = (
{
name = bottom;
position = "{397, 0}";
},
{
name = center;
position = "{470, 413}";
},
{
name = ogonek;
position = "{753, 10}";
},
{
name = top;
position = "{542, 825}";
},
{
name = topleft;
position = "{120, 825}";
},
{
name = topright;
position = "{964, 825}";
}
);
guideLines = (
{
angle = 80;
position = "{696, 437}";
}
);
layerId = "6F85D940-A117-47EE-950D-70F837F8C9CE";
paths = (
{
closed = 1;
nodes = (
"274 546 OFFCURVE",
"358 664 OFFCURVE",
"504 664 CURVE SMOOTH",
"640 664 OFFCURVE",
"715 557 OFFCURVE",
"689 415 CURVE SMOOTH",
"663 274 OFFCURVE",
"577 162 OFFCURVE",
"429 162 CURVE SMOOTH",
"288 162 OFFCURVE",
"231 290 OFFCURVE",
"252 415 CURVE SMOOTH"
);
},
{
closed = 1;
nodes = (
"13 174 OFFCURVE",
"157 -15 OFFCURVE",
"411 -15 CURVE SMOOTH",
"639 -15 OFFCURVE",
"840 145 OFFCURVE",
"884 402 CURVE SMOOTH",
"926 650 OFFCURVE",
"778 840 OFFCURVE",
"526 840 CURVE SMOOTH",
"287 840 OFFCURVE",
"99 669 OFFCURVE",
"57 428 CURVE SMOOTH"
);
}
);
width = 884;
},
{
anchors = (
{
name = bottom;
position = "{366, 0}";
},
{
name = center;
position = "{439, 413}";
},
{
name = ogonek;
position = "{696, 10}";
},
{
name = top;
position = "{511, 825}";
},
{
name = topleft;
position = "{120, 825}";
},
{
name = topright;
position = "{901, 825}";
}
);
layerId = "7984B694-437B-44C7-A8AE-41A7C9CC5720";
paths = (
{
closed = 1;
nodes = (
"157 604 OFFCURVE",
"302 781 OFFCURVE",
"499 781 CURVE SMOOTH",
"687 781 OFFCURVE",
"784 616 OFFCURVE",
"752 418 CURVE SMOOTH",
"720 222 OFFCURVE",
"580 44 OFFCURVE",
"378 44 CURVE SMOOTH",
"186 44 OFFCURVE",
"94 205 OFFCURVE",
"125 408 CURVE SMOOTH"
);
},
{
closed = 1;
nodes = (
"15 175 OFFCURVE",
"130 -15 OFFCURVE",
"375 -15 CURVE SMOOTH",
"610 -15 OFFCURVE",
"785 170 OFFCURVE",
"823 408 CURVE SMOOTH",
"863 641 OFFCURVE",
"740 840 OFFCURVE",
"503 840 CURVE SMOOTH",
"278 840 OFFCURVE",
"92 656 OFFCURVE",
"54 418 CURVE SMOOTH"
);
}
);
width = 821;
}
);
leftKerningGroup = O;
rightKerningGroup = O;
unicode = 004F;
},
{
glyphname = Oslash;
lastChange = "2018-06-18 13:17:39 +0000";
layers = (
{
anchors = (
{
name = bottom;
position = "{394, 0}";
},
{
name = top;
position = "{539, 825}";
}
);
layerId = "6F85D940-A117-47EE-950D-70F837F8C9CE";
paths = (
{
closed = 1;
nodes = (
"172 41 LINE",
"224 7 OFFCURVE",
"291 -15 OFFCURVE",
"375 -15 CURVE SMOOTH",
"606 -15 OFFCURVE",
"810 165 OFFCURVE",
"852 400 CURVE SMOOTH",
"872 515 OFFCURVE",
"847 615 OFFCURVE",
"797 689 CURVE",
"873 767 LINE",
"772 853 LINE",
"702 782 LINE",
"649 817 OFFCURVE",
"583 840 OFFCURVE",
"503 840 CURVE SMOOTH",
"282 840 OFFCURVE",
"67 661 OFFCURVE",
"25 426 CURVE SMOOTH",
"5 309 OFFCURVE",
"27 208 OFFCURVE",
"76 133 CURVE",
"4 59 LINE",
"105 -27 LINE"
);
},
{
closed = 1;
nodes = (
"354 167 OFFCURVE",
"325 170 OFFCURVE",
"301 182 CURVE",
"653 542 LINE",
"661 504 OFFCURVE",
"660 462 OFFCURVE",
"653 426 CURVE SMOOTH",
"631 297 OFFCURVE",
"540 167 OFFCURVE",
"384 167 CURVE SMOOTH"
);
},
{
closed = 1;
nodes = (
"215 320 OFFCURVE",
"217 363 OFFCURVE",
"224 400 CURVE SMOOTH",
"247 529 OFFCURVE",
"343 659 OFFCURVE",
"494 659 CURVE SMOOTH",
"522 659 OFFCURVE",
"551 655 OFFCURVE",
"574 643 CURVE",
"222 282 LINE"
);
}
);
width = 877;
},
{
anchors = (
{
name = bottom;
position = "{364, 0}";
},
{
name = top;
position = "{509, 825}";
}
);
layerId = "7984B694-437B-44C7-A8AE-41A7C9CC5720";
paths = (
{
closed = 1;
nodes = (
"113 65 LINE",
"165 16 OFFCURVE",
"240 -15 OFFCURVE",
"338 -15 CURVE SMOOTH",
"573 -15 OFFCURVE",
"751 170 OFFCURVE",
"793 408 CURVE SMOOTH",
"815 530 OFFCURVE",
"794 635 OFFCURVE",
"741 712 CURVE",
"823 795 LINE",
"783 829 LINE",
"708 751 LINE",
"655 806 OFFCURVE",
"577 840 OFFCURVE",
"480 840 CURVE SMOOTH",
"255 840 OFFCURVE",
"66 656 OFFCURVE",
"24 418 CURVE SMOOTH",
"2 291 OFFCURVE",
"22 181 OFFCURVE",
"78 103 CURVE",
"1 25 LINE",
"41 -9 LINE"
);
},
{
closed = 1;
nodes = (
"262 47 OFFCURVE",
"202 71 OFFCURVE",
"160 115 CURVE",
"692 660 LINE",
"728 594 OFFCURVE",
"738 507 OFFCURVE",
"722 418 CURVE SMOOTH",
"687 222 OFFCURVE",
"542 47 OFFCURVE",
"340 47 CURVE SMOOTH"
);
},
{
closed = 1;
nodes = (
"88 223 OFFCURVE",
"79 315 OFFCURVE",
"95 408 CURVE SMOOTH",
"130 604 OFFCURVE",
"281 779 OFFCURVE",
"478 779 CURVE SMOOTH",
"557 779 OFFCURVE",
"619 751 OFFCURVE",
"662 703 CURVE",
"129 156 LINE"
);
}
);
width = 817;
}
);
leftKerningGroup = O;
rightKerningGroup = O;
unicode = 00D8;
},
{
glyphname = OE;
lastChange = "2018-06-18 13:17:39 +0000";
layers = (
{
anchors = (
{
name = bottom;
position = "{460, 0}";
},
{
name = top;
position = "{605, 825}";
}
);
layerId = "6F85D940-A117-47EE-950D-70F837F8C9CE";
paths = (
{
closed = 1;
nodes = (
"889 0 LINE",
"918 165 LINE",
"634 165 LINE",
"664 331 LINE",
"936 331 LINE",
"965 496 LINE",
"693 496 LINE",
"722 660 LINE",
"1006 660 LINE",
"1035 825 LINE",
"506 825 LINE SMOOTH",
"279 825 OFFCURVE",
"67 660 OFFCURVE",
"25 425 CURVE SMOOTH",
"-18 178 OFFCURVE",
"145 0 OFFCURVE",
"372 0 CURVE SMOOTH"
);
},
{
closed = 1;
nodes = (
"272 168 OFFCURVE",
"201 268 OFFCURVE",
"224 400 CURVE SMOOTH",
"249 543 OFFCURVE",
"370 657 OFFCURVE",
"510 657 CURVE SMOOTH",
"533 657 LINE",
"447 168 LINE",
"412 168 LINE SMOOTH"
);
}
);
width = 1010;
},
{
anchors = (
{
name = bottom;
position = "{415, 0}";
},
{
name = top;
position = "{560, 825}";
}
);
layerId = "7984B694-437B-44C7-A8AE-41A7C9CC5720";
paths = (
{
closed = 1;
nodes = (
"798 0 LINE",
"810 65 LINE",
"456 65 LINE",
"511 381 LINE",
"853 381 LINE",
"865 446 LINE",
"523 446 LINE",
"578 760 LINE",
"932 760 LINE",
"944 825 LINE",
"479 825 LINE SMOOTH",
"252 825 OFFCURVE",
"66 656 OFFCURVE",
"24 418 CURVE SMOOTH",
"-19 174 OFFCURVE",
"95 0 OFFCURVE",
"339 0 CURVE SMOOTH"
);
},
{
closed = 1;
nodes = (
"141 62 OFFCURVE",
"62 218 OFFCURVE",
"95 408 CURVE SMOOTH",
"130 604 OFFCURVE",
"278 764 OFFCURVE",
"473 764 CURVE SMOOTH",
"511 764 LINE",
"387 62 LINE",
"345 62 LINE SMOOTH"
);
}
);
width = 919;
}
);
leftKerningGroup = O;
rightKerningGroup = d;
unicode = 0152;
},
{
color = 1;
glyphname = P;
lastChange = "2018-06-18 13:17:39 +0000";
layers = (
{
anchors = (
{
name = bottom;
position = "{293, 0}";
},
{
name = top;
position = "{438, 825}";
}
);
layerId = "6F85D940-A117-47EE-950D-70F837F8C9CE";
paths = (
{
closed = 1;
nodes = (
"33 0 LINE",
"221 0 LINE",
"275 306 LINE",
"394 306 LINE SMOOTH",
"555 306 OFFCURVE",
"686 394 OFFCURVE",
"715 558 CURVE SMOOTH",
"746 735 OFFCURVE",
"635 825 OFFCURVE",
"474 825 CURVE SMOOTH",
"179 825 LINE"
);
},
{
closed = 1;
nodes = (
"340 675 LINE",
"399 675 LINE SMOOTH",
"473 675 OFFCURVE",
"534 657 OFFCURVE",
"520 578 CURVE SMOOTH",
"504 488 OFFCURVE",
"423 456 OFFCURVE",
"349 456 CURVE SMOOTH",
"302 456 LINE"
);
}
);
width = 676;
},
{
anchors = (
{
name = bottom;
position = "{238, 0}";
},
{
name = top;
position = "{383, 825}";
}
);
layerId = "7984B694-437B-44C7-A8AE-41A7C9CC5720";
paths = (
{
closed = 1;
nodes = (
"28 0 LINE",
"96 0 LINE",
"150 336 LINE",
"285 336 LINE SMOOTH",
"446 336 OFFCURVE",
"567 412 OFFCURVE",
"593 579 CURVE SMOOTH",
"619 746 OFFCURVE",
"528 825 OFFCURVE",
"358 825 CURVE SMOOTH",
"160 825 LINE"
);
},
{
closed = 1;
nodes = (
"217 760 LINE",
"333 760 LINE SMOOTH",
"461 760 OFFCURVE",
"549 721 OFFCURVE",
"529 589 CURVE SMOOTH",
"505 434 OFFCURVE",
"395 401 OFFCURVE",
"291 401 CURVE SMOOTH",
"160 401 LINE"
);
}
);
width = 566;
}
);
leftMetricsKey = H;
rightKerningGroup = P;
unicode = 0050;
},
{
glyphname = Thorn;
lastChange = "2018-06-18 13:17:39 +0000";
layers = (
{
anchors = (
{
name = bottom;
position = "{288, 0}";
},
{
name = top;
position = "{433, 825}";
}
);
layerId = "6F85D940-A117-47EE-950D-70F837F8C9CE";
paths = (
{
closed = 1;
nodes = (
"-13 0 LINE",
"175 0 LINE",
"202 153 LINE",
"321 153 LINE SMOOTH",
"482 153 OFFCURVE",
"613 241 OFFCURVE",
"642 405 CURVE SMOOTH",
"673 582 OFFCURVE",
"562 672 OFFCURVE",
"401 672 CURVE SMOOTH",
"294 672 LINE",
"321 825 LINE",
"133 825 LINE"
);
},
{
closed = 1;
nodes = (
"267 522 LINE",
"326 522 LINE SMOOTH",
"400 522 OFFCURVE",
"456 503 OFFCURVE",
"442 425 CURVE SMOOTH",
"426 336 OFFCURVE",
"350 303 OFFCURVE",
"276 303 CURVE SMOOTH",
"229 303 LINE"
);
}
);
width = 666;
},
{
anchors = (
{
name = bottom;
position = "{233, 0}";
},
{
name = top;
position = "{378, 825}";
}
);
layerId = "7984B694-437B-44C7-A8AE-41A7C9CC5720";
paths = (
{
closed = 1;
nodes = (
"-13 0 LINE",
"55 0 LINE",
"82 153 LINE",
"228 153 LINE SMOOTH",
"389 153 OFFCURVE",
"504 246 OFFCURVE",
"533 413 CURVE SMOOTH",
"564 587 OFFCURVE",
"475 672 OFFCURVE",
"314 672 CURVE SMOOTH",
"174 672 LINE",
"201 825 LINE",
"133 825 LINE"
);
},
{
closed = 1;
nodes = (
"162 607 LINE",
"318 607 LINE SMOOTH",
"432 607 OFFCURVE",
"495 554 OFFCURVE",
"472 423 CURVE SMOOTH",
"448 287 OFFCURVE",
"358 218 OFFCURVE",
"244 218 CURVE SMOOTH",
"94 218 LINE"
);
}
);
width = 556;
}
);
rightKerningGroup = d;
unicode = 00DE;
},
{
glyphname = Q;
lastChange = "2018-06-18 13:33:18 +0000";
layers = (
{
anchors = (
{
name = bottom;
position = "{365, 0}";
},
{
name = top;
position = "{510, 825}";
}
);
background = {
components = (
{
name = O;
transform = "{1, 0, 0, 1, 30, 0}";
}
);
};
guideLines = (
{
angle = 80;
position = "{771, 112}";
}
);
layerId = "7984B694-437B-44C7-A8AE-41A7C9CC5720";
paths = (
{
closed = 1;
nodes = (
"157 604 OFFCURVE",
"302 781 OFFCURVE",
"499 781 CURVE SMOOTH",
"709 781 OFFCURVE",
"782 592 OFFCURVE",
"749 405 CURVE SMOOTH",
"717 223 OFFCURVE",
"584 44 OFFCURVE",
"378 44 CURVE SMOOTH",
"186 44 OFFCURVE",
"94 205 OFFCURVE",
"125 408 CURVE SMOOTH"
);
},
{
closed = 1;
nodes = (
"645 -108 OFFCURVE",
"567 -110 OFFCURVE",
"494 -98 CURVE SMOOTH",
"390 -80 OFFCURVE",
"294 -34 OFFCURVE",
"230 26 CURVE",
"341 -34 OFFCURVE",
"497 -20 OFFCURVE",
"602 48 CURVE SMOOTH",
"719 124 OFFCURVE",
"796 260 OFFCURVE",
"820 399 CURVE SMOOTH",
"858 617 OFFCURVE",
"768 840 OFFCURVE",
"503 840 CURVE SMOOTH",
"278 840 OFFCURVE",
"92 656 OFFCURVE",
"54 418 CURVE SMOOTH",
"25 245 OFFCURVE",
"93 89 OFFCURVE",
"209 -20 CURVE SMOOTH",
"334 -137 OFFCURVE",
"521 -197 OFFCURVE",
"706 -155 CURVE",
"718 -86 LINE"
);
}
);
width = 820;
},
{
anchors = (
{
name = bottom;
position = "{398, 0}";
},
{
name = top;
position = "{543, 825}";
}
);
background = {
components = (
{
name = O;
transform = "{1, 0, 0, 1, 32, 0}";
}
);
};
guideLines = (
{
angle = 80;
position = "{922, 621}";
},
{
angle = -37;
position = "{177, 57}";
}
);
layerId = "6F85D940-A117-47EE-950D-70F837F8C9CE";
paths = (
{
closed = 1;
nodes = (
"268 549 OFFCURVE",
"354 669 OFFCURVE",
"503 669 CURVE SMOOTH",
"641 669 OFFCURVE",
"712 560 OFFCURVE",
"691 415 CURVE SMOOTH",
"670 273 OFFCURVE",
"577 151 OFFCURVE",
"426 151 CURVE SMOOTH",
"272 151 OFFCURVE",
"224 287 OFFCURVE",
"246 415 CURVE SMOOTH"
);
},
{
closed = 1;
nodes = (
"736 -41 OFFCURVE",
"679 -48 OFFCURVE",
"622 -48 CURVE SMOOTH",
"501 -48 OFFCURVE",
"401 -25 OFFCURVE",
"306 49 CURVE",
"416 -14 OFFCURVE",
"562 -3 OFFCURVE",
"672 61 CURVE SMOOTH",
"777 122 OFFCURVE",
"859 251 OFFCURVE",
"885 402 CURVE SMOOTH",
"929 650 OFFCURVE",
"779 840 OFFCURVE",
"527 840 CURVE SMOOTH",
"275 840 OFFCURVE",
"97 652 OFFCURVE",
"57 428 CURVE SMOOTH",
"23 233 OFFCURVE",
"100 43 OFFCURVE",
"248 -78 CURVE SMOOTH",
"374 -182 OFFCURVE",
"553 -236 OFFCURVE",
"758 -201 CURVE",
"789 -26 LINE"
);
}
);
width = 885;
},
{
associatedMasterId = "6F85D940-A117-47EE-950D-70F837F8C9CE";
background = {
components = (
{
name = O;
}
);
};
guideLines = (
{
angle = 80;
position = "{890, 621}";
},
{
angle = -37;
position = "{145, 57}";
}
);
layerId = "AE4DFAD6-9720-4760-8BDB-7723BD113B40";
name = "Mar 3 18, 13:20";
paths = (
{
closed = 1;
nodes = (
"236 549 OFFCURVE",
"322 669 OFFCURVE",
"471 669 CURVE SMOOTH",
"609 669 OFFCURVE",
"680 560 OFFCURVE",
"659 415 CURVE SMOOTH",
"638 273 OFFCURVE",
"545 151 OFFCURVE",
"394 151 CURVE SMOOTH",
"240 151 OFFCURVE",
"192 287 OFFCURVE",
"214 415 CURVE SMOOTH"
);
},
{
closed = 1;
nodes = (
"-38 66 OFFCURVE",
"281 -277 OFFCURVE",
"726 -201 CURVE",
"757 -26 LINE",
"620 -64 OFFCURVE",
"417 -54 OFFCURVE",
"315 24 CURVE",
"549 -51 OFFCURVE",
"802 114 OFFCURVE",
"853 402 CURVE SMOOTH",
"897 650 OFFCURVE",
"747 840 OFFCURVE",
"495 840 CURVE SMOOTH",
"243 840 OFFCURVE",
"65 652 OFFCURVE",
"25 428 CURVE SMOOTH"
);
}
);
visible = 1;
width = 878;
},
{
associatedMasterId = "7984B694-437B-44C7-A8AE-41A7C9CC5720";
background = {
components = (
{
name = O;
transform = "{1, 0, 0, 1, 30, 0}";
}
);
};
guideLines = (
{
angle = 80;
position = "{771, 112}";
}
);
layerId = "32DD6461-6A9E-432B-AF92-5884F68E556C";
name = "Mar 3 18, 13:27";
paths = (
{
closed = 1;
nodes = (
"157 604 OFFCURVE",
"302 781 OFFCURVE",
"499 781 CURVE SMOOTH",
"709 781 OFFCURVE",
"782 592 OFFCURVE",
"749 405 CURVE SMOOTH",
"717 223 OFFCURVE",
"584 44 OFFCURVE",
"378 44 CURVE SMOOTH",
"186 44 OFFCURVE",
"94 205 OFFCURVE",
"125 408 CURVE SMOOTH"
);
},
{
closed = 1;
nodes = (
"-6 60 OFFCURVE",
"341 -221 OFFCURVE",
"709 -164 CURVE",
"721 -95 LINE",
"552 -120 OFFCURVE",
"371 -79 OFFCURVE",
"253 14 CURVE",
"391 -33 OFFCURVE",
"509 -12 OFFCURVE",
"602 48 CURVE SMOOTH",
"719 123 OFFCURVE",
"796 260 OFFCURVE",
"820 399 CURVE SMOOTH",
"858 617 OFFCURVE",
"768 840 OFFCURVE",
"503 840 CURVE SMOOTH",
"278 840 OFFCURVE",
"92 656 OFFCURVE",
"54 418 CURVE SMOOTH"
);
}
);
width = 820;
}
);
leftKerningGroup = O;
leftMetricsKey = O;
rightKerningGroup = O;
rightMetricsKey = O;
unicode = 0051;
},
{
color = 1;
glyphname = R;
lastChange = "2018-06-18 13:17:39 +0000";
layers = (
{
anchors = (
{
name = bottom;
position = "{311, 0}";
},
{
name = top;
position = "{456, 825}";
}
);
layerId = "6F85D940-A117-47EE-950D-70F837F8C9CE";
paths = (
{
closed = 1;
nodes = (
"33 0 LINE",
"221 0 LINE",
"279 326 LINE",
"282 326 LINE",
"455 0 LINE",
"680 0 LINE",
"471 343 LINE",
"588 359 OFFCURVE",
"676 444 OFFCURVE",
"697 567 CURVE SMOOTH",
"727 735 OFFCURVE",
"631 825 OFFCURVE",
"478 825 CURVE SMOOTH",
"179 825 LINE"
);
},
{
closed = 1;
nodes = (
"340 675 LINE",
"368 675 LINE SMOOTH",
"439 675 OFFCURVE",
"519 677 OFFCURVE",
"502 580 CURVE SMOOTH",
"482 471 OFFCURVE",
"409 459 OFFCURVE",
"338 459 CURVE SMOOTH",
"302 459 LINE"
);
}
);
width = 712;
},
{
anchors = (
{
name = bottom;
position = "{246, 0}";
},
{
name = top;
position = "{391, 825}";
}
);
layerId = "7984B694-437B-44C7-A8AE-41A7C9CC5720";
paths = (
{
closed = 1;
nodes = (
"28 0 LINE",
"96 0 LINE",
"153 356 LINE",
"281 356 LINE",
"448 0 LINE",
"526 0 LINE",
"359 362 LINE",
"420 369 OFFCURVE",
"569 416 OFFCURVE",
"596 590 CURVE SMOOTH",
"622 747 OFFCURVE",
"534 825 OFFCURVE",
"362 825 CURVE SMOOTH",
"160 825 LINE"
);
},
{
closed = 1;
nodes = (
"217 760 LINE",
"354 760 LINE SMOOTH",
"478 760 OFFCURVE",
"554 713 OFFCURVE",
"533 599 CURVE SMOOTH",
"514 483 OFFCURVE",
"427 419 OFFCURVE",
"298 419 CURVE SMOOTH",
"163 419 LINE"
);
}
);
width = 581;
}
);
leftMetricsKey = H;
rightKerningGroup = R;
unicode = 0052;
},
{
glyphname = Rcommaaccent;
lastChange = "2018-06-16 16:12:43 +0000";
layers = (
{
components = (
{
name = R;
}
);
layerId = "6F85D940-A117-47EE-950D-70F837F8C9CE";
paths = (
{
closed = 1;
nodes = (
"245 -36 OFFCURVE",
"212 -71 OFFCURVE",
"206 -107 CURVE SMOOTH",
"200 -144 OFFCURVE",
"231 -179 OFFCURVE",
"276 -179 CURVE",
"261 -203 OFFCURVE",
"234 -218 OFFCURVE",
"197 -237 CURVE",
"234 -281 LINE",
"294 -263 OFFCURVE",
"378 -202 OFFCURVE",
"388 -139 CURVE SMOOTH",
"398 -78 OFFCURVE",
"365 -36 OFFCURVE",
"304 -36 CURVE SMOOTH"
);
}
);
width = 712;
},
{
components = (
{
alignment = -1;
name = R;
}
);
layerId = "7984B694-437B-44C7-A8AE-41A7C9CC5720";
paths = (
{
closed = 1;
nodes = (
"206 -49 OFFCURVE",
"174 -78 OFFCURVE",
"167 -113 CURVE SMOOTH",
"160 -147 OFFCURVE",
"194 -178 OFFCURVE",
"235 -169 CURVE",
"207 -208 OFFCURVE",
"149 -240 OFFCURVE",
"149 -240 CURVE",
"179 -265 LINE",
"223 -242 OFFCURVE",
"288 -191 OFFCURVE",
"300 -123 CURVE SMOOTH",
"307 -82 OFFCURVE",
"281 -49 OFFCURVE",
"240 -49 CURVE SMOOTH"
);
}
);
width = 579;
}
);
rightKerningGroup = R;
unicode = 0156;
},
{
color = 1;
glyphname = S;
lastChange = "2018-06-30 11:29:52 +0000";
layers = (
{
anchors = (
{
name = bottom;
position = "{271, 0}";
},
{
name = top;
position = "{416, 825}";
}
);
background = {
paths = (
{
closed = 1;
nodes = (
"298 840 OFFCURVE",
"141 752 OFFCURVE",
"114 598 CURVE SMOOTH",
"99 512 OFFCURVE",
"146 425 OFFCURVE",
"237 376 CURVE SMOOTH",
"326 328 OFFCURVE",
"409 300 OFFCURVE",
"399 240 CURVE SMOOTH",
"386 163 OFFCURVE",
"307 159 OFFCURVE",
"266 159 CURVE SMOOTH",
"174 159 OFFCURVE",
"80 252 OFFCURVE",
"80 252 CURVE",
"-42 94 LINE",
"-42 94 OFFCURVE",
"56 -15 OFFCURVE",
"249 -15 CURVE SMOOTH",
"410 -15 OFFCURVE",
"572 54 OFFCURVE",
"607 251 CURVE SMOOTH",
"626 359 OFFCURVE",
"539 437 OFFCURVE",
"453 476 CURVE SMOOTH",
"367 515 OFFCURVE",
"289 550 OFFCURVE",
"298 602 CURVE SMOOTH",
"306 647 OFFCURVE",
"349 669 OFFCURVE",
"413 669 CURVE SMOOTH",
"498 669 OFFCURVE",
"570 612 OFFCURVE",
"570 612 CURVE",
"673 762 LINE",
"673 762 OFFCURVE",
"581 840 OFFCURVE",
"431 840 CURVE SMOOTH"
);
}
);
};
layerId = "6F85D940-A117-47EE-950D-70F837F8C9CE";
paths = (
{
closed = 1;
nodes = (
"277 840 OFFCURVE",
"136 768 OFFCURVE",
"109 620 CURVE SMOOTH",
"91 522 OFFCURVE",
"139 432 OFFCURVE",
"237 379 CURVE SMOOTH",
"333 327 OFFCURVE",
"446 286 OFFCURVE",
"413 205 CURVE SMOOTH",
"394 157 OFFCURVE",
"326 148 OFFCURVE",
"289 148 CURVE SMOOTH",
"203 148 OFFCURVE",
"81 226 OFFCURVE",
"77 236 CURVE",
"-12 76 LINE",
"-9 76 OFFCURVE",
"76 -15 OFFCURVE",
"275 -15 CURVE SMOOTH",
"430 -15 OFFCURVE",
"584 47 OFFCURVE",
"610 238 CURVE SMOOTH",
"626 352 OFFCURVE",
"551 429 OFFCURVE",
"440 481 CURVE SMOOTH",
"348 524 OFFCURVE",
"282 566 OFFCURVE",
"288 612 CURVE SMOOTH",
"295 663 OFFCURVE",
"332 683 OFFCURVE",
"402 683 CURVE SMOOTH",
"481 683 OFFCURVE",
"565 622 OFFCURVE",
"562 618 CURVE",
"661 771 LINE",
"659 771 OFFCURVE",
"560 840 OFFCURVE",
"404 840 CURVE SMOOTH"
);
}
);
width = 631;
},
{
anchors = (
{
name = bottom;
position = "{235, 0}";
},
{
name = top;
position = "{380, 825}";
}
);
background = {
paths = (
{
closed = 1;
nodes = (
"258.298 851.632 OFFCURVE",
"136.756 772.121 OFFCURVE",
"110.531 632.183 CURVE SMOOTH",
"84.249 490.654 OFFCURVE",
"180.023 442.947 OFFCURVE",
"301.114 392.061 CURVE SMOOTH",
"394.347 352.305 OFFCURVE",
"456.841 322.091 OFFCURVE",
"439.452 231.449 CURVE SMOOTH",
"425.519 158.299 OFFCURVE",
"362.192 86.74 OFFCURVE",
"218.078 86.74 CURVE SMOOTH",
"129.067 86.74 OFFCURVE",
"52.502 118.544 OFFCURVE",
"25.273 147.168 CURVE",
"5.843 39.034 LINE",
"17.873 19.951 OFFCURVE",
"97.264 -11.853 OFFCURVE",
"198.991 -11.853 CURVE SMOOTH",
"352.995 -11.853 OFFCURVE",
"501.153 61.297 OFFCURVE",
"535.757 237.81 CURVE SMOOTH",
"566.793 393.651 OFFCURVE",
"469 437 OFFCURVE",
"344 484 CURVE SMOOTH",
"280 510 OFFCURVE",
"190.861 547.901 OFFCURVE",
"206.607 632.183 CURVE SMOOTH",
"222.411 718.054 OFFCURVE",
"311.268 753.039 OFFCURVE",
"393.215 753.039 CURVE SMOOTH",
"468.098 753.039 OFFCURVE",
"529.693 737.136 OFFCURVE",
"576.873 713.283 CURVE",
"597.659 819.827 LINE",
"568.503 834.139 OFFCURVE",
"502.726 851.632 OFFCURVE",
"425.018 851.632 CURVE SMOOTH"
);
}
);
};
guideLines = (
{
angle = 56;
position = "{261, 482}";
}
);
layerId = "7984B694-437B-44C7-A8AE-41A7C9CC5720";
paths = (
{
closed = 1;
nodes = (
"246 840 OFFCURVE",
"130 753 OFFCURVE",
"115 642 CURVE SMOOTH",
"101 542 OFFCURVE",
"166 482 OFFCURVE",
"267 428 CURVE SMOOTH",
"369 373 OFFCURVE",
"476 339 OFFCURVE",
"462 214 CURVE SMOOTH",
"450 106 OFFCURVE",
"348 51 OFFCURVE",
"238 51 CURVE SMOOTH",
"163 51 OFFCURVE",
"87 77 OFFCURVE",
"30 131 CURVE",
"-13 68 LINE",
"53 16 OFFCURVE",
"136 -15 OFFCURVE",
"232 -15 CURVE SMOOTH",
"391 -15 OFFCURVE",
"514 72 OFFCURVE",
"531 206 CURVE SMOOTH",
"549 348 OFFCURVE",
"474 401 OFFCURVE",
"339 466 CURVE SMOOTH",
"257 506 OFFCURVE",
"175 554 OFFCURVE",
"186 633 CURVE SMOOTH",
"198 718 OFFCURVE",
"269 774 OFFCURVE",
"382 774 CURVE SMOOTH",
"457 774 OFFCURVE",
"523 742 OFFCURVE",
"553 717 CURVE",
"592 775 LINE",
"559 803 OFFCURVE",
"478 840 OFFCURVE",
"377 840 CURVE SMOOTH"
);
}
);
width = 560;
}
);
leftKerningGroup = S;
rightKerningGroup = S;
unicode = 0053;
},
{
glyphname = Scommaaccent;
lastChange = "2018-06-18 13:33:11 +0000";
layers = (
{
components = (
{
name = S;
}
);
layerId = "6F85D940-A117-47EE-950D-70F837F8C9CE";
paths = (
{
closed = 1;
nodes = (
"221 -36 OFFCURVE",
"188 -71 OFFCURVE",
"182 -107 CURVE SMOOTH",
"176 -144 OFFCURVE",
"207 -179 OFFCURVE",
"252 -179 CURVE",
"237 -203 OFFCURVE",
"210 -218 OFFCURVE",
"173 -237 CURVE",
"210 -281 LINE",
"270 -263 OFFCURVE",
"354 -202 OFFCURVE",
"364 -139 CURVE SMOOTH",
"374 -78 OFFCURVE",
"341 -36 OFFCURVE",
"280 -36 CURVE SMOOTH"
);
}
);
width = 631;
},
{
components = (
{
alignment = -1;
name = S;
}
);
layerId = "7984B694-437B-44C7-A8AE-41A7C9CC5720";
paths = (
{
closed = 1;
nodes = (
"207 -49 OFFCURVE",
"175 -78 OFFCURVE",
"168 -113 CURVE SMOOTH",
"161 -147 OFFCURVE",
"195 -178 OFFCURVE",
"236 -169 CURVE",
"208 -208 OFFCURVE",
"150 -240 OFFCURVE",
"150 -240 CURVE",
"180 -265 LINE",
"224 -242 OFFCURVE",
"289 -191 OFFCURVE",
"301 -123 CURVE SMOOTH",
"308 -82 OFFCURVE",
"282 -49 OFFCURVE",
"241 -49 CURVE SMOOTH"
);
}
);
width = 582;
}
);
leftKerningGroup = S;
rightKerningGroup = S;
unicode = 0218;
},
{
color = 1;
glyphname = Germandbls;
lastChange = "2018-06-18 13:17:39 +0000";
layers = (
{
anchors = (
{
name = bottom;
position = "{347, 0}";
},
{
name = top;
position = "{492, 825}";
}
);
background = {
components = (
{
name = B;
transform = "{1, 0, 0, 1, 151, 0}";
}
);
};
guideLines = (
{
position = "{-192, 332}";
},
{
position = "{-261, 500}";
}
);
layerId = "6F85D940-A117-47EE-950D-70F837F8C9CE";
paths = (
{
closed = 1;
nodes = (
"282 0 LINE",
"328 -11 OFFCURVE",
"377 -17 OFFCURVE",
"425 -17 CURVE SMOOTH",
"582 -17 OFFCURVE",
"730 48 OFFCURVE",
"761 220 CURVE SMOOTH",
"797 418 OFFCURVE",
"675 471 OFFCURVE",
"564 472 CURVE",
"740 664 LINE",
"769 813 LINE",
"687 836 OFFCURVE",
"597 844 OFFCURVE",
"530 844 CURVE SMOOTH",
"317 844 OFFCURVE",
"168 764 OFFCURVE",
"135 577 CURVE SMOOTH",
"34 0 LINE",
"220 0 LINE",
"306 494 LINE SMOOTH",
"328 623 OFFCURVE",
"378 691 OFFCURVE",
"487 691 CURVE SMOOTH",
"508 691 OFFCURVE",
"531 688 OFFCURVE",
"557 683 CURVE",
"395 485 LINE",
"373 348 LINE",
"522 362 OFFCURVE",
"587 320 OFFCURVE",
"575 239 CURVE SMOOTH",
"565 174 OFFCURVE",
"510 139 OFFCURVE",
"436 139 CURVE SMOOTH",
"399 139 OFFCURVE",
"356 146 OFFCURVE",
"308 157 CURVE"
);
}
);
width = 783;
},
{
anchors = (
{
name = bottom;
position = "{308, 0}";
},
{
name = top;
position = "{453, 825}";
}
);
background = {
components = (
{
name = R;
transform = "{1, 0, 0, 1, 30, 0}";
}
);
};
layerId = "7984B694-437B-44C7-A8AE-41A7C9CC5720";
paths = (
{
closed = 1;
nodes = (
"216 13 LINE",
"265 -3 OFFCURVE",
"316 -12 OFFCURVE",
"365 -12 CURVE SMOOTH",
"510 -12 OFFCURVE",
"640 62 OFFCURVE",
"671 231 CURVE SMOOTH",
"706 422 OFFCURVE",
"564 477 OFFCURVE",
"434 464 CURVE",
"671 756 LINE",
"683 817 LINE",
"602 835 OFFCURVE",
"528 845 OFFCURVE",
"462 845 CURVE SMOOTH",
"271 845 OFFCURVE",
"146 763 OFFCURVE",
"113 556 CURVE SMOOTH",
"23 0 LINE",
"96 0 LINE",
"175 519 LINE SMOOTH",
"206 723 OFFCURVE",
"304 788 OFFCURVE",
"460 788 CURVE SMOOTH",
"503 788 OFFCURVE",
"550 782 OFFCURVE",
"600 769 CURVE",
"363 477 LINE",
"350 405 LINE",
"557 426 OFFCURVE",
"624 368 OFFCURVE",
"601 238 CURVE SMOOTH",
"582 129 OFFCURVE",
"503 53 OFFCURVE",
"367 53 CURVE SMOOTH",
"325 53 OFFCURVE",
"277 60 OFFCURVE",
"224 76 CURVE"
);
}
);
width = 706;
},
{
associatedMasterId = "6F85D940-A117-47EE-950D-70F837F8C9CE";
background = {
components = (
{
name = B;
transform = "{1, 0, 0, 1, -2, 0}";
}
);
};
guideLines = (
{
position = "{-238, 332}";
},
{
position = "{-307, 500}";
}
);
layerId = "D9583664-A70F-4C7E-A635-8D57CC745367";
name = "Mar 3 18, 12:14";
paths = (
{
closed = 1;
nodes = (
"236 0 LINE",
"282 -11 OFFCURVE",
"331 -17 OFFCURVE",
"379 -17 CURVE SMOOTH",
"536 -17 OFFCURVE",
"685 48 OFFCURVE",
"716 220 CURVE SMOOTH",
"752 418 OFFCURVE",
"638 478 OFFCURVE",
"527 482 CURVE",
"691 661 LINE",
"723 813 LINE",
"641 836 OFFCURVE",
"551 844 OFFCURVE",
"484 844 CURVE SMOOTH",
"271 844 OFFCURVE",
"122 764 OFFCURVE",
"89 577 CURVE SMOOTH",
"-13 0 LINE",
"173 0 LINE",
"260 494 LINE SMOOTH",
"283 623 OFFCURVE",
"328 685 OFFCURVE",
"425 685 CURVE SMOOTH",
"447 685 OFFCURVE",
"473 684 OFFCURVE",
"498 679 CURVE",
"349 485 LINE",
"325 337 LINE",
"474 351 OFFCURVE",
"536 315 OFFCURVE",
"524 234 CURVE SMOOTH",
"514 169 OFFCURVE",
"465 143 OFFCURVE",
"391 143 CURVE SMOOTH",
"354 143 OFFCURVE",
"311 150 OFFCURVE",
"263 161 CURVE"
);
}
);
width = 737;
}
);
leftKerningGroup = N;
leftMetricsKey = E;
rightKerningGroup = d;
unicode = 1E9E;
},
{
color = 1;
glyphname = T;
lastChange = "2018-06-18 13:38:08 +0000";
layers = (
{
anchors = (
{
name = bottom;
position = "{248, 0}";
},
{
name = center;
position = "{321, 413}";
},
{
name = top;
position = "{393, 825}";
}
);
layerId = "6F85D940-A117-47EE-950D-70F837F8C9CE";
paths = (
{
closed = 1;
nodes = (
"153 0 LINE",
"341 0 LINE",
"458 660 LINE",
"654 660 LINE",
"683 825 LINE",
"103 825 LINE",
"74 660 LINE",
"270 660 LINE"
);
}
);
width = 586;
},
{
anchors = (
{
name = bottom;
position = "{225, 0}";
},
{
name = center;
position = "{298, 413}";
},
{
name = top;
position = "{370, 825}";
}
);
layerId = "7984B694-437B-44C7-A8AE-41A7C9CC5720";
paths = (
{
closed = 1;
nodes = (
"204 0 LINE",
"272 0 LINE",
"393 760 LINE",
"629 760 LINE",
"640 825 LINE",
"100 825 LINE",
"89 760 LINE",
"325 760 LINE"
);
}
);
width = 540;
}
);
leftKerningGroup = T;
rightKerningGroup = T;
unicode = 0054;
},
{
glyphname = Tbar;
lastChange = "2018-06-18 13:33:00 +0000";
layers = (
{
components = (
{
name = T;
}
);
layerId = "6F85D940-A117-47EE-950D-70F837F8C9CE";
paths = (
{
closed = 1;
nodes = (
"76 346 LINE",
"545 346 LINE",
"567 469 LINE",
"98 469 LINE"
);
}
);
width = 596;
},
{
components = (
{
name = T;
transform = "{1, 0, 0, 1, 1, 0}";
}
);
layerId = "7984B694-437B-44C7-A8AE-41A7C9CC5720";
paths = (
{
closed = 1;
nodes = (
"85 395 LINE",
"516 395 LINE",
"525 451 LINE",
"94 451 LINE"
);
}
);
width = 557;
}
);
leftKerningGroup = T;
rightKerningGroup = T;
unicode = 0166;
},
{
glyphname = Tcommaaccent;
lastChange = "2018-06-18 13:33:00 +0000";
layers = (
{
components = (
{
name = T;
}
);
layerId = "6F85D940-A117-47EE-950D-70F837F8C9CE";
paths = (
{
closed = 1;
nodes = (
"172 -36 OFFCURVE",
"139 -71 OFFCURVE",
"133 -107 CURVE SMOOTH",
"127 -144 OFFCURVE",
"158 -179 OFFCURVE",
"203 -179 CURVE",
"188 -203 OFFCURVE",
"161 -218 OFFCURVE",
"124 -237 CURVE",
"161 -281 LINE",
"221 -263 OFFCURVE",
"305 -202 OFFCURVE",
"315 -139 CURVE SMOOTH",
"325 -78 OFFCURVE",
"292 -36 OFFCURVE",
"231 -36 CURVE SMOOTH"
);
}
);
width = 586;
},
{
components = (
{
alignment = -1;
name = T;
}
);
layerId = "7984B694-437B-44C7-A8AE-41A7C9CC5720";
paths = (
{
closed = 1;
nodes = (
"190 -49 OFFCURVE",
"158 -78 OFFCURVE",
"151 -113 CURVE SMOOTH",
"144 -147 OFFCURVE",
"178 -178 OFFCURVE",
"219 -169 CURVE",
"191 -208 OFFCURVE",
"133 -240 OFFCURVE",
"133 -240 CURVE",
"163 -265 LINE",
"207 -242 OFFCURVE",
"272 -191 OFFCURVE",
"284 -123 CURVE SMOOTH",
"291 -82 OFFCURVE",
"265 -49 OFFCURVE",
"224 -49 CURVE SMOOTH"
);
}
);
width = 556;
}
);
leftKerningGroup = T;
rightKerningGroup = T;
unicode = 0162;
},
{
glyphname = U;
lastChange = "2018-06-18 13:17:39 +0000";
layers = (
{
anchors = (
{
name = bottom;
position = "{366, 0}";
},
{
name = ogonek;
position = "{696, 10}";
},
{
name = top;
position = "{511, 825}";
},
{
name = topright;
position = "{901, 825}";
}
);
guideLines = (
{
angle = 80;
position = "{434, 335}";
}
);
layerId = "6F85D940-A117-47EE-950D-70F837F8C9CE";
paths = (
{
closed = 1;
nodes = (
"569 395 LINE SMOOTH",
"541 237 OFFCURVE",
"490 155 OFFCURVE",
"393 155 CURVE SMOOTH",
"296 155 OFFCURVE",
"271 237 OFFCURVE",
"299 381 CURVE SMOOTH",
"377 825 LINE",
"179 825 LINE",
"93 340 LINE SMOOTH",
"57 136 OFFCURVE",
"158 -15 OFFCURVE",
"374 -15 CURVE SMOOTH",
"578 -15 OFFCURVE",
"719 122 OFFCURVE",
"755 326 CURVE SMOOTH",
"843 825 LINE",
"645 825 LINE"
);
}
);
width = 821;
},
{
anchors = (
{
name = bottom;
position = "{291, 0}";
},
{
name = ogonek;
position = "{562, 10}";
},
{
name = top;
position = "{436, 825}";
},
{
name = topright;
position = "{752, 825}";
}
);
layerId = "7984B694-437B-44C7-A8AE-41A7C9CC5720";
paths = (
{
closed = 1;
nodes = (
"552 300 LINE SMOOTH",
"532 172 OFFCURVE",
"449 50 OFFCURVE",
"305 50 CURVE SMOOTH",
"177 50 OFFCURVE",
"121 150 OFFCURVE",
"143 296 CURVE SMOOTH",
"228 825 LINE",
"160 825 LINE",
"79 315 LINE SMOOTH",
"47 117 OFFCURVE",
"114 -15 OFFCURVE",
"302 -15 CURVE SMOOTH",
"480 -15 OFFCURVE",
"589 107 OFFCURVE",
"622 311 CURVE SMOOTH",
"704 825 LINE",
"636 825 LINE"
);
}
);
width = 672;
}
);
leftMetricsKey = U;
rightKerningGroup = d;
rightMetricsKey = U;
unicode = 0055;
},
{
color = 1;
glyphname = V;
lastChange = "2018-06-18 13:17:39 +0000";
layers = (
{
anchors = (
{
name = bottom;
position = "{347, 0}";
},
{
name = top;
position = "{492, 825}";
}
);
layerId = "6F85D940-A117-47EE-950D-70F837F8C9CE";
paths = (
{
closed = 1;
nodes = (
"892 825 LINE",
"676 825 LINE",
"394 303 LINE",
"300 825 LINE",
"92 825 LINE",
"269 0 LINE",
"423 0 LINE"
);
}
);
width = 784;
},
{
anchors = (
{
name = bottom;
position = "{304, 0}";
},
{
name = top;
position = "{449, 825}";
}
);
layerId = "7984B694-437B-44C7-A8AE-41A7C9CC5720";
paths = (
{
closed = 1;
nodes = (
"798 825 LINE",
"721 825 LINE",
"331 93 LINE",
"175 825 LINE",
"100 825 LINE",
"281 0 LINE",
"355 0 LINE"
);
}
);
width = 698;
}
);
leftKerningGroup = V;
rightKerningGroup = V;
unicode = 0056;
},
{
color = 1;
glyphname = W;
lastChange = "2018-06-18 13:32:49 +0000";
layers = (
{
anchors = (
{
name = bottom;
position = "{529, 0}";
},
{
name = top;
position = "{674, 825}";
}
);
layerId = "6F85D940-A117-47EE-950D-70F837F8C9CE";
paths = (
{
closed = 1;
nodes = (
"1249 825 LINE",
"1038 825 LINE",
"798 259 LINE",
"793 259 LINE",
"742 825 LINE",
"600 825 LINE",
"351 259 LINE",
"346 259 LINE",
"304 825 LINE",
"98 825 LINE",
"188 0 LINE",
"397 0 LINE",
"612 463 LINE",
"661 0 LINE",
"869 0 LINE"
);
}
);
width = 1147;
},
{
anchors = (
{
name = bottom;
position = "{417, 0}";
},
{
name = top;
position = "{562, 825}";
}
);
layerId = "7984B694-437B-44C7-A8AE-41A7C9CC5720";
paths = (
{
closed = 1;
nodes = (
"1013 825 LINE",
"938 825 LINE",
"685 123 LINE",
"679 123 LINE",
"598 825 LINE",
"520 825 LINE",
"225 123 LINE",
"219 123 LINE",
"184 825 LINE",
"110 825 LINE",
"160 0 LINE",
"239 0 LINE",
"542 713 LINE",
"623 0 LINE",
"701 0 LINE"
);
}
);
width = 923;
}
);
leftKerningGroup = V;
rightKerningGroup = V;
unicode = 0057;
},
{
color = 1;
glyphname = X;
lastChange = "2018-06-18 13:40:46 +0000";
layers = (
{
anchors = (
{
name = bottom;
position = "{366, 0}";
},
{
name = top;
position = "{511, 825}";
}
);
layerId = "6F85D940-A117-47EE-950D-70F837F8C9CE";
paths = (
{
closed = 1;
nodes = (
"897 825 LINE",
"659 825 LINE",
"465 600 LINE",
"355 825 LINE",
"135 825 LINE",
"326 444 LINE",
"-57 0 LINE",
"180 0 LINE",
"417 281 LINE",
"550 0 LINE",
"789 0 LINE",
"552 437 LINE"
);
}
);
width = 822;
},
{
anchors = (
{
name = bottom;
position = "{299, 0}";
},
{
name = top;
position = "{444, 825}";
}
);
layerId = "7984B694-437B-44C7-A8AE-41A7C9CC5720";
paths = (
{
closed = 1;
nodes = (
"745 825 LINE",
"663 825 LINE",
"377 490 LINE",
"199 825 LINE",
"121 825 LINE",
"329 444 LINE",
"-45 0 LINE",
"36 0 LINE",
"364 391 LINE",
"566 0 LINE",
"643 0 LINE",
"413 444 LINE"
);
}
);
width = 688;
}
);
leftKerningGroup = X;
rightKerningGroup = X;
unicode = 0058;
},
{
color = 1;
glyphname = Y;
lastChange = "2018-06-18 13:38:02 +0000";
layers = (
{
anchors = (
{
name = bottom;
position = "{319, 0}";
},
{
name = top;
position = "{464, 825}";
},
{
name = topleft;
position = "{120, 825}";
}
);
layerId = "6F85D940-A117-47EE-950D-70F837F8C9CE";
paths = (
{
closed = 1;
nodes = (
"222 0 LINE",
"410 0 LINE",
"478 370 LINE",
"842 825 LINE",
"612 825 LINE",
"411 561 LINE",
"308 825 LINE",
"86 825 LINE",
"290 370 LINE"
);
}
);
width = 728;
},
{
anchors = (
{
name = bottom;
position = "{253, 0}";
},
{
name = top;
position = "{398, 825}";
},
{
name = topleft;
position = "{120, 825}";
}
);
layerId = "7984B694-437B-44C7-A8AE-41A7C9CC5720";
paths = (
{
closed = 1;
nodes = (
"221 0 LINE",
"289 0 LINE",
"341 320 LINE",
"696 825 LINE",
"618 825 LINE",
"315 384 LINE",
"154 825 LINE",
"80 825 LINE",
"274 320 LINE"
);
}
);
width = 596;
}
);
leftKerningGroup = Y;
rightKerningGroup = Y;
unicode = 0059;
},
{
color = 1;
glyphname = Z;
lastChange = "2018-06-18 13:17:39 +0000";
layers = (
{
anchors = (
{
name = bottom;
position = "{316, 0}";
},
{
name = top;
position = "{461, 825}";
}
);
layerId = "6F85D940-A117-47EE-950D-70F837F8C9CE";
paths = (
{
closed = 1;
nodes = (
"128 660 LINE",
"475 660 LINE",
"-49 0 LINE",
"643 0 LINE",
"672 165 LINE",
"293 165 LINE",
"818 825 LINE",
"157 825 LINE"
);
}
);
width = 722;
},
{
anchors = (
{
name = bottom;
position = "{255, 0}";
},
{
name = top;
position = "{400, 825}";
}
);
layerId = "7984B694-437B-44C7-A8AE-41A7C9CC5720";
paths = (
{
closed = 1;
nodes = (
"136 766 LINE",
"576 766 LINE",
"-45 0 LINE",
"546 0 LINE",
"557 62 LINE",
"89 62 LINE",
"699 825 LINE",
"146 825 LINE"
);
}
);
width = 599;
}
);
leftKerningGroup = Z;
unicode = 005A;
},
{
glyphname = Q.ss01;
lastChange = "2018-06-18 13:17:39 +0000";
layers = (
{
anchors = (
{
name = bottom;
position = "{397, 0}";
},
{
name = top;
position = "{542, 825}";
}
);
components = (
{
name = O;
}
);
layerId = "6F85D940-A117-47EE-950D-70F837F8C9CE";
paths = (
{
closed = 1;
nodes = (
"566 -104 LINE",
"767 -104 LINE",
"607 288 LINE",
"406 288 LINE"
);
}
);
width = 884;
},
{
anchors = (
{
name = bottom;
position = "{366, 0}";
},
{
name = top;
position = "{511, 825}";
}
);
background = {
paths = (
{
closed = 1;
nodes = (
"230 67 LINE",
"86 141 OFFCURVE",
"74 278 OFFCURVE",
"98 413 CURVE SMOOTH",
"132 606 OFFCURVE",
"280 779 OFFCURVE",
"475 779 CURVE SMOOTH",
"671 779 OFFCURVE",
"761 604 OFFCURVE",
"723 413 CURVE SMOOTH",
"671 151 OFFCURVE",
"501 53 OFFCURVE",
"265 -9 CURVE SMOOTH",
"198 -27 OFFCURVE",
"143 -75 OFFCURVE",
"143 -75 CURVE",
"170 -116 LINE",
"170 -116 OFFCURVE",
"239 -57 OFFCURVE",
"317 -57 CURVE SMOOTH",
"424 -57 OFFCURVE",
"452 -119 OFFCURVE",
"565 -119 CURVE SMOOTH",
"616 -119 OFFCURVE",
"679 -100 OFFCURVE",
"698 -91 CURVE",
"708 -14 LINE",
"708 -14 OFFCURVE",
"651 -49 OFFCURVE",
"576 -49 CURVE SMOOTH",
"514 -49 OFFCURVE",
"488 -19 OFFCURVE",
"422 -7 CURVE",
"616 32 OFFCURVE",
"759 202 OFFCURVE",
"796 413 CURVE SMOOTH",
"838 654 OFFCURVE",
"715 840 OFFCURVE",
"486 840 CURVE SMOOTH",
"259 840 OFFCURVE",
"67 654 OFFCURVE",
"25 413 CURVE SMOOTH",
"-5 244 OFFCURVE",
"29 85 OFFCURVE",
"193 12 CURVE"
);
}
);
};
components = (
{
name = O;
}
);
layerId = "7984B694-437B-44C7-A8AE-41A7C9CC5720";
paths = (
{
closed = 1;
nodes = (
"582 -104 LINE",
"665 -104 LINE",
"498 288 LINE",
"415 288 LINE"
);
}
);
width = 821;
}
);
leftKerningGroup = O;
leftMetricsKey = O;
rightKerningGroup = O;
rightMetricsKey = O;
},
{
color = 5;
glyphname = a;
lastChange = "2018-06-18 13:17:57 +0000";
layers = (
{
anchors = (
{
name = bottom;
position = "{234, 0}";
},
{
name = ogonek;
position = "{459, 10}";
},
{
name = top;
position = "{324, 513}";
}
);
background = {
components = (
{
name = n;
transform = "{-1, 0, 0, -1, 557, 513}";
}
);
};
layerId = "7984B694-437B-44C7-A8AE-41A7C9CC5720";
paths = (
{
closed = 1;
nodes = (
"496 522 OFFCURVE",
"440 526 OFFCURVE",
"385 526 CURVE SMOOTH",
"195 526 OFFCURVE",
"56 436 OFFCURVE",
"23 254 CURVE SMOOTH",
"-4 103 OFFCURVE",
"58 -14 OFFCURVE",
"201 -14 CURVE SMOOTH",
"317 -14 OFFCURVE",
"388 70 OFFCURVE",
"421 152 CURVE",
"390 0 LINE",
"458 0 LINE",
"548 513 LINE"
);
},
{
closed = 1;
nodes = (
"116 49 OFFCURVE",
"71 130 OFFCURVE",
"90 241 CURVE SMOOTH",
"115 386 OFFCURVE",
"221 470 OFFCURVE",
"374 470 CURVE SMOOTH",
"404 470 OFFCURVE",
"437 469 OFFCURVE",
"471 463 CURVE",
"452 346 LINE SMOOTH",
"425 178 OFFCURVE",
"326 49 OFFCURVE",
"212 49 CURVE SMOOTH"
);
}
);
width = 558;
},
{
anchors = (
{
name = bottom;
position = "{282, 0}";
},
{
name = ogonek;
position = "{545, 10}";
},
{
name = top;
position = "{372, 513}";
}
);
background = {
components = (
{
name = n;
transform = "{-1, 0, 0, -1, 652, 513}";
}
);
};
layerId = "6F85D940-A117-47EE-950D-70F837F8C9CE";
paths = (
{
closed = 1;
nodes = (
"570 521 OFFCURVE",
"501 527 OFFCURVE",
"434 527 CURVE SMOOTH",
"215 527 OFFCURVE",
"58 458 OFFCURVE",
"23 261 CURVE SMOOTH",
"-4 110 OFFCURVE",
"67 -10 OFFCURVE",
"217 -10 CURVE SMOOTH",
"299 -10 OFFCURVE",
"362 41 OFFCURVE",
"403 140 CURVE",
"377 0 LINE",
"554 0 LINE",
"641 513 LINE"
);
},
{
closed = 1;
nodes = (
"206 145 OFFCURVE",
"184 203 OFFCURVE",
"194 260 CURVE SMOOTH",
"209 348 OFFCURVE",
"284 394 OFFCURVE",
"378 394 CURVE SMOOTH",
"398 394 OFFCURVE",
"419 392 OFFCURVE",
"441 388 CURVE",
"432 340 LINE SMOOTH",
"414 242 OFFCURVE",
"353 145 OFFCURVE",
"269 145 CURVE SMOOTH"
);
}
);
width = 653;
}
);
leftKerningGroup = o;
leftMetricsKey = o;
rightKerningGroup = i;
rightMetricsKey = n;
unicode = 0061;
},
{
color = 1;
glyphname = ae;
lastChange = "2018-06-18 13:17:57 +0000";
layers = (
{
anchors = (
{
name = bottom;
position = "{411, 0}";
},
{
name = top;
position = "{501, 513}";
}
);
background = {
components = (
{
name = e;
transform = "{-1, 0, 0, -1, 488, 512}";
}
);
};
layerId = "7984B694-437B-44C7-A8AE-41A7C9CC5720";
paths = (
{
closed = 1;
nodes = (
"77 424 LINE",
"134 449 OFFCURVE",
"204 464 OFFCURVE",
"261 464 CURVE SMOOTH",
"372 464 OFFCURVE",
"403 417 OFFCURVE",
"390 329 CURVE SMOOTH",
"386 301 LINE",
"273 302 OFFCURVE",
"37 325 OFFCURVE",
"6 162 CURVE SMOOTH",
"-19 29 OFFCURVE",
"72 -15 OFFCURVE",
"176 -15 CURVE SMOOTH",
"291 -15 OFFCURVE",
"373 48 OFFCURVE",
"401 112 CURVE",
"430 15 OFFCURVE",
"527 -14 OFFCURVE",
"628 -14 CURVE SMOOTH",
"691 -14 OFFCURVE",
"762 0 OFFCURVE",
"818 24 CURVE",
"827 90 LINE",
"772 62 OFFCURVE",
"708 46 OFFCURVE",
"619 46 CURVE SMOOTH",
"503 46 OFFCURVE",
"426 128 OFFCURVE",
"446 248 CURVE",
"851 250 LINE",
"899 443 OFFCURVE",
"827 531 OFFCURVE",
"648 527 CURVE SMOOTH",
"560 525 OFFCURVE",
"472 471 OFFCURVE",
"441 404 CURVE",
"435 473 OFFCURVE",
"400 522 OFFCURVE",
"284 523 CURVE SMOOTH",
"189 524 OFFCURVE",
"135 507 OFFCURVE",
"85 488 CURVE"
);
},
{
closed = 1;
nodes = (
"87 234 OFFCURVE",
"201 259 OFFCURVE",
"381 246 CURVE",
"375 206 LINE SMOOTH",
"360 104 OFFCURVE",
"284 42 OFFCURVE",
"176 42 CURVE SMOOTH",
"120 42 OFFCURVE",
"58 71 OFFCURVE",
"73 154 CURVE SMOOTH"
);
},
{
closed = 1;
nodes = (
"463 306 LINE",
"483 406 OFFCURVE",
"558 471 OFFCURVE",
"658 470 CURVE SMOOTH",
"783 469 OFFCURVE",
"807 392 OFFCURVE",
"790 308 CURVE"
);
}
);
width = 911;
},
{
anchors = (
{
name = bottom;
position = "{424, 0}";
},
{
name = top;
position = "{514, 513}";
}
);
background = {
paths = (
{
closed = 1;
nodes = (
"193 206 OFFCURVE",
"279 200 OFFCURVE",
"368 200 CURVE",
"360 153 OFFCURVE",
"318 114 OFFCURVE",
"255 114 CURVE SMOOTH",
"207 114 OFFCURVE",
"184 130 OFFCURVE",
"188 162 CURVE SMOOTH"
);
},
{
closed = 1;
nodes = (
"563 329 LINE",
"573 374 OFFCURVE",
"613 415 OFFCURVE",
"676 415 CURVE SMOOTH",
"724 415 OFFCURVE",
"752 372 OFFCURVE",
"743 331 CURVE"
);
},
{
closed = 1;
nodes = (
"-3 63 OFFCURVE",
"59 -18 OFFCURVE",
"204 -18 CURVE SMOOTH",
"320 -18 OFFCURVE",
"389 17 OFFCURVE",
"432 71 CURVE",
"475 13 OFFCURVE",
"550 -16 OFFCURVE",
"649 -16 CURVE SMOOTH",
"707 -16 OFFCURVE",
"776 -9 OFFCURVE",
"842 12 CURVE",
"863 159 LINE",
"815 139 OFFCURVE",
"751 126 OFFCURVE",
"693 126 CURVE SMOOTH",
"612 126 OFFCURVE",
"540 155 OFFCURVE",
"544 219 CURVE",
"890 219 LINE",
"941 399 OFFCURVE",
"875 528 OFFCURVE",
"685 528 CURVE SMOOTH",
"595 528 OFFCURVE",
"524 495 OFFCURVE",
"475 441 CURVE",
"447 498 OFFCURVE",
"385 522 OFFCURVE",
"280 522 CURVE SMOOTH",
"222 522 OFFCURVE",
"166 517 OFFCURVE",
"100 498 CURVE",
"79 348 LINE",
"127 368 OFFCURVE",
"198 379 OFFCURVE",
"256 379 CURVE SMOOTH",
"338 379 OFFCURVE",
"393 365 OFFCURVE",
"385 301 CURVE",
"148 301 OFFCURVE",
"36 280 OFFCURVE",
"16 168 CURVE SMOOTH"
);
}
);
};
guideLines = (
{
angle = 80;
position = "{393, 385}";
}
);
layerId = "6F85D940-A117-47EE-950D-70F837F8C9CE";
paths = (
{
closed = 1;
nodes = (
"84 355 LINE",
"141 372 OFFCURVE",
"201 386 OFFCURVE",
"253 385 CURVE SMOOTH",
"319 384 OFFCURVE",
"385 371 OFFCURVE",
"379 334 CURVE SMOOTH",
"377 321 LINE",
"223 325 OFFCURVE",
"37 332 OFFCURVE",
"7 172 CURVE SMOOTH",
"-8 92 OFFCURVE",
"35 -16 OFFCURVE",
"186 -16 CURVE SMOOTH",
"363 -16 OFFCURVE",
"422 74 OFFCURVE",
"430 88 CURVE",
"472 14 OFFCURVE",
"559 -17 OFFCURVE",
"655 -17 CURVE SMOOTH",
"713 -17 OFFCURVE",
"777 -5 OFFCURVE",
"839 14 CURVE",
"864 157 LINE",
"815 138 OFFCURVE",
"746 127 OFFCURVE",
"692 127 CURVE SMOOTH",
"616 127 OFFCURVE",
"542 155 OFFCURVE",
"542 220 CURVE",
"889 219 LINE",
"944 408 OFFCURVE",
"869 529 OFFCURVE",
"691 529 CURVE SMOOTH",
"604 529 OFFCURVE",
"528 508 OFFCURVE",
"481 447 CURVE",
"457 510 OFFCURVE",
"378 524 OFFCURVE",
"293 524 CURVE SMOOTH",
"231 524 OFFCURVE",
"155 515 OFFCURVE",
"101 499 CURVE"
);
},
{
closed = 1;
nodes = (
"171 204 OFFCURVE",
"210 223 OFFCURVE",
"362 220 CURVE",
"359 203 LINE",
"347 153 OFFCURVE",
"277 123 OFFCURVE",
"224 123 CURVE SMOOTH",
"188 123 OFFCURVE",
"160 137 OFFCURVE",
"165 168 CURVE SMOOTH"
);
},
{
closed = 1;
nodes = (
"560 324 LINE",
"571 371 OFFCURVE",
"617 414 OFFCURVE",
"670 414 CURVE SMOOTH",
"720 414 OFFCURVE",
"751 391 OFFCURVE",
"743 328 CURVE"
);
}
);
width = 937;
}
);
leftKerningGroup = o;
leftMetricsKey = a;
rightKerningGroup = c;
rightMetricsKey = e;
unicode = 00E6;
},
{
color = 5;
glyphname = b;
lastChange = "2018-06-18 13:17:57 +0000";
layers = (
{
anchors = (
{
name = bottom;
position = "{285, 0}";
},
{
name = top;
position = "{443, 900}";
}
);
components = (
{
name = a;
transform = "{-1, 0, 0, -1, 660, 513}";
}
);
layerId = "6F85D940-A117-47EE-950D-70F837F8C9CE";
paths = (
{
closed = 1;
nodes = (
"106 513 LINE",
"280 497 LINE",
"346 861 LINE",
"168 861 LINE"
);
}
);
width = 660;
},
{
anchors = (
{
name = bottom;
position = "{237, 0}";
},
{
name = top;
position = "{395, 900}";
}
);
components = (
{
name = a;
transform = "{-1, 0, 0, -1, 563, 514}";
}
);
guideLines = (
{
position = "{216, -16}";
}
);
layerId = "7984B694-437B-44C7-A8AE-41A7C9CC5720";
paths = (
{
closed = 1;
nodes = (
"105 514 LINE",
"173 514 LINE",
"234 860 LINE",
"168 860 LINE"
);
}
);
width = 563;
}
);
leftKerningGroup = l;
leftMetricsKey = l;
rightKerningGroup = o;
rightMetricsKey = o;
unicode = 0062;
},
{
color = 5;
glyphname = c;
lastChange = "2018-06-18 13:17:57 +0000";
layers = (
{
anchors = (
{
name = bottom;
position = "{197, 0}";
},
{
name = top;
position = "{287, 513}";
}
);
background = {
components = (
{
name = e;
transform = "{1, 0, 0, 1, -5, 0}";
}
);
};
layerId = "7984B694-437B-44C7-A8AE-41A7C9CC5720";
paths = (
{
closed = 1;
nodes = (
"366 63 OFFCURVE",
"307 48 OFFCURVE",
"255 48 CURVE SMOOTH",
"133 48 OFFCURVE",
"70 135 OFFCURVE",
"93 265 CURVE SMOOTH",
"117 402 OFFCURVE",
"215 466 OFFCURVE",
"312 466 CURVE SMOOTH",
"374 466 OFFCURVE",
"436 440 OFFCURVE",
"448 429 CURVE",
"460 495 LINE",
"445 508 OFFCURVE",
"391 528 OFFCURVE",
"323 528 CURVE SMOOTH",
"165 528 OFFCURVE",
"53 420 OFFCURVE",
"25 265 CURVE SMOOTH",
"-3 109 OFFCURVE",
"83 -15 OFFCURVE",
"248 -15 CURVE SMOOTH",
"303 -15 OFFCURVE",
"356 -2 OFFCURVE",
"396 20 CURVE",
"407 87 LINE"
);
}
);
width = 483;
},
{
anchors = (
{
name = bottom;
position = "{192, 0}";
},
{
name = top;
position = "{282, 513}";
}
);
background = {
components = (
{
name = o;
transform = "{1, 0, 0, 1, 2, 0}";
}
);
};
layerId = "6F85D940-A117-47EE-950D-70F837F8C9CE";
paths = (
{
closed = 1;
nodes = (
"382 148 OFFCURVE",
"342 140 OFFCURVE",
"307 140 CURVE SMOOTH",
"231 140 OFFCURVE",
"183 187 OFFCURVE",
"196 265 CURVE SMOOTH",
"210 345 OFFCURVE",
"263 377 OFFCURVE",
"337 377 CURVE SMOOTH",
"371 377 OFFCURVE",
"409 368 OFFCURVE",
"450 347 CURVE",
"479 505 LINE",
"446 520 OFFCURVE",
"408 528 OFFCURVE",
"350 528 CURVE SMOOTH",
"177 528 OFFCURVE",
"55 428 OFFCURVE",
"25 271 CURVE SMOOTH",
"-6 109 OFFCURVE",
"93 -7 OFFCURVE",
"266 -10 CURVE SMOOTH",
"326 -11 OFFCURVE",
"363 -1 OFFCURVE",
"400 14 CURVE",
"423 164 LINE"
);
}
);
width = 474;
}
);
leftKerningGroup = o;
leftMetricsKey = o;
rightKerningGroup = c;
rightMetricsKey = "=e-7";
unicode = 0063;
},
{
color = 5;
glyphname = d;
lastChange = "2018-06-09 14:47:49 +0000";
layers = (
{
anchors = (
{
name = bottom;
position = "{287, 0}";
},
{
name = center;
position = "{332, 257}";
},
{
name = top;
position = "{377, 513}";
},
{
name = topright;
position = "{689, 513}";
}
);
background = {
paths = (
{
closed = 1;
nodes = (
"629 470 LINE",
"671 861 LINE",
"494 861 LINE",
"457 501 LINE"
);
},
{
closed = 1;
nodes = (
"228 155 OFFCURVE",
"185 201 OFFCURVE",
"192 271 CURVE SMOOTH",
"198 334 OFFCURVE",
"243 381 OFFCURVE",
"338 380 CURVE SMOOTH",
"440 379 LINE",
"433 317 LINE SMOOTH",
"425 246 OFFCURVE",
"377 155 OFFCURVE",
"304 155 CURVE SMOOTH"
);
},
{
closed = 1;
nodes = (
"482 514 LINE",
"188 554 OFFCURVE",
"30 459 OFFCURVE",
"5 251 CURVE SMOOTH",
"-11 118 OFFCURVE",
"73 -12 OFFCURVE",
"223 -12 CURVE SMOOTH",
"313 -12 OFFCURVE",
"389 59 OFFCURVE",
"420 151 CURVE",
"404 -1 LINE",
"578 -1 LINE",
"579 -1 LINE",
"633 502 LINE"
);
}
);
};
components = (
{
name = a;
}
);
layerId = "6F85D940-A117-47EE-950D-70F837F8C9CE";
paths = (
{
closed = 1;
nodes = (
"703 860 LINE",
"528 860 LINE",
"487 623 LINE",
"470 499 LINE",
"639 501 LINE"
);
}
);
width = 661;
},
{
anchors = (
{
name = bottom;
position = "{269, 0}";
},
{
name = center;
position = "{314, 257}";
},
{
name = top;
position = "{359, 513}";
},
{
name = topright;
position = "{635, 513}";
}
);
components = (
{
name = a;
}
);
guideLines = (
{
position = "{221, -16}";
}
);
layerId = "7984B694-437B-44C7-A8AE-41A7C9CC5720";
paths = (
{
closed = 1;
nodes = (
"611 860 LINE",
"544 860 LINE",
"499 616 LINE",
"481 494 LINE",
"544 492 LINE"
);
}
);
width = 562;
}
);
leftKerningGroup = o;
leftMetricsKey = o;
rightKerningGroup = i;
rightMetricsKey = l;
unicode = 0064;
},
{
color = 1;
glyphname = eth;
lastChange = "2018-06-18 11:12:10 +0000";
layers = (
{
background = {
components = (
{
name = o;
transform = "{1, 0, 0, 1, 3, 0}";
}
);
};
layerId = "7984B694-437B-44C7-A8AE-41A7C9CC5720";
paths = (
{
closed = 1;
nodes = (
"1 111 OFFCURVE",
"76 -15 OFFCURVE",
"238 -15 CURVE SMOOTH",
"413 -15 OFFCURVE",
"518 107 OFFCURVE",
"547 266 CURVE SMOOTH",
"576 427 OFFCURVE",
"541 605 OFFCURVE",
"368 729 CURVE",
"463 803 LINE",
"419 847 LINE",
"314 753 LINE",
"290 774 OFFCURVE",
"224 800 OFFCURVE",
"181 814 CURVE",
"149 753 LINE",
"150 753 OFFCURVE",
"211 741 OFFCURVE",
"264 707 CURVE",
"167 624 LINE",
"206 581 LINE",
"322 685 LINE",
"409 639 OFFCURVE",
"482 520 OFFCURVE",
"491 435 CURVE",
"454 492 OFFCURVE",
"379 526 OFFCURVE",
"312 526 CURVE SMOOTH",
"184 526 OFFCURVE",
"56 422 OFFCURVE",
"28 263 CURVE SMOOTH"
);
},
{
closed = 1;
nodes = (
"120 394 OFFCURVE",
"220 469 OFFCURVE",
"320 469 CURVE SMOOTH",
"414 469 OFFCURVE",
"500 397 OFFCURVE",
"478 258 CURVE SMOOTH",
"457 131 OFFCURVE",
"370 44 OFFCURVE",
"251 44 CURVE SMOOTH",
"144 44 OFFCURVE",
"76 127 OFFCURVE",
"97 254 CURVE SMOOTH"
);
}
);
width = 580;
},
{
background = {
components = (
{
name = o;
transform = "{1, 0, 0, 1, 45, 0}";
}
);
};
layerId = "6F85D940-A117-47EE-950D-70F837F8C9CE";
paths = (
{
closed = 1;
nodes = (
"41 114 OFFCURVE",
"122 -15 OFFCURVE",
"304 -15 CURVE SMOOTH",
"502 -15 OFFCURVE",
"614 102 OFFCURVE",
"649 280 CURVE SMOOTH",
"681 442 OFFCURVE",
"635 628 OFFCURVE",
"494 741 CURVE",
"560 797 LINE",
"494 875 LINE",
"405 800 LINE",
"313 853 OFFCURVE",
"238 869 OFFCURVE",
"238 869 CURVE",
"172 725 LINE",
"174 725 OFFCURVE",
"220 717 OFFCURVE",
"278 687 CURVE",
"200 622 LINE",
"267 545 LINE",
"381 641 LINE",
"426 611 OFFCURVE",
"502 519 OFFCURVE",
"504 467 CURVE",
"481 509 OFFCURVE",
"435 528 OFFCURVE",
"381 528 CURVE SMOOTH",
"251 528 OFFCURVE",
"96 429 OFFCURVE",
"68 269 CURVE SMOOTH"
);
},
{
closed = 1;
nodes = (
"243 321 OFFCURVE",
"302 383 OFFCURVE",
"370 383 CURVE SMOOTH",
"429 383 OFFCURVE",
"477 336 OFFCURVE",
"470 268 CURVE SMOOTH",
"462 189 OFFCURVE",
"407 130 OFFCURVE",
"335 130 CURVE SMOOTH",
"268 130 OFFCURVE",
"230 181 OFFCURVE",
"236 245 CURVE SMOOTH"
);
}
);
width = 684;
}
);
leftKerningGroup = o;
rightKerningGroup = o;
unicode = 00F0;
},
{
color = 1;
glyphname = dcroat;
lastChange = "2018-06-18 12:48:54 +0000";
layers = (
{
components = (
{
name = d;
}
);
layerId = "6F85D940-A117-47EE-950D-70F837F8C9CE";
paths = (
{
closed = 1;
nodes = (
"754 628 LINE",
"774 742 LINE",
"412 742 LINE",
"392 628 LINE"
);
}
);
width = 683;
},
{
components = (
{
name = d;
transform = "{1, 0, 0, 1, 8, 0}";
}
);
layerId = "7984B694-437B-44C7-A8AE-41A7C9CC5720";
paths = (
{
closed = 1;
nodes = (
"660 648 LINE",
"670 702 LINE",
"388 702 LINE",
"378 648 LINE"
);
}
);
width = 572;
}
);
leftKerningGroup = o;
rightKerningGroup = i;
unicode = 0111;
},
{
color = 1;
glyphname = e;
lastChange = "2018-06-30 12:42:03 +0000";
layers = (
{
anchors = (
{
name = bottom;
position = "{231, 0}";
},
{
name = ogonek;
position = "{454, 10}";
},
{
name = top;
position = "{321, 513}";
}
);
background = {
components = (
{
name = c;
transform = "{1, 0, 0, 1, -1, 0}";
}
);
};
layerId = "7984B694-437B-44C7-A8AE-41A7C9CC5720";
paths = (
{
closed = 1;
nodes = (
"492 251 LINE",
"538 423 OFFCURVE",
"478 528 OFFCURVE",
"309 528 CURVE SMOOTH",
"161 528 OFFCURVE",
"51 415 OFFCURVE",
"25 268 CURVE SMOOTH",
"-6 93 OFFCURVE",
"86 -13 OFFCURVE",
"264 -13 CURVE SMOOTH",
"332 -13 OFFCURVE",
"404 2 OFFCURVE",
"460 29 CURVE",
"469 94 LINE",
"412 67 OFFCURVE",
"340 49 OFFCURVE",
"276 49 CURVE SMOOTH",
"142 49 OFFCURVE",
"64 124 OFFCURVE",
"90 250 CURVE"
);
},
{
closed = 1;
nodes = (
"104 305 LINE",
"113 350 OFFCURVE",
"169 470 OFFCURVE",
"304 470 CURVE SMOOTH",
"401 470 OFFCURVE",
"452 416 OFFCURVE",
"434 309 CURVE"
);
}
);
width = 552;
},
{
anchors = (
{
name = bottom;
position = "{247, 0}";
},
{
name = ogonek;
position = "{483, 10}";
},
{
name = top;
position = "{337, 513}";
}
);
background = {
paths = (
{
closed = 1;
nodes = (
"550 222 LINE",
"552 228 OFFCURVE",
"555 249 OFFCURVE",
"557 256 CURVE SMOOTH",
"607 432 OFFCURVE",
"494 528 OFFCURVE",
"338 528 CURVE SMOOTH",
"173 528 OFFCURVE",
"45 412 OFFCURVE",
"19 262 CURVE SMOOTH",
"-7 113 OFFCURVE",
"83 -15 OFFCURVE",
"238 -15 CURVE SMOOTH",
"382 -15 OFFCURVE",
"450 31 OFFCURVE",
"522 109 CURVE",
"401 186 LINE",
"355 139 OFFCURVE",
"329 126 OFFCURVE",
"272 126 CURVE SMOOTH",
"227 126 OFFCURVE",
"176 160 OFFCURVE",
"187 222 CURVE"
);
},
{
closed = 1;
nodes = (
"211 330 LINE",
"220 375 OFFCURVE",
"270 413 OFFCURVE",
"321 413 CURVE SMOOTH",
"372 413 OFFCURVE",
"399 371 OFFCURVE",
"394 330 CURVE"
);
}
);
};
layerId = "6F85D940-A117-47EE-950D-70F837F8C9CE";
paths = (
{
closed = 1;
nodes = (
"537 219 LINE",
"588 399 OFFCURVE",
"522 528 OFFCURVE",
"332 528 CURVE SMOOTH",
"170 528 OFFCURVE",
"51 421 OFFCURVE",
"25 273 CURVE SMOOTH",
"-9 82 OFFCURVE",
"114 -16 OFFCURVE",
"296 -16 CURVE SMOOTH",
"354 -16 OFFCURVE",
"423 -9 OFFCURVE",
"489 12 CURVE",
"513 158 LINE",
"465 138 OFFCURVE",
"398 126 OFFCURVE",
"340 126 CURVE SMOOTH",
"259 126 OFFCURVE",
"187 155 OFFCURVE",
"191 219 CURVE"
);
},
{
closed = 1;
nodes = (
"210 319 LINE",
"220 364 OFFCURVE",
"260 405 OFFCURVE",
"323 405 CURVE SMOOTH",
"371 405 OFFCURVE",
"399 362 OFFCURVE",
"390 321 CURVE"
);
}
);
width = 584;
},
{
anchors = (
{
name = bottom;
position = "{247, 0}";
},
{
name = ogonek;
position = "{483, 10}";
},
{
name = top;
position = "{337, 513}";
}
);
associatedMasterId = "6F85D940-A117-47EE-950D-70F837F8C9CE";
background = {
paths = (
{
closed = 1;
nodes = (
"550 222 LINE",
"552 228 OFFCURVE",
"555 249 OFFCURVE",
"557 256 CURVE SMOOTH",
"607 432 OFFCURVE",
"494 528 OFFCURVE",
"338 528 CURVE SMOOTH",
"173 528 OFFCURVE",
"45 412 OFFCURVE",
"19 262 CURVE SMOOTH",
"-7 113 OFFCURVE",
"83 -15 OFFCURVE",
"238 -15 CURVE SMOOTH",
"382 -15 OFFCURVE",
"450 31 OFFCURVE",
"522 109 CURVE",
"401 186 LINE",
"355 139 OFFCURVE",
"329 126 OFFCURVE",
"272 126 CURVE SMOOTH",
"227 126 OFFCURVE",
"176 160 OFFCURVE",
"187 222 CURVE"
);
},
{
closed = 1;
nodes = (
"211 330 LINE",
"220 375 OFFCURVE",
"270 413 OFFCURVE",
"321 413 CURVE SMOOTH",
"372 413 OFFCURVE",
"399 371 OFFCURVE",
"394 330 CURVE"
);
}
);
};
layerId = "2DC9009D-FB53-48F6-8732-D7B9D7B70A5F";
name = "Jun 30 18, 13:38";
paths = (
{
closed = 1;
nodes = (
"537 219 LINE",
"588 399 OFFCURVE",
"522 528 OFFCURVE",
"332 528 CURVE SMOOTH",
"170 528 OFFCURVE",
"51 421 OFFCURVE",
"25 273 CURVE SMOOTH",
"-9 82 OFFCURVE",
"114 -16 OFFCURVE",
"296 -16 CURVE SMOOTH",
"354 -16 OFFCURVE",
"423 -9 OFFCURVE",
"489 12 CURVE",
"510 159 LINE",
"462 139 OFFCURVE",
"398 126 OFFCURVE",
"340 126 CURVE SMOOTH",
"259 126 OFFCURVE",
"187 155 OFFCURVE",
"191 219 CURVE"
);
},
{
closed = 1;
nodes = (
"210 329 LINE",
"220 374 OFFCURVE",
"260 415 OFFCURVE",
"323 415 CURVE SMOOTH",
"371 415 OFFCURVE",
"399 372 OFFCURVE",
"390 331 CURVE"
);
}
);
width = 584;
}
);
leftKerningGroup = o;
leftMetricsKey = o;
note = " ";
rightKerningGroup = c;
unicode = 0065;
},
{
glyphname = eogonek;
lastChange = "2018-06-18 13:17:57 +0000";
layers = (
{
anchors = (
{
name = top;
position = "{337, 513}";
}
);
components = (
{
name = e;
}
);
layerId = "6F85D940-A117-47EE-950D-70F837F8C9CE";
paths = (
{
closed = 1;
nodes = (
"441 -166 LINE",
"368 -192 OFFCURVE",
"338 -168 OFFCURVE",
"338 -131 CURVE SMOOTH",
"338 -82 OFFCURVE",
"398 -8 OFFCURVE",
"489 10 CURVE",
"451 28 LINE",
"284 -10 OFFCURVE",
"212 -96 OFFCURVE",
"212 -171 CURVE SMOOTH",
"212 -256 OFFCURVE",
"305 -317 OFFCURVE",
"453 -241 CURVE"
);
}
);
width = 584;
},
{
anchors = (
{
name = top;
position = "{307, 513}";
}
);
components = (
{
name = e;
}
);
layerId = "7984B694-437B-44C7-A8AE-41A7C9CC5720";
paths = (
{
closed = 1;
nodes = (
"417 -192.031 LINE",
"322 -230 OFFCURVE",
"282 -191 OFFCURVE",
"292 -137 CURVE SMOOTH",
"300 -88 OFFCURVE",
"372 -7 OFFCURVE",
"460 28 CURVE",
"412 23 LINE",
"305 -13 OFFCURVE",
"241 -86 OFFCURVE",
"229 -153 CURVE SMOOTH",
"214 -237 OFFCURVE",
"281 -301 OFFCURVE",
"424 -238.28 CURVE"
);
}
);
width = 523;
}
);
leftKerningGroup = o;
rightKerningGroup = c;
unicode = 0119;
},
{
color = 1;
glyphname = f;
lastChange = "2018-06-18 13:17:57 +0000";
layers = (
{
anchors = (
{
name = bottom;
position = "{122, 0}";
},
{
name = top;
position = "{280, 900}";
}
);
layerId = "7984B694-437B-44C7-A8AE-41A7C9CC5720";
paths = (
{
closed = 1;
nodes = (
"36 456 LINE",
"150 456 LINE",
"25 -260 LINE",
"92 -260 LINE",
"217 456 LINE",
"368 456 LINE",
"378 513 LINE",
"227 513 LINE",
"245 615 LINE SMOOTH",
"258 693 OFFCURVE",
"279 756 OFFCURVE",
"318 790 CURVE SMOOTH",
"353 819 OFFCURVE",
"389 818 OFFCURVE",
"442 810 CURVE",
"453 870 LINE",
"399 880 OFFCURVE",
"337 875 OFFCURVE",
"289 841 CURVE SMOOTH",
"233 801 OFFCURVE",
"198 729 OFFCURVE",
"183 644 CURVE SMOOTH",
"160 513 LINE",
"46 513 LINE"
);
}
);
width = 333;
},
{
anchors = (
{
name = bottom;
position = "{140, 0}";
},
{
name = top;
position = "{298, 900}";
}
);
background = {
components = (
{
name = t;
transform = "{1, 0, 0, 1, 16, 0}";
}
);
};
layerId = "6F85D940-A117-47EE-950D-70F837F8C9CE";
paths = (
{
closed = 1;
nodes = (
"27 378 LINE",
"113 378 LINE",
"1 -260 LINE",
"174 -260 LINE",
"286 378 LINE",
"394 378 LINE",
"417 513 LINE",
"309 513 LINE",
"329 624 LINE SMOOTH",
"337 669 OFFCURVE",
"351 699 OFFCURVE",
"374 714 CURVE SMOOTH",
"394 727 OFFCURVE",
"422 729 OFFCURVE",
"462 718 CURVE",
"489 870 LINE",
"419 880 OFFCURVE",
"351 877 OFFCURVE",
"290 843 CURVE SMOOTH",
"222 805 OFFCURVE",
"178 735 OFFCURVE",
"162 645 CURVE SMOOTH",
"139 513 LINE",
"51 513 LINE"
);
}
);
width = 369;
}
);
leftKerningGroup = f;
note = " ";
rightKerningGroup = f;
unicode = 0066;
},
{
color = 1;
glyphname = g;
lastChange = "2018-06-18 13:17:57 +0000";
layers = (
{
anchors = (
{
name = bottom;
position = "{226, -350}";
},
{
name = top;
position = "{378, 513}";
}
);
components = (
{
name = a;
}
);
layerId = "6F85D940-A117-47EE-950D-70F837F8C9CE";
paths = (
{
closed = 1;
nodes = (
"377 0 LINE",
"361 -80 OFFCURVE",
"295 -119 OFFCURVE",
"228 -124 CURVE SMOOTH",
"143 -130 OFFCURVE",
"66 -110 OFFCURVE",
"18 -80 CURVE",
"-5 -232 LINE",
"41 -256 OFFCURVE",
"101 -275 OFFCURVE",
"210 -275 CURVE SMOOTH",
"395 -275 OFFCURVE",
"522 -183 OFFCURVE",
"554 0 CURVE"
);
}
);
width = 666;
},
{
anchors = (
{
name = bottom;
position = "{172, -350}";
},
{
name = top;
position = "{324, 513}";
}
);
components = (
{
name = a;
}
);
guideLines = (
{
angle = 84;
position = "{504, -41}";
}
);
layerId = "7984B694-437B-44C7-A8AE-41A7C9CC5720";
paths = (
{
closed = 1;
nodes = (
"390 0 LINE",
"372 -97 OFFCURVE",
"333 -161 OFFCURVE",
"252 -193 CURVE SMOOTH",
"180 -221 OFFCURVE",
"73 -213 OFFCURVE",
"-5 -174 CURVE",
"-15 -241 LINE",
"77 -280 OFFCURVE",
"188 -285 OFFCURVE",
"279 -251 CURVE SMOOTH",
"373 -216 OFFCURVE",
"435 -132 OFFCURVE",
"458 0 CURVE"
);
}
);
width = 558;
}
);
leftKerningGroup = o;
leftMetricsKey = o;
rightKerningGroup = j;
unicode = 0067;
},
{
color = 5;
glyphname = h;
lastChange = "2018-06-18 13:17:57 +0000";
layers = (
{
anchors = (
{
name = bottom;
position = "{289, 0}";
},
{
name = center;
position = "{368, 450}";
},
{
name = top;
position = "{447, 900}";
}
);
background = {
components = (
{
name = n;
transform = "{1, 0, 0, 1, -2, 0}";
}
);
};
components = (
{
name = n;
transform = "{1, 0, 0, 1, -2, 0}";
}
);
layerId = "6F85D940-A117-47EE-950D-70F837F8C9CE";
paths = (
{
closed = 1;
nodes = (
"277 513 LINE",
"338 860 LINE",
"167 860 LINE",
"106 513 LINE"
);
}
);
width = 667;
},
{
anchors = (
{
name = bottom;
position = "{233, 0}";
},
{
name = center;
position = "{312, 450}";
},
{
name = top;
position = "{391, 900}";
}
);
background = {
components = (
{
name = n;
transform = "{1, 0, 0, 1, 1, 0}";
}
);
};
components = (
{
name = n;
transform = "{1, 0, 0, 1, -5, 0}";
}
);
layerId = "7984B694-437B-44C7-A8AE-41A7C9CC5720";
paths = (
{
closed = 1;
nodes = (
"173 513 LINE",
"235 860 LINE",
"166 860 LINE",
"104 507 LINE"
);
}
);
width = 555;
}
);
leftKerningGroup = l;
leftMetricsKey = l;
note = " ";
rightKerningGroup = b;
rightMetricsKey = n;
unicode = 0068;
},
{
color = 1;
glyphname = hbar;
lastChange = "2018-06-18 13:43:21 +0000";
layers = (
{
components = (
{
name = h;
}
);
layerId = "6F85D940-A117-47EE-950D-70F837F8C9CE";
paths = (
{
closed = 1;
nodes = (
"430 628 LINE",
"450 742 LINE",
"88 742 LINE",
"68 628 LINE"
);
}
);
width = 661;
},
{
components = (
{
name = h;
transform = "{1, 0, 0, 1, -12, 0}";
}
);
layerId = "7984B694-437B-44C7-A8AE-41A7C9CC5720";
paths = (
{
closed = 1;
nodes = (
"331 648 LINE",
"341 702 LINE",
"59 702 LINE",
"49 648 LINE"
);
}
);
width = 552;
}
);
leftKerningGroup = l;
unicode = 0127;
},
{
color = 1;
glyphname = i;
lastChange = "2018-06-18 13:17:57 +0000";
layers = (
{
anchors = (
{
name = bottom;
position = "{50, 0}";
}
);
layerId = "7984B694-437B-44C7-A8AE-41A7C9CC5720";
paths = (
{
closed = 1;
nodes = (
"84 0 LINE",
"174 513 LINE",
"107 513 LINE",
"17 0 LINE"
);
},
{
closed = 1;
nodes = (
"213 722 OFFCURVE",
"242 749 OFFCURVE",
"242 780 CURVE SMOOTH",
"242 809 OFFCURVE",
"221 830 OFFCURVE",
"192 830 CURVE SMOOTH",
"161 830 OFFCURVE",
"132 803 OFFCURVE",
"132 772 CURVE SMOOTH",
"132 743 OFFCURVE",
"153 722 OFFCURVE",
"182 722 CURVE SMOOTH"
);
}
);
width = 190;
},
{
anchors = (
{
name = bottom;
position = "{107, 0}";
}
);
layerId = "6F85D940-A117-47EE-950D-70F837F8C9CE";
paths = (
{
closed = 1;
nodes = (
"195 0 LINE",
"285 513 LINE",
"108 513 LINE",
"18 0 LINE"
);
},
{
closed = 1;
nodes = (
"282 620 OFFCURVE",
"330 660 OFFCURVE",
"340 712 CURVE SMOOTH",
"352 776 OFFCURVE",
"307 830 OFFCURVE",
"243 830 CURVE SMOOTH",
"191 830 OFFCURVE",
"142 790 OFFCURVE",
"133 738 CURVE SMOOTH",
"122 674 OFFCURVE",
"166 620 OFFCURVE",
"230 620 CURVE SMOOTH"
);
}
);
width = 303;
}
);
leftKerningGroup = i;
rightKerningGroup = i;
unicode = 0069;
},
{
color = 1;
glyphname = idotless;
lastChange = "2018-06-18 13:17:57 +0000";
layers = (
{
anchors = (
{
name = bottom;
position = "{90, 0}";
},
{
name = ogonek;
position = "{199, 10}";
},
{
name = top;
position = "{180, 513}";
}
);
layerId = "6F85D940-A117-47EE-950D-70F837F8C9CE";
paths = (
{
closed = 1;
nodes = (
"178 0 LINE",
"268 513 LINE",
"91 513 LINE",
"1 0 LINE"
);
}
);
width = 269;
},
{
anchors = (
{
name = bottom;
position = "{48, 0}";
},
{
name = ogonek;
position = "{124, 10}";
},
{
name = top;
position = "{138, 513}";
}
);
layerId = "7984B694-437B-44C7-A8AE-41A7C9CC5720";
paths = (
{
closed = 1;
nodes = (
"81 0 LINE",
"171 513 LINE",
"104 513 LINE",
"14 0 LINE"
);
}
);
width = 185;
}
);
leftKerningGroup = i;
rightKerningGroup = i;
unicode = 0131;
},
{
color = 1;
glyphname = j;
lastChange = "2018-06-16 14:39:28 +0000";
layers = (
{
guideLines = (
{
position = "{-850, -274}";
}
);
layerId = "6F85D940-A117-47EE-950D-70F837F8C9CE";
paths = (
{
closed = 1;
nodes = (
"181 -73 LINE SMOOTH",
"165 -164 OFFCURVE",
"100 -266 OFFCURVE",
"-43 -272 CURVE SMOOTH",
"-87 -274 OFFCURVE",
"-123 -271 OFFCURVE",
"-144 -269 CURVE",
"-119 -128 LINE",
"-101 -128 OFFCURVE",
"-76 -129 OFFCURVE",
"-51 -127 CURVE SMOOTH",
"-24 -125 OFFCURVE",
"-1 -104 OFFCURVE",
"7 -56 CURVE SMOOTH",
"107 513 LINE",
"284 513 LINE"
);
},
{
closed = 1;
nodes = (
"194 830 OFFCURVE",
"141 786 OFFCURVE",
"130 730 CURVE SMOOTH",
"119 670 OFFCURVE",
"161 620 OFFCURVE",
"221 620 CURVE SMOOTH",
"278 620 OFFCURVE",
"330 664 OFFCURVE",
"340 720 CURVE SMOOTH",
"350 780 OFFCURVE",
"310 830 OFFCURVE",
"249 830 CURVE SMOOTH"
);
}
);
width = 301;
},
{
associatedMasterId = "7984B694-437B-44C7-A8AE-41A7C9CC5720";
background = {
components = (
{
name = f;
transform = "{-1, 0, 0, -1, 255, 592}";
}
);
};
layerId = "12958231-1346-40A4-B7F7-C0435C5C8281";
name = "Mar 3 18, 14:17";
paths = (
{
closed = 1;
nodes = (
"69 -74 LINE SMOOTH",
"42 -229 OFFCURVE",
"-72 -306 OFFCURVE",
"-172 -270 CURVE",
"-161 -215 LINE",
"-70 -236 OFFCURVE",
"-14 -169 OFFCURVE",
"7 -47 CURVE SMOOTH",
"105 513 LINE",
"173 513 LINE"
);
},
{
closed = 1;
nodes = (
"159 830 OFFCURVE",
"131 802 OFFCURVE",
"131 770 CURVE SMOOTH",
"131 742 OFFCURVE",
"153 722 OFFCURVE",
"181 722 CURVE SMOOTH",
"213 722 OFFCURVE",
"241 750 OFFCURVE",
"241 781 CURVE SMOOTH",
"241 809 OFFCURVE",
"220 830 OFFCURVE",
"191 830 CURVE SMOOTH"
);
}
);
width = 188;
},
{
background = {
components = (
{
name = f;
transform = "{-1, 0, 0, -1, 267, 592}";
}
);
};
layerId = "7984B694-437B-44C7-A8AE-41A7C9CC5720";
paths = (
{
closed = 1;
nodes = (
"81 -74 LINE SMOOTH",
"59 -199 OFFCURVE",
"15 -275 OFFCURVE",
"-107 -275 CURVE SMOOTH",
"-126 -275 OFFCURVE",
"-135 -275 OFFCURVE",
"-160 -270 CURVE",
"-147 -210 LINE",
"-121 -214 OFFCURVE",
"-113 -214 OFFCURVE",
"-94 -214 CURVE SMOOTH",
"-19 -214 OFFCURVE",
"-2 -168 OFFCURVE",
"19 -47 CURVE SMOOTH",
"117 513 LINE",
"185 513 LINE"
);
},
{
closed = 1;
nodes = (
"171 830 OFFCURVE",
"143 802 OFFCURVE",
"143 770 CURVE SMOOTH",
"143 742 OFFCURVE",
"165 722 OFFCURVE",
"193 722 CURVE SMOOTH",
"225 722 OFFCURVE",
"253 750 OFFCURVE",
"253 781 CURVE SMOOTH",
"253 809 OFFCURVE",
"232 830 OFFCURVE",
"203 830 CURVE SMOOTH"
);
}
);
width = 206;
}
);
note = " ";
rightKerningGroup = j;
unicode = 006A;
},
{
color = 1;
glyphname = k;
lastChange = "2018-06-18 13:17:57 +0000";
layers = (
{
anchors = (
{
name = bottom;
position = "{264, 0}";
},
{
name = top;
position = "{422, 900}";
}
);
background = {
components = (
{
name = h;
transform = "{1, 0, 0, 1, 11, 0}";
}
);
};
layerId = "6F85D940-A117-47EE-950D-70F837F8C9CE";
paths = (
{
closed = 1;
nodes = (
"193 0 LINE",
"222 160 LINE",
"300 180 LINE",
"378 0 LINE",
"586 0 LINE",
"445 241 LINE",
"492 263 OFFCURVE",
"533 298 OFFCURVE",
"564 348 CURVE SMOOTH",
"590 391 OFFCURVE",
"610 444 OFFCURVE",
"621 513 CURVE",
"448 511 LINE",
"440 459 OFFCURVE",
"416 412 OFFCURVE",
"382 377 CURVE SMOOTH",
"345 340 OFFCURVE",
"297 314 OFFCURVE",
"242 307 CURVE",
"340 860 LINE",
"167 860 LINE",
"16 0 LINE"
);
}
);
width = 618;
},
{
anchors = (
{
name = bottom;
position = "{204, 0}";
},
{
name = top;
position = "{362, 900}";
}
);
background = {
components = (
{
name = n;
transform = "{0, 1, 1, 0, -48, 132}";
}
);
};
layerId = "7984B694-437B-44C7-A8AE-41A7C9CC5720";
paths = (
{
closed = 1;
nodes = (
"84 0 LINE",
"114 173 LINE",
"254 220 LINE",
"372 0 LINE",
"458 0 LINE",
"306 252 LINE",
"361 279 OFFCURVE",
"405 314 OFFCURVE",
"437 357 CURVE SMOOTH",
"471 402 OFFCURVE",
"494 455 OFFCURVE",
"504 513 CURVE",
"436 513 LINE",
"422 437 OFFCURVE",
"385 377 OFFCURVE",
"322 331 CURVE SMOOTH",
"270 293 OFFCURVE",
"202 263 OFFCURVE",
"128 239 CURVE",
"234 860 LINE",
"166 860 LINE",
"16 0 LINE"
);
}
);
width = 498;
}
);
leftKerningGroup = l;
leftMetricsKey = l;
rightKerningGroup = c;
unicode = 006B;
},
{
color = 1;
glyphname = kcommaaccent;
lastChange = "2018-06-16 16:12:20 +0000";
layers = (
{
components = (
{
name = k;
}
);
layerId = "6F85D940-A117-47EE-950D-70F837F8C9CE";
paths = (
{
closed = 1;
nodes = (
"205 -36 OFFCURVE",
"172 -71 OFFCURVE",
"166 -107 CURVE SMOOTH",
"160 -144 OFFCURVE",
"191 -179 OFFCURVE",
"236 -179 CURVE",
"221 -203 OFFCURVE",
"194 -218 OFFCURVE",
"157 -237 CURVE",
"194 -281 LINE",
"254 -263 OFFCURVE",
"338 -202 OFFCURVE",
"348 -139 CURVE SMOOTH",
"358 -78 OFFCURVE",
"325 -36 OFFCURVE",
"264 -36 CURVE SMOOTH"
);
}
);
width = 618;
},
{
components = (
{
alignment = -1;
name = k;
}
);
layerId = "7984B694-437B-44C7-A8AE-41A7C9CC5720";
paths = (
{
closed = 1;
nodes = (
"153 -49 OFFCURVE",
"121 -78 OFFCURVE",
"114 -113 CURVE SMOOTH",
"107 -147 OFFCURVE",
"140 -178 OFFCURVE",
"181 -169 CURVE",
"154 -208 OFFCURVE",
"95 -240 OFFCURVE",
"95 -240 CURVE",
"126 -265 LINE",
"170 -242 OFFCURVE",
"235 -191 OFFCURVE",
"247 -123 CURVE SMOOTH",
"254 -82 OFFCURVE",
"228 -49 OFFCURVE",
"187 -49 CURVE SMOOTH"
);
}
);
width = 466;
}
);
leftKerningGroup = l;
rightKerningGroup = c;
unicode = 0137;
},
{
color = 1;
glyphname = l;
lastChange = "2018-06-18 13:17:57 +0000";
layers = (
{
anchors = (
{
name = bottom;
position = "{48, 0}";
},
{
name = center;
position = "{127, 450}";
},
{
name = top;
position = "{206, 900}";
},
{
name = topright;
position = "{279, 900}";
}
);
layerId = "7984B694-437B-44C7-A8AE-41A7C9CC5720";
paths = (
{
closed = 1;
nodes = (
"234 860 LINE",
"166 860 LINE",
"16 0 LINE",
"84 0 LINE"
);
}
);
width = 186;
},
{
anchors = (
{
name = bottom;
position = "{106, 0}";
},
{
name = center;
position = "{185, 450}";
},
{
name = top;
position = "{264, 900}";
},
{
name = topright;
position = "{394, 900}";
}
);
layerId = "6F85D940-A117-47EE-950D-70F837F8C9CE";
paths = (
{
closed = 1;
nodes = (
"344 860 LINE",
"167 860 LINE",
"17 0 LINE",
"194 0 LINE"
);
}
);
width = 301;
}
);
leftKerningGroup = l;
rightKerningGroup = i;
unicode = 006C;
},
{
color = 1;
glyphname = lcommaaccent;
lastChange = "2018-06-16 16:12:15 +0000";
layers = (
{
components = (
{
name = l;
}
);
layerId = "6F85D940-A117-47EE-950D-70F837F8C9CE";
paths = (
{
closed = 1;
nodes = (
"36 -36 OFFCURVE",
"3 -71 OFFCURVE",
"-3 -107 CURVE SMOOTH",
"-9 -144 OFFCURVE",
"22 -179 OFFCURVE",
"67 -179 CURVE",
"52 -203 OFFCURVE",
"25 -218 OFFCURVE",
"-12 -237 CURVE",
"25 -281 LINE",
"85 -263 OFFCURVE",
"169 -202 OFFCURVE",
"179 -139 CURVE SMOOTH",
"189 -78 OFFCURVE",
"156 -36 OFFCURVE",
"95 -36 CURVE SMOOTH"
);
}
);
width = 301;
},
{
components = (
{
alignment = -1;
name = l;
}
);
layerId = "7984B694-437B-44C7-A8AE-41A7C9CC5720";
paths = (
{
closed = 1;
nodes = (
"3 -49 OFFCURVE",
"-29 -78 OFFCURVE",
"-36 -113 CURVE SMOOTH",
"-43 -147 OFFCURVE",
"-10 -178 OFFCURVE",
"31 -169 CURVE",
"4 -208 OFFCURVE",
"-55 -240 OFFCURVE",
"-55 -240 CURVE",
"-24 -265 LINE",
"20 -242 OFFCURVE",
"85 -191 OFFCURVE",
"97 -123 CURVE SMOOTH",
"104 -82 OFFCURVE",
"78 -49 OFFCURVE",
"37 -49 CURVE SMOOTH"
);
}
);
width = 186;
}
);
leftKerningGroup = l;
rightKerningGroup = i;
unicode = 013C;
},
{
color = 1;
glyphname = lslash;
lastChange = "2017-11-04 15:21:28 +0000";
layers = (
{
layerId = "6F85D940-A117-47EE-950D-70F837F8C9CE";
paths = (
{
closed = 1;
nodes = (
"228 0 LINE",
"309 449 LINE",
"395 509 LINE",
"419 662 LINE",
"332 602 LINE",
"379 860 LINE",
"202 860 LINE",
"131 463 LINE",
"44 403 LINE",
"21 250 LINE",
"107 310 LINE",
"51 0 LINE"
);
}
);
width = 369;
},
{
layerId = "7984B694-437B-44C7-A8AE-41A7C9CC5720";
paths = (
{
closed = 1;
nodes = (
"99 0 LINE",
"174 420 LINE",
"257 477 LINE",
"270 561 LINE",
"187 504 LINE",
"250 860 LINE",
"182 860 LINE",
"109 450 LINE",
"41 403 LINE",
"28 319 LINE",
"96 366 LINE",
"31 0 LINE"
);
}
);
width = 219;
}
);
leftKerningGroup = l;
rightKerningGroup = i;
unicode = 0142;
},
{
color = 5;
glyphname = m;
lastChange = "2018-06-18 13:17:57 +0000";
layers = (
{
anchors = (
{
name = bottom;
position = "{452, 0}";
},
{
name = top;
position = "{542, 513}";
}
);
background = {
guideLines = (
{
position = "{256, 139}";
}
);
paths = (
{
closed = 1;
nodes = (
"540 0 LINE",
"565 142 LINE SMOOTH",
"588 271 OFFCURVE",
"642 370 OFFCURVE",
"721 370 CURVE SMOOTH",
"763 370 OFFCURVE",
"773 335 OFFCURVE",
"764 284 CURVE SMOOTH",
"714 0 LINE",
"881 0 LINE",
"906 141 LINE SMOOTH",
"934 299 OFFCURVE",
"984 370 OFFCURVE",
"1061 370 CURVE SMOOTH",
"1113 370 OFFCURVE",
"1111 321 OFFCURVE",
"1099 252 CURVE SMOOTH",
"1056 0 LINE",
"1233 0 LINE",
"1292 330 LINE SMOOTH",
"1318 478 OFFCURVE",
"1252 525 OFFCURVE",
"1147 526 CURVE SMOOTH",
"1061 527 OFFCURVE",
"989 482 OFFCURVE",
"934 373 CURVE",
"942 479 OFFCURVE",
"907 527 OFFCURVE",
"807 526 CURVE SMOOTH",
"729 525 OFFCURVE",
"666 492 OFFCURVE",
"600 373 CURVE",
"623 513 LINE",
"452 513 LINE",
"362 0 LINE"
);
}
);
};
layerId = "6F85D940-A117-47EE-950D-70F837F8C9CE";
paths = (
{
closed = 1;
nodes = (
"22 0 LINE",
"200 0 LINE",
"225 142 LINE SMOOTH",
"247 271 OFFCURVE",
"302 370 OFFCURVE",
"381 370 CURVE SMOOTH",
"423 370 OFFCURVE",
"433 335 OFFCURVE",
"424 284 CURVE SMOOTH",
"374 0 LINE",
"541 0 LINE",
"566 141 LINE SMOOTH",
"594 299 OFFCURVE",
"654 370 OFFCURVE",
"721 370 CURVE SMOOTH",
"773 370 OFFCURVE",
"771 321 OFFCURVE",
"759 252 CURVE SMOOTH",
"716 0 LINE",
"893 0 LINE",
"952 330 LINE SMOOTH",
"978 478 OFFCURVE",
"912 525 OFFCURVE",
"807 526 CURVE SMOOTH",
"721 527 OFFCURVE",
"649 482 OFFCURVE",
"594 373 CURVE",
"602 479 OFFCURVE",
"567 527 OFFCURVE",
"467 526 CURVE SMOOTH",
"389 525 OFFCURVE",
"326 492 OFFCURVE",
"260 373 CURVE",
"283 513 LINE",
"112 513 LINE"
);
}
);
width = 993;
},
{
anchors = (
{
name = bottom;
position = "{385, 0}";
},
{
name = top;
position = "{475, 513}";
}
);
guideLines = (
{
position = "{147, 227}";
}
);
layerId = "7984B694-437B-44C7-A8AE-41A7C9CC5720";
paths = (
{
closed = 1;
nodes = (
"14 0 LINE",
"82 0 LINE",
"122 220 LINE SMOOTH",
"149 368 OFFCURVE",
"254 467 OFFCURVE",
"338 467 CURVE SMOOTH",
"401 467 OFFCURVE",
"426 426 OFFCURVE",
"414 355 CURVE SMOOTH",
"352 0 LINE",
"421 0 LINE",
"459 218 LINE SMOOTH",
"485 367 OFFCURVE",
"594 466 OFFCURVE",
"676 467 CURVE SMOOTH",
"744 466 OFFCURVE",
"766 424 OFFCURVE",
"754 355 CURVE SMOOTH",
"691 0 LINE",
"759 0 LINE",
"821 355 LINE SMOOTH",
"839 464 OFFCURVE",
"803 528 OFFCURVE",
"690 528 CURVE SMOOTH",
"610 528 OFFCURVE",
"524 470 OFFCURVE",
"477 372 CURVE",
"500 463 OFFCURVE",
"456 528 OFFCURVE",
"353 528 CURVE SMOOTH",
"272 528 OFFCURVE",
"188 476 OFFCURVE",
"138 358 CURVE",
"172 513 LINE",
"104 513 LINE"
);
}
);
width = 859;
}
);
leftKerningGroup = i;
leftMetricsKey = "=i+19";
note = " ";
rightKerningGroup = n;
rightMetricsKey = n;
unicode = 006D;
},
{
color = 1;
glyphname = n;
lastChange = "2018-06-18 13:17:57 +0000";
layers = (
{
anchors = (
{
name = bottom;
position = "{235, 0}";
},
{
name = top;
position = "{325, 513}";
}
);
background = {
paths = (
{
closed = 1;
nodes = (
"136 270 LINE SMOOTH",
"154 371 OFFCURVE",
"280 464 OFFCURVE",
"363 464 CURVE SMOOTH",
"440 464 OFFCURVE",
"467 422 OFFCURVE",
"445 293 CURVE SMOOTH",
"394 0 LINE",
"462 0 LINE",
"521 338 LINE SMOOTH",
"547 486 OFFCURVE",
"473 528 OFFCURVE",
"387 528 CURVE SMOOTH",
"302 528 OFFCURVE",
"190 469 OFFCURVE",
"160 405 CURVE",
"160 409 LINE",
"178 513 LINE",
"110 513 LINE",
"21 0 LINE",
"89 0 LINE"
);
}
);
};
layerId = "7984B694-437B-44C7-A8AE-41A7C9CC5720";
paths = (
{
closed = 1;
nodes = (
"88 0 LINE",
"128 224 LINE SMOOTH",
"147 331 OFFCURVE",
"248 468 OFFCURVE",
"375 468 CURVE SMOOTH",
"458 468 OFFCURVE",
"465 409 OFFCURVE",
"451 331 CURVE SMOOTH",
"393 0 LINE",
"460 0 LINE",
"515 311 LINE SMOOTH",
"540 452 OFFCURVE",
"517 528 OFFCURVE",
"383 528 CURVE SMOOTH",
"305 528 OFFCURVE",
"214 502 OFFCURVE",
"150 370 CURVE",
"178 513 LINE",
"110 513 LINE",
"20 0 LINE"
);
}
);
width = 560;
},
{
anchors = (
{
name = bottom;
position = "{290, 0}";
},
{
name = top;
position = "{380, 513}";
}
);
background = {
paths = (
{
closed = 1;
nodes = (
"245 270 LINE SMOOTH",
"257 341 OFFCURVE",
"318 390 OFFCURVE",
"371 390 CURVE SMOOTH",
"426 390 OFFCURVE",
"458 362 OFFCURVE",
"446 293 CURVE SMOOTH",
"395 0 LINE",
"572 0 LINE",
"631 338 LINE SMOOTH",
"657 486 OFFCURVE",
"553 528 OFFCURVE",
"459 528 CURVE SMOOTH",
"374 528 OFFCURVE",
"298 479 OFFCURVE",
"274 435 CURVE",
"275 439 LINE",
"287 513 LINE",
"110 513 LINE",
"21 0 LINE",
"198 0 LINE"
);
}
);
};
layerId = "6F85D940-A117-47EE-950D-70F837F8C9CE";
paths = (
{
closed = 1;
nodes = (
"196 0 LINE",
"221 142 LINE SMOOTH",
"243 271 OFFCURVE",
"298 370 OFFCURVE",
"387 370 CURVE SMOOTH",
"449 370 OFFCURVE",
"447 321 OFFCURVE",
"435 252 CURVE SMOOTH",
"391 0 LINE",
"569 0 LINE",
"628 330 LINE SMOOTH",
"654 478 OFFCURVE",
"578 525 OFFCURVE",
"483 526 CURVE SMOOTH",
"395 527 OFFCURVE",
"322 512 OFFCURVE",
"256 373 CURVE",
"279 513 LINE",
"108 513 LINE",
"18 0 LINE"
);
}
);
width = 669;
}
);
leftKerningGroup = n;
rightKerningGroup = n;
unicode = 006E;
},
{
color = 1;
glyphname = ncommaaccent;
lastChange = "2018-06-18 11:43:53 +0000";
layers = (
{
components = (
{
name = n;
}
);
layerId = "6F85D940-A117-47EE-950D-70F837F8C9CE";
paths = (
{
closed = 1;
nodes = (
"219 -36 OFFCURVE",
"186 -71 OFFCURVE",
"180 -107 CURVE SMOOTH",
"174 -144 OFFCURVE",
"205 -179 OFFCURVE",
"250 -179 CURVE",
"235 -203 OFFCURVE",
"208 -218 OFFCURVE",
"171 -237 CURVE",
"208 -281 LINE",
"268 -263 OFFCURVE",
"352 -202 OFFCURVE",
"362 -139 CURVE SMOOTH",
"372 -78 OFFCURVE",
"339 -36 OFFCURVE",
"278 -36 CURVE SMOOTH"
);
}
);
width = 669;
},
{
components = (
{
alignment = -1;
name = n;
}
);
layerId = "7984B694-437B-44C7-A8AE-41A7C9CC5720";
paths = (
{
closed = 1;
nodes = (
"190 -49 OFFCURVE",
"158 -78 OFFCURVE",
"150 -113 CURVE SMOOTH",
"142 -147 OFFCURVE",
"177 -178 OFFCURVE",
"218 -169 CURVE",
"190 -208 OFFCURVE",
"132 -240 OFFCURVE",
"132 -240 CURVE",
"163 -265 LINE",
"207 -242 OFFCURVE",
"272 -191 OFFCURVE",
"284 -123 CURVE SMOOTH",
"291 -82 OFFCURVE",
"265 -49 OFFCURVE",
"224 -49 CURVE SMOOTH"
);
}
);
width = 551;
}
);
leftKerningGroup = i;
rightKerningGroup = n;
unicode = 0146;
},
{
color = 1;
glyphname = eng;
lastChange = "2018-06-18 13:02:12 +0000";
layers = (
{
components = (
{
name = n;
}
);
layerId = "6F85D940-A117-47EE-950D-70F837F8C9CE";
paths = (
{
closed = 1;
nodes = (
"555 -72 LINE SMOOTH",
"539 -163 OFFCURVE",
"470 -275 OFFCURVE",
"323 -275 CURVE SMOOTH",
"245 -275 OFFCURVE",
"216 -257 OFFCURVE",
"193 -246 CURVE",
"275 -100 LINE",
"273 -100 OFFCURVE",
"305 -115 OFFCURVE",
"333 -115 CURVE SMOOTH",
"357 -115 OFFCURVE",
"374 -100 OFFCURVE",
"382 -52 CURVE SMOOTH",
"391 0 LINE",
"568 0 LINE"
);
}
);
width = 661;
},
{
components = (
{
name = n;
}
);
layerId = "7984B694-437B-44C7-A8AE-41A7C9CC5720";
paths = (
{
closed = 1;
nodes = (
"436 -77 LINE SMOOTH",
"418 -178 OFFCURVE",
"374 -275 OFFCURVE",
"264 -275 CURVE SMOOTH",
"213 -275 OFFCURVE",
"176 -256 OFFCURVE",
"174 -254 CURVE",
"213 -195 LINE",
"224 -206 OFFCURVE",
"247 -213 OFFCURVE",
"270 -213 CURVE SMOOTH",
"340 -213 OFFCURVE",
"359 -141 OFFCURVE",
"375 -47 CURVE SMOOTH",
"383 0 LINE",
"450 0 LINE"
);
}
);
width = 551;
}
);
leftKerningGroup = i;
rightKerningGroup = n;
unicode = 014B;
},
{
color = 1;
glyphname = o;
lastChange = "2018-06-30 12:39:14 +0000";
layers = (
{
anchors = (
{
name = bottom;
position = "{265, 0}";
},
{
name = center;
position = "{310, 257}";
},
{
name = ogonek;
position = "{515, 10}";
},
{
name = top;
position = "{355, 513}";
},
{
name = topright;
position = "{645, 513}";
}
);
background = {
paths = (
{
closed = 1;
nodes = (
"426 -15 OFFCURVE",
"566 98 OFFCURVE",
"594 255 CURVE SMOOTH",
"623 415 OFFCURVE",
"513 528 OFFCURVE",
"354 528 CURVE SMOOTH",
"192 528 OFFCURVE",
"46 415 OFFCURVE",
"18 255 CURVE SMOOTH",
"-9 98 OFFCURVE",
"87 -15 OFFCURVE",
"260 -15 CURVE SMOOTH"
);
},
{
closed = 1;
nodes = (
"215 136 OFFCURVE",
"176 186 OFFCURVE",
"188 256 CURVE SMOOTH",
"200 327 OFFCURVE",
"262 377 OFFCURVE",
"329 377 CURVE SMOOTH",
"395 377 OFFCURVE",
"439 327 OFFCURVE",
"427 256 CURVE SMOOTH",
"415 186 OFFCURVE",
"356 136 OFFCURVE",
"287 136 CURVE SMOOTH"
);
}
);
};
guideLines = (
{
angle = 80;
position = "{249, -89}";
}
);
layerId = "6F85D940-A117-47EE-950D-70F837F8C9CE";
paths = (
{
closed = 1;
nodes = (
"446 -16 OFFCURVE",
"574 100 OFFCURVE",
"598 258 CURVE SMOOTH",
"623 421 OFFCURVE",
"520 528 OFFCURVE",
"355 528 CURVE SMOOTH",
"201 528 OFFCURVE",
"49 434 OFFCURVE",
"22 258 CURVE SMOOTH",
"-3 96 OFFCURVE",
"96 -16 OFFCURVE",
"269 -16 CURVE SMOOTH"
);
},
{
closed = 1;
nodes = (
"220 129 OFFCURVE",
"181 184 OFFCURVE",
"193 256 CURVE SMOOTH",
"205 330 OFFCURVE",
"263 382 OFFCURVE",
"329 382 CURVE SMOOTH",
"398 382 OFFCURVE",
"433 324 OFFCURVE",
"423 255 CURVE SMOOTH",
"413 184 OFFCURVE",
"360 129 OFFCURVE",
"290 129 CURVE SMOOTH"
);
}
);
width = 620;
},
{
anchors = (
{
name = bottom;
position = "{239, 0}";
},
{
name = center;
position = "{284, 257}";
},
{
name = ogonek;
position = "{467, 10}";
},
{
name = top;
position = "{329, 513}";
},
{
name = topright;
position = "{592, 513}";
}
);
background = {
components = (
{
name = a;
transform = "{1, 0, 0, 1, 6, 16}";
}
);
};
guideLines = (
{
angle = 80;
position = "{30, 187}";
},
{
angle = 80;
position = "{288, 317}";
}
);
layerId = "7984B694-437B-44C7-A8AE-41A7C9CC5720";
paths = (
{
closed = 1;
nodes = (
"403 -15 OFFCURVE",
"516 100 OFFCURVE",
"541 248 CURVE SMOOTH",
"569 412 OFFCURVE",
"482 528 OFFCURVE",
"325 528 CURVE SMOOTH",
"171 528 OFFCURVE",
"51 416 OFFCURVE",
"25 266 CURVE SMOOTH",
"-3 106 OFFCURVE",
"80 -15 OFFCURVE",
"238 -15 CURVE SMOOTH"
);
},
{
closed = 1;
nodes = (
"141 44 OFFCURVE",
"75 131 OFFCURVE",
"95 258 CURVE SMOOTH",
"113 373 OFFCURVE",
"198 469 OFFCURVE",
"313 469 CURVE SMOOTH",
"438 469 OFFCURVE",
"494 372 OFFCURVE",
"473 251 CURVE SMOOTH",
"453 135 OFFCURVE",
"366 44 OFFCURVE",
"250 44 CURVE SMOOTH"
);
}
);
width = 567;
}
);
leftKerningGroup = o;
rightKerningGroup = o;
unicode = 006F;
},
{
color = 1;
glyphname = oslash;
lastChange = "2018-06-18 13:17:57 +0000";
layers = (
{
anchors = (
{
name = top;
position = "{376, 513}";
}
);
components = (
{
name = o;
transform = "{1, 0, 0, 1, 23, 0}";
}
);
layerId = "6F85D940-A117-47EE-950D-70F837F8C9CE";
paths = (
{
closed = 1;
nodes = (
"698 479 LINE",
"659 533 LINE",
"-23 38 LINE",
"16 -16 LINE"
);
}
);
width = 661;
},
{
anchors = (
{
name = top;
position = "{347, 513}";
}
);
components = (
{
name = o;
transform = "{1, 0, 0, 1, 23, 0}";
}
);
layerId = "7984B694-437B-44C7-A8AE-41A7C9CC5720";
paths = (
{
closed = 1;
nodes = (
"614 489 LINE",
"577 543 LINE",
"-23 28 LINE",
"14 -26 LINE"
);
}
);
width = 603;
}
);
leftKerningGroup = o;
rightKerningGroup = o;
unicode = 00F8;
},
{
color = 5;
glyphname = p;
lastChange = "2018-06-18 13:17:57 +0000";
layers = (
{
anchors = (
{
name = bottom;
position = "{286, 0}";
},
{
name = top;
position = "{376, 513}";
}
);
layerId = "6F85D940-A117-47EE-950D-70F837F8C9CE";
paths = (
{
closed = 1;
nodes = (
"182 -100 LINE",
"196 5 LINE",
"31 58 LINE",
"-24 -260 LINE",
"153 -260 LINE"
);
},
{
closed = 1;
nodes = (
"81 27 OFFCURVE",
"217 -20 OFFCURVE",
"323 -9 CURVE SMOOTH",
"492 10 OFFCURVE",
"609 85 OFFCURVE",
"639 252 CURVE SMOOTH",
"666 403 OFFCURVE",
"595 523 OFFCURVE",
"445 523 CURVE SMOOTH",
"363 523 OFFCURVE",
"300 472 OFFCURVE",
"259 373 CURVE",
"285 513 LINE",
"108 513 LINE",
"31 58 LINE"
);
},
{
closed = 1;
nodes = (
"456 368 OFFCURVE",
"478 310 OFFCURVE",
"468 253 CURVE SMOOTH",
"453 165 OFFCURVE",
"378 119 OFFCURVE",
"284 119 CURVE SMOOTH",
"264 119 OFFCURVE",
"243 121 OFFCURVE",
"221 125 CURVE",
"230 173 LINE SMOOTH",
"248 271 OFFCURVE",
"309 368 OFFCURVE",
"393 368 CURVE SMOOTH"
);
}
);
width = 662;
},
{
anchors = (
{
name = bottom;
position = "{239, 0}";
},
{
name = top;
position = "{329, 513}";
}
);
background = {
components = (
{
name = a;
transform = "{-1, 0, 0, -1, 564, 513}";
}
);
paths = (
{
closed = 1;
nodes = (
"-29 -260 LINE",
"39 -260 LINE",
"68 19 LINE",
"0 19 LINE"
);
}
);
};
guideLines = (
{
position = "{182, -16}";
}
);
layerId = "7984B694-437B-44C7-A8AE-41A7C9CC5720";
paths = (
{
closed = 1;
nodes = (
"68 -109 LINE",
"85 19 LINE",
"23 19 LINE",
"-25 -260 LINE",
"43 -260 LINE"
);
},
{
closed = 1;
nodes = (
"72 -8 OFFCURVE",
"128 -12 OFFCURVE",
"183 -12 CURVE SMOOTH",
"373 -12 OFFCURVE",
"512 78 OFFCURVE",
"545 260 CURVE SMOOTH",
"572 411 OFFCURVE",
"510 528 OFFCURVE",
"367 528 CURVE SMOOTH",
"251 528 OFFCURVE",
"180 444 OFFCURVE",
"147 362 CURVE",
"178 514 LINE",
"110 514 LINE",
"20 1 LINE"
);
},
{
closed = 1;
nodes = (
"452 465 OFFCURVE",
"497 384 OFFCURVE",
"478 273 CURVE SMOOTH",
"453 128 OFFCURVE",
"347 44 OFFCURVE",
"194 44 CURVE SMOOTH",
"164 44 OFFCURVE",
"131 45 OFFCURVE",
"97 51 CURVE",
"116 168 LINE SMOOTH",
"143 336 OFFCURVE",
"242 465 OFFCURVE",
"356 465 CURVE SMOOTH"
);
}
);
width = 568;
}
);
leftKerningGroup = r;
leftMetricsKey = n;
rightKerningGroup = o;
rightMetricsKey = o;
unicode = 0070;
},
{
color = 1;
glyphname = thorn;
lastChange = "2018-06-18 13:17:57 +0000";
layers = (
{
anchors = (
{
name = bottom;
position = "{297, 0}";
},
{
name = top;
position = "{387, 513}";
}
);
components = (
{
name = p;
}
);
layerId = "6F85D940-A117-47EE-950D-70F837F8C9CE";
paths = (
{
closed = 1;
nodes = (
"170 860 LINE",
"108 513 LINE",
"285 513 LINE",
"347 860 LINE"
);
}
);
width = 683;
},
{
anchors = (
{
name = bottom;
position = "{241, 0}";
},
{
name = top;
position = "{331, 513}";
}
);
background = {
components = (
{
name = p;
transform = "{1, 0, 0, 1, -14, 0}";
}
);
paths = (
{
closed = 1;
nodes = (
"103 514 LINE",
"171 514 LINE",
"231 859 LINE",
"165 859 LINE"
);
}
);
};
components = (
{
name = p;
transform = "{1, 0, 0, 1, -1, 0}";
}
);
layerId = "7984B694-437B-44C7-A8AE-41A7C9CC5720";
paths = (
{
closed = 1;
nodes = (
"171 859 LINE",
"109 514 LINE",
"177 514 LINE",
"237 859 LINE"
);
}
);
width = 572;
}
);
leftKerningGroup = l;
rightKerningGroup = o;
unicode = 00FE;
},
{
color = 5;
glyphname = q;
lastChange = "2018-06-18 13:17:57 +0000";
layers = (
{
anchors = (
{
name = bottom;
position = "{282, 0}";
},
{
name = top;
position = "{372, 513}";
}
);
background = {
components = (
{
name = a;
transform = "{1, 0, 0, 1, 13, 0}";
}
);
paths = (
{
closed = 1;
nodes = (
"390 -261 LINE",
"567 -261 LINE",
"594 0 LINE",
"417 0 LINE"
);
}
);
};
components = (
{
name = a;
}
);
layerId = "6F85D940-A117-47EE-950D-70F837F8C9CE";
paths = (
{
closed = 1;
nodes = (
"377 0 LINE",
"331 -260 LINE",
"508 -260 LINE",
"554 0 LINE"
);
}
);
width = 653;
},
{
anchors = (
{
name = bottom;
position = "{235, 0}";
},
{
name = top;
position = "{325, 513}";
}
);
components = (
{
name = a;
}
);
layerId = "7984B694-437B-44C7-A8AE-41A7C9CC5720";
paths = (
{
closed = 1;
nodes = (
"390 1 LINE",
"342 -260 LINE",
"413 -260 LINE",
"489 178 LINE"
);
}
);
width = 559;
}
);
leftKerningGroup = o;
leftMetricsKey = o;
rightKerningGroup = j;
rightMetricsKey = n;
unicode = 0071;
},
{
color = 1;
glyphname = r;
lastChange = "2018-08-18 14:55:46 +0000";
layers = (
{
anchors = (
{
name = bottom;
position = "{184, 0}";
},
{
name = top;
position = "{274, 513}";
}
);
layerId = "6F85D940-A117-47EE-950D-70F837F8C9CE";
paths = (
{
closed = 1;
nodes = (
"18 0 LINE",
"195 0 LINE",
"224 170 LINE SMOOTH",
"233 222 OFFCURVE",
"255 266 OFFCURVE",
"291 298 CURVE SMOOTH",
"332 333 OFFCURVE",
"391 351 OFFCURVE",
"469 342 CURVE",
"498 520 LINE",
"449 529 OFFCURVE",
"399 523 OFFCURVE",
"354 493 CURVE SMOOTH",
"294 451 OFFCURVE",
"265 380 OFFCURVE",
"260 371 CURVE",
"285 513 LINE",
"108 513 LINE"
);
}
);
width = 458;
},
{
anchors = (
{
name = bottom;
position = "{120, 0}";
},
{
name = top;
position = "{210, 513}";
}
);
background = {
components = (
{
name = n;
transform = "{1, 0, 0, 1, 10, 0}";
}
);
};
layerId = "7984B694-437B-44C7-A8AE-41A7C9CC5720";
paths = (
{
closed = 1;
nodes = (
"20 0 LINE",
"88 0 LINE",
"125 205 LINE SMOOTH",
"136 264 OFFCURVE",
"155 328 OFFCURVE",
"197 373 CURVE SMOOTH",
"240 420 OFFCURVE",
"302 452 OFFCURVE",
"359 444 CURVE",
"373 517 LINE",
"337 525 OFFCURVE",
"278 510 OFFCURVE",
"236 476 CURVE SMOOTH",
"195 443 OFFCURVE",
"159 397 OFFCURVE",
"141 349 CURVE",
"178 513 LINE",
"110 513 LINE"
);
}
);
width = 329;
}
);
leftKerningGroup = n;
leftMetricsKey = n;
note = " ";
rightKerningGroup = r;
unicode = 0072;
},
{
color = 1;
glyphname = rcommaaccent;
lastChange = "2018-06-16 16:11:59 +0000";
layers = (
{
components = (
{
name = r;
}
);
layerId = "6F85D940-A117-47EE-950D-70F837F8C9CE";
paths = (
{
closed = 1;
nodes = (
"41 -36 OFFCURVE",
"8 -71 OFFCURVE",
"2 -107 CURVE SMOOTH",
"-4 -144 OFFCURVE",
"27 -179 OFFCURVE",
"72 -179 CURVE",
"57 -203 OFFCURVE",
"30 -218 OFFCURVE",
"-7 -237 CURVE",
"30 -281 LINE",
"90 -263 OFFCURVE",
"174 -202 OFFCURVE",
"184 -139 CURVE SMOOTH",
"194 -78 OFFCURVE",
"161 -36 OFFCURVE",
"100 -36 CURVE SMOOTH"
);
}
);
width = 458;
},
{
components = (
{
alignment = -1;
name = r;
}
);
layerId = "7984B694-437B-44C7-A8AE-41A7C9CC5720";
paths = (
{
closed = 1;
nodes = (
"12 -49 OFFCURVE",
"-20 -78 OFFCURVE",
"-27 -113 CURVE SMOOTH",
"-34 -147 OFFCURVE",
"0 -178 OFFCURVE",
"41 -169 CURVE",
"13 -208 OFFCURVE",
"-45 -240 OFFCURVE",
"-45 -240 CURVE",
"-14 -265 LINE",
"29 -242 OFFCURVE",
"95 -191 OFFCURVE",
"107 -123 CURVE SMOOTH",
"114 -82 OFFCURVE",
"87 -49 OFFCURVE",
"47 -49 CURVE SMOOTH"
);
}
);
width = 346;
}
);
leftKerningGroup = i;
rightKerningGroup = r;
unicode = 0157;
},
{
color = 1;
glyphname = s;
lastChange = "2018-06-18 13:17:57 +0000";
layers = (
{
anchors = (
{
name = bottom;
position = "{165, 0}";
},
{
name = top;
position = "{255, 513}";
}
);
background = {
paths = (
{
closed = 1;
nodes = (
"158 528 OFFCURVE",
"70 477 OFFCURVE",
"54 390 CURVE SMOOTH",
"53 381 OFFCURVE",
"52 373 OFFCURVE",
"52 366 CURVE SMOOTH",
"52 281 OFFCURVE",
"140 258 OFFCURVE",
"195 237 CURVE SMOOTH",
"230 224 OFFCURVE",
"297 201 OFFCURVE",
"297 155 CURVE SMOOTH",
"297 152 OFFCURVE",
"297 149 OFFCURVE",
"296 146 CURVE SMOOTH",
"287 93 OFFCURVE",
"244 49 OFFCURVE",
"148 49 CURVE SMOOTH",
"74 49 OFFCURVE",
"27 67 OFFCURVE",
"6 85 CURVE",
"-5 17 LINE",
"6 5 OFFCURVE",
"53 -15 OFFCURVE",
"142 -15 CURVE SMOOTH",
"246 -15 OFFCURVE",
"345 35 OFFCURVE",
"365 142 CURVE SMOOTH",
"367 152 OFFCURVE",
"368 161 OFFCURVE",
"368 169 CURVE SMOOTH",
"368 255 OFFCURVE",
"281 278 OFFCURVE",
"223 298 CURVE SMOOTH",
"189 309 OFFCURVE",
"123 329 OFFCURVE",
"123 377 CURVE SMOOTH",
"123 380 OFFCURVE",
"123 384 OFFCURVE",
"124 387 CURVE SMOOTH",
"134 444 OFFCURVE",
"187 466 OFFCURVE",
"250 466 CURVE SMOOTH",
"292 466 OFFCURVE",
"348 456 OFFCURVE",
"382 441 CURVE",
"394 508 LINE",
"394 508 OFFCURVE",
"353 528 OFFCURVE",
"261 528 CURVE SMOOTH"
);
}
);
};
layerId = "7984B694-437B-44C7-A8AE-41A7C9CC5720";
paths = (
{
closed = 1;
nodes = (
"153 528 OFFCURVE",
"69 478 OFFCURVE",
"54 390 CURVE SMOOTH",
"39 301 OFFCURVE",
"108 271 OFFCURVE",
"195 239 CURVE SMOOTH",
"262 214 OFFCURVE",
"307 195 OFFCURVE",
"297 138 CURVE SMOOTH",
"289 92 OFFCURVE",
"246 47 OFFCURVE",
"144 47 CURVE SMOOTH",
"81 47 OFFCURVE",
"26 67 OFFCURVE",
"6 85 CURVE",
"-5 17 LINE",
"4 5 OFFCURVE",
"61 -15 OFFCURVE",
"133 -15 CURVE SMOOTH",
"242 -15 OFFCURVE",
"345 31 OFFCURVE",
"365 142 CURVE SMOOTH",
"383 240 OFFCURVE",
"313 267 OFFCURVE",
"223 297 CURVE SMOOTH",
"177 313 OFFCURVE",
"112 337 OFFCURVE",
"121 390 CURVE SMOOTH",
"130 444 OFFCURVE",
"180 466 OFFCURVE",
"249 466 CURVE SMOOTH",
"302 466 OFFCURVE",
"348 456 OFFCURVE",
"382 441 CURVE",
"394 508 LINE",
"373 517 OFFCURVE",
"326 528 OFFCURVE",
"271 528 CURVE SMOOTH"
);
}
);
width = 420;
},
{
associatedMasterId = "6F85D940-A117-47EE-950D-70F837F8C9CE";
background = {
paths = (
{
closed = 1;
nodes = (
"177 528 OFFCURVE",
"77 468 OFFCURVE",
"59 363 CURVE SMOOTH",
"46 286 OFFCURVE",
"91 250 OFFCURVE",
"138 223 CURVE SMOOTH",
"191 193 OFFCURVE",
"247 190 OFFCURVE",
"240 153 CURVE SMOOTH",
"234 119 OFFCURVE",
"203 116 OFFCURVE",
"178 116 CURVE SMOOTH",
"121 116 OFFCURVE",
"68 140 OFFCURVE",
"32 155 CURVE",
"19 69 LINE",
"12 21 LINE",
"42 4 OFFCURVE",
"90 -15 OFFCURVE",
"154 -15 CURVE SMOOTH",
"259 -15 OFFCURVE",
"402 9 OFFCURVE",
"428 160 CURVE SMOOTH",
"446 265 OFFCURVE",
"365 303 OFFCURVE",
"301 324 CURVE SMOOTH",
"259 338 OFFCURVE",
"225 346 OFFCURVE",
"229 373 CURVE SMOOTH",
"233 397 OFFCURVE",
"251 404 OFFCURVE",
"290 404 CURVE SMOOTH",
"344 404 OFFCURVE",
"398 393 OFFCURVE",
"428 379 CURVE",
"453 513 LINE",
"453 513 OFFCURVE",
"411 528 OFFCURVE",
"312 528 CURVE SMOOTH"
);
}
);
};
layerId = "9735ACCB-C889-47BE-9128-EAB7BABB0652";
name = "Dec 9 17, 17:10";
paths = (
{
closed = 1;
nodes = (
"145 528 OFFCURVE",
"55 471 OFFCURVE",
"38 368 CURVE SMOOTH",
"19 252 OFFCURVE",
"101 221 OFFCURVE",
"165 201 CURVE SMOOTH",
"206 188 OFFCURVE",
"259 176 OFFCURVE",
"254 146 CURVE SMOOTH",
"251 126 OFFCURVE",
"225 119 OFFCURVE",
"189 119 CURVE SMOOTH",
"143 119 OFFCURVE",
"61 133 OFFCURVE",
"11 156 CURVE",
"-11 16 LINE",
"28 1 OFFCURVE",
"116 -14 OFFCURVE",
"183 -14 CURVE SMOOTH",
"292 -14 OFFCURVE",
"406 24 OFFCURVE",
"428 160 CURVE SMOOTH",
"445 264 OFFCURVE",
"359 298 OFFCURVE",
"292 319 CURVE SMOOTH",
"250 332 OFFCURVE",
"198 346 OFFCURVE",
"202 372 CURVE SMOOTH",
"205 391 OFFCURVE",
"254 398 OFFCURVE",
"292 398 CURVE SMOOTH",
"340 398 OFFCURVE",
"398 388 OFFCURVE",
"428 376 CURVE",
"453 513 LINE",
"407 523 OFFCURVE",
"360 528 OFFCURVE",
"297 528 CURVE SMOOTH"
);
}
);
width = 464;
},
{
anchors = (
{
name = bottom;
position = "{192, 0}";
},
{
name = top;
position = "{282, 513}";
}
);
background = {
paths = (
{
closed = 1;
nodes = (
"178 528 OFFCURVE",
"78 468 OFFCURVE",
"60 363 CURVE SMOOTH",
"47 286 OFFCURVE",
"92 250 OFFCURVE",
"139 223 CURVE SMOOTH",
"192 193 OFFCURVE",
"248 190 OFFCURVE",
"241 153 CURVE SMOOTH",
"235 119 OFFCURVE",
"204 116 OFFCURVE",
"179 116 CURVE SMOOTH",
"122 116 OFFCURVE",
"69 140 OFFCURVE",
"33 155 CURVE",
"20 69 LINE",
"13 21 LINE",
"43 4 OFFCURVE",
"91 -15 OFFCURVE",
"155 -15 CURVE SMOOTH",
"260 -15 OFFCURVE",
"403 9 OFFCURVE",
"429 160 CURVE SMOOTH",
"447 265 OFFCURVE",
"366 303 OFFCURVE",
"302 324 CURVE SMOOTH",
"260 338 OFFCURVE",
"226 346 OFFCURVE",
"230 373 CURVE SMOOTH",
"234 397 OFFCURVE",
"252 404 OFFCURVE",
"291 404 CURVE SMOOTH",
"345 404 OFFCURVE",
"399 393 OFFCURVE",
"429 379 CURVE",
"454 513 LINE",
"454 513 OFFCURVE",
"412 528 OFFCURVE",
"313 528 CURVE SMOOTH"
);
}
);
};
layerId = "6F85D940-A117-47EE-950D-70F837F8C9CE";
paths = (
{
closed = 1;
nodes = (
"166 528 OFFCURVE",
"76 471 OFFCURVE",
"59 368 CURVE SMOOTH",
"39 252 OFFCURVE",
"122 222 OFFCURVE",
"186 201 CURVE SMOOTH",
"227 188 OFFCURVE",
"260 176 OFFCURVE",
"255 146 CURVE SMOOTH",
"252 126 OFFCURVE",
"226 119 OFFCURVE",
"190 119 CURVE SMOOTH",
"144 119 OFFCURVE",
"82 133 OFFCURVE",
"32 156 CURVE",
"10 16 LINE",
"49 1 OFFCURVE",
"117 -14 OFFCURVE",
"184 -14 CURVE SMOOTH",
"293 -14 OFFCURVE",
"407 24 OFFCURVE",
"429 160 CURVE SMOOTH",
"446 264 OFFCURVE",
"360 298 OFFCURVE",
"293 319 CURVE SMOOTH",
"251 332 OFFCURVE",
"219 346 OFFCURVE",
"223 372 CURVE SMOOTH",
"226 391 OFFCURVE",
"255 398 OFFCURVE",
"293 398 CURVE SMOOTH",
"341 398 OFFCURVE",
"399 388 OFFCURVE",
"429 376 CURVE",
"454 513 LINE",
"408 523 OFFCURVE",
"361 528 OFFCURVE",
"298 528 CURVE SMOOTH"
);
}
);
width = 473;
}
);
leftKerningGroup = s;
rightKerningGroup = s;
unicode = 0073;
},
{
color = 1;
glyphname = scommaaccent;
lastChange = "2018-06-16 16:11:45 +0000";
layers = (
{
anchors = (
{
name = _bottom;
position = "{238.943, 52}";
},
{
name = bottom;
position = "{116.581, -295}";
}
);
components = (
{
name = s;
}
);
guideLines = (
{
position = "{-830, -272}";
}
);
layerId = "6F85D940-A117-47EE-950D-70F837F8C9CE";
paths = (
{
closed = 1;
nodes = (
"119 -36 OFFCURVE",
"86 -71 OFFCURVE",
"80 -107 CURVE SMOOTH",
"73 -144 OFFCURVE",
"105 -179 OFFCURVE",
"150 -179 CURVE",
"135 -203 OFFCURVE",
"108 -218 OFFCURVE",
"71 -237 CURVE",
"108 -281 LINE",
"168 -263 OFFCURVE",
"252 -202 OFFCURVE",
"262 -139 CURVE SMOOTH",
"272 -78 OFFCURVE",
"239 -36 OFFCURVE",
"178 -36 CURVE SMOOTH"
);
}
);
width = 473;
},
{
anchors = (
{
name = _bottom;
position = "{163, -10}";
},
{
name = bottom;
position = "{116, -274}";
}
);
components = (
{
name = s;
}
);
layerId = "7984B694-437B-44C7-A8AE-41A7C9CC5720";
paths = (
{
closed = 1;
nodes = (
"116 -59 OFFCURVE",
"84 -88 OFFCURVE",
"77 -123 CURVE SMOOTH",
"70 -157 OFFCURVE",
"104 -188 OFFCURVE",
"145 -179 CURVE",
"117 -218 OFFCURVE",
"59 -250 OFFCURVE",
"59 -250 CURVE",
"89 -275 LINE",
"133 -252 OFFCURVE",
"198 -201 OFFCURVE",
"210 -133 CURVE SMOOTH",
"217 -92 OFFCURVE",
"191 -59 OFFCURVE",
"150 -59 CURVE SMOOTH"
);
}
);
width = 420;
}
);
leftKerningGroup = s;
rightKerningGroup = s;
unicode = 0219;
},
{
color = 1;
glyphname = germandbls;
lastChange = "2018-06-18 13:17:57 +0000";
layers = (
{
anchors = (
{
name = bottom;
position = "{278, 0}";
},
{
name = top;
position = "{368, 513}";
}
);
background = {
components = (
{
name = s;
transform = "{1, 0, 0, 1, 229, 0}";
}
);
paths = (
{
closed = 1;
nodes = (
"-17 456 LINE",
"97 456 LINE",
"-28 -260 LINE",
"39 -260 LINE",
"164 456 LINE",
"315 456 LINE",
"325 513 LINE",
"174 513 LINE",
"192 615 LINE SMOOTH",
"206 693 OFFCURVE",
"226 756 OFFCURVE",
"265 790 CURVE SMOOTH",
"299 820 OFFCURVE",
"336 818 OFFCURVE",
"389 810 CURVE",
"400 870 LINE",
"346 880 OFFCURVE",
"284 875 OFFCURVE",
"236 841 CURVE SMOOTH",
"180 801 OFFCURVE",
"145 729 OFFCURVE",
"130 644 CURVE SMOOTH",
"107 513 LINE",
"-7 513 LINE"
);
}
);
};
layerId = "7984B694-437B-44C7-A8AE-41A7C9CC5720";
paths = (
{
closed = 1;
nodes = (
"253 880 OFFCURVE",
"160 822 OFFCURVE",
"129 644 CURVE SMOOTH",
"-31 -260 LINE",
"37 -260 LINE",
"191 615 LINE SMOOTH",
"222 793 OFFCURVE",
"290 825 OFFCURVE",
"390 825 CURVE SMOOTH",
"507 825 OFFCURVE",
"549 785 OFFCURVE",
"538 703 CURVE SMOOTH",
"529 637 OFFCURVE",
"474 593 OFFCURVE",
"421 553 CURVE SMOOTH",
"360 507 OFFCURVE",
"290 464 OFFCURVE",
"279 401 CURVE SMOOTH",
"249 230 OFFCURVE",
"546 282 OFFCURVE",
"522 138 CURVE SMOOTH",
"514 92 OFFCURVE",
"471 47 OFFCURVE",
"371 47 CURVE SMOOTH",
"305 47 OFFCURVE",
"251 67 OFFCURVE",
"231 85 CURVE",
"220 17 LINE",
"229 5 OFFCURVE",
"286 -15 OFFCURVE",
"358 -15 CURVE SMOOTH",
"466 -15 OFFCURVE",
"572 31 OFFCURVE",
"590 142 CURVE SMOOTH",
"622 336 OFFCURVE",
"326 292 OFFCURVE",
"345 398 CURVE SMOOTH",
"352 437 OFFCURVE",
"406 467 OFFCURVE",
"458 505 CURVE SMOOTH",
"518 549 OFFCURVE",
"586 606 OFFCURVE",
"600 692 CURVE SMOOTH",
"620 815 OFFCURVE",
"559 880 OFFCURVE",
"396 880 CURVE SMOOTH"
);
}
);
width = 645;
},
{
anchors = (
{
name = bottom;
position = "{323, 0}";
},
{
name = top;
position = "{413, 513}";
}
);
background = {
paths = (
{
closed = 1;
nodes = (
"293 880 OFFCURVE",
"164 823 OFFCURVE",
"132 645 CURVE SMOOTH",
"-30 -260 LINE",
"144 -260 LINE",
"299 628 LINE SMOOTH",
"309 686 OFFCURVE",
"355 741 OFFCURVE",
"429 741 CURVE SMOOTH",
"518 741 OFFCURVE",
"546 709 OFFCURVE",
"537 657 CURVE SMOOTH",
"522 569 OFFCURVE",
"339 498 OFFCURVE",
"319 386 CURVE SMOOTH",
"280 173 OFFCURVE",
"528 219 OFFCURVE",
"516 148 CURVE SMOOTH",
"512 125 OFFCURVE",
"473 119 OFFCURVE",
"437 119 CURVE SMOOTH",
"391 119 OFFCURVE",
"339 133 OFFCURVE",
"289 156 CURVE",
"267 16 LINE",
"306 1 OFFCURVE",
"364 -14 OFFCURVE",
"431 -14 CURVE SMOOTH",
"540 -14 OFFCURVE",
"666 17 OFFCURVE",
"690 156 CURVE SMOOTH",
"721 335 OFFCURVE",
"469 306 OFFCURVE",
"481 373 CURVE SMOOTH",
"485 395 OFFCURVE",
"514 417 OFFCURVE",
"550 446 CURVE SMOOTH",
"611 495 OFFCURVE",
"694 558 OFFCURVE",
"711 660 CURVE SMOOTH",
"735 803 OFFCURVE",
"641 880 OFFCURVE",
"460 880 CURVE SMOOTH"
);
}
);
};
guideLines = (
{
angle = 80;
position = "{530, 513}";
}
);
layerId = "6F85D940-A117-47EE-950D-70F837F8C9CE";
paths = (
{
closed = 1;
nodes = (
"293 880 OFFCURVE",
"164 823 OFFCURVE",
"132 645 CURVE SMOOTH",
"-30 -260 LINE",
"144 -260 LINE",
"299 628 LINE SMOOTH",
"309 686 OFFCURVE",
"358 741 OFFCURVE",
"432 741 CURVE SMOOTH",
"521 741 OFFCURVE",
"548 711 OFFCURVE",
"539 659 CURVE SMOOTH",
"532 619 OFFCURVE",
"493 586 OFFCURVE",
"447 548 CURVE SMOOTH",
"392 502 OFFCURVE",
"332 452 OFFCURVE",
"321 391 CURVE SMOOTH",
"283 178 OFFCURVE",
"528 219 OFFCURVE",
"516 148 CURVE SMOOTH",
"512 125 OFFCURVE",
"473 119 OFFCURVE",
"437 119 CURVE SMOOTH",
"391 119 OFFCURVE",
"339 133 OFFCURVE",
"289 156 CURVE",
"267 16 LINE",
"306 1 OFFCURVE",
"364 -14 OFFCURVE",
"431 -14 CURVE SMOOTH",
"540 -14 OFFCURVE",
"667 17 OFFCURVE",
"690 156 CURVE SMOOTH",
"720 335 OFFCURVE",
"495 305 OFFCURVE",
"483 373 CURVE SMOOTH",
"478 402 OFFCURVE",
"533 435 OFFCURVE",
"591 484 CURVE SMOOTH",
"644 529 OFFCURVE",
"697 581 OFFCURVE",
"711 660 CURVE SMOOTH",
"737 802 OFFCURVE",
"641 880 OFFCURVE",
"460 880 CURVE SMOOTH"
);
}
);
width = 735;
}
);
leftKerningGroup = i;
leftMetricsKey = l;
rightKerningGroup = s;
rightMetricsKey = s;
unicode = 00DF;
},
{
color = 1;
glyphname = t;
lastChange = "2018-06-18 13:17:57 +0000";
layers = (
{
anchors = (
{
name = bottom;
position = "{156, 0}";
},
{
name = center;
position = "{201, 257}";
},
{
name = top;
position = "{246, 513}";
},
{
name = topright;
position = "{426, 513}";
}
);
background = {
components = (
{
name = e;
transform = "{1, 0, 0, 1, -160, 0}";
}
);
};
guideLines = (
{
position = "{76, -9}";
}
);
layerId = "6F85D940-A117-47EE-950D-70F837F8C9CE";
paths = (
{
closed = 1;
nodes = (
"30 378 LINE",
"104 378 LINE",
"69 192 LINE SMOOTH",
"52 101 OFFCURVE",
"51 -9 OFFCURVE",
"195 -9 CURVE SMOOTH",
"247 -9 OFFCURVE",
"291 1 OFFCURVE",
"327 12 CURVE",
"347 153 LINE",
"305 140 OFFCURVE",
"274 133 OFFCURVE",
"257 139 CURVE SMOOTH",
"240 144 OFFCURVE",
"234 162 OFFCURVE",
"241 196 CURVE SMOOTH",
"274 378 LINE",
"382 378 LINE",
"405 513 LINE",
"297 513 LINE",
"331 704 LINE",
"167 704 LINE",
"134 513 LINE",
"54 513 LINE"
);
}
);
width = 401;
},
{
anchors = (
{
name = bottom;
position = "{118, 0}";
},
{
name = center;
position = "{163, 257}";
},
{
name = top;
position = "{208, 513}";
},
{
name = topright;
position = "{350, 513}";
}
);
guideLines = (
{
position = "{771, 90}";
},
{
position = "{310, -14}";
}
);
layerId = "7984B694-437B-44C7-A8AE-41A7C9CC5720";
paths = (
{
closed = 1;
nodes = (
"45 456 LINE",
"131 456 LINE",
"75 127 LINE SMOOTH",
"60 38 OFFCURVE",
"92 -8 OFFCURVE",
"168 -8 CURVE SMOOTH",
"199 -8 OFFCURVE",
"234 1 OFFCURVE",
"255 16 CURVE",
"265 75 LINE",
"219 55 OFFCURVE",
"181 41 OFFCURVE",
"153 61 CURVE SMOOTH",
"139 71 OFFCURVE",
"137 95 OFFCURVE",
"144 135 CURVE SMOOTH",
"198 456 LINE",
"336 456 LINE",
"346 513 LINE",
"209 513 LINE",
"242 704 LINE",
"178 704 LINE",
"145 513 LINE",
"55 513 LINE"
);
}
);
width = 325;
}
);
leftKerningGroup = f;
rightKerningGroup = t;
unicode = 0074;
},
{
color = 1;
glyphname = tbar;
lastChange = "2018-06-18 12:43:06 +0000";
layers = (
{
components = (
{
name = t;
}
);
layerId = "6F85D940-A117-47EE-950D-70F837F8C9CE";
paths = (
{
closed = 1;
nodes = (
"2 208 LINE",
"356 208 LINE",
"373 327 LINE",
"19 327 LINE"
);
}
);
width = 400;
},
{
components = (
{
name = t;
transform = "{1, 0, 0, 1, -1, 0}";
}
);
layerId = "7984B694-437B-44C7-A8AE-41A7C9CC5720";
paths = (
{
closed = 1;
nodes = (
"14 282 LINE",
"300 282 LINE",
"310 339 LINE",
"24 339 LINE"
);
}
);
width = 337;
}
);
leftKerningGroup = f;
rightKerningGroup = t;
unicode = 0167;
},
{
color = 1;
glyphname = tcommaaccent;
lastChange = "2018-06-16 16:11:51 +0000";
layers = (
{
components = (
{
name = t;
}
);
layerId = "6F85D940-A117-47EE-950D-70F837F8C9CE";
paths = (
{
closed = 1;
nodes = (
"109 -36 OFFCURVE",
"76 -71 OFFCURVE",
"70 -107 CURVE SMOOTH",
"64 -144 OFFCURVE",
"95 -179 OFFCURVE",
"140 -179 CURVE",
"125 -203 OFFCURVE",
"98 -218 OFFCURVE",
"61 -237 CURVE",
"98 -281 LINE",
"158 -263 OFFCURVE",
"242 -202 OFFCURVE",
"252 -139 CURVE SMOOTH",
"262 -78 OFFCURVE",
"229 -36 OFFCURVE",
"168 -36 CURVE SMOOTH"
);
}
);
width = 401;
},
{
components = (
{
alignment = -1;
name = t;
}
);
layerId = "7984B694-437B-44C7-A8AE-41A7C9CC5720";
paths = (
{
closed = 1;
nodes = (
"88 -54 OFFCURVE",
"56 -83 OFFCURVE",
"49 -118 CURVE SMOOTH",
"42 -152 OFFCURVE",
"76 -183 OFFCURVE",
"117 -174 CURVE",
"89 -213 OFFCURVE",
"31 -245 OFFCURVE",
"31 -245 CURVE",
"61 -270 LINE",
"105 -247 OFFCURVE",
"170 -196 OFFCURVE",
"182 -128 CURVE SMOOTH",
"189 -87 OFFCURVE",
"163 -54 OFFCURVE",
"122 -54 CURVE SMOOTH"
);
}
);
width = 308;
}
);
leftKerningGroup = f;
rightKerningGroup = t;
unicode = 021B;
},
{
color = 1;
glyphname = u;
lastChange = "2018-08-18 14:45:46 +0000";
layers = (
{
associatedMasterId = "7984B694-437B-44C7-A8AE-41A7C9CC5720";
components = (
{
alignment = -1;
name = n;
transform = "{-1, 0, 0, -1, 546, 513}";
}
);
guideLines = (
{
angle = 80;
position = "{239, 185}";
}
);
layerId = "E0D1D593-7D1B-4A62-AB4D-BFBC1072169A";
name = "Nov 18 17, 17:54";
width = 546;
},
{
anchors = (
{
name = bottom;
position = "{230, 0}";
},
{
name = ogonek;
position = "{452, 10}";
},
{
name = top;
position = "{320, 513}";
},
{
name = topright;
position = "{575, 513}";
}
);
guideLines = (
{
angle = 80;
position = "{259, 185}";
}
);
layerId = "7984B694-437B-44C7-A8AE-41A7C9CC5720";
paths = (
{
closed = 1;
nodes = (
"170 513 LINE",
"103 513 LINE",
"59 268 LINE SMOOTH",
"29 101 OFFCURVE",
"64 -15 OFFCURVE",
"227 -15 CURVE SMOOTH",
"388 -15 OFFCURVE",
"465 99 OFFCURVE",
"493 264 CURVE SMOOTH",
"536 513 LINE",
"469 513 LINE",
"433 295 LINE SMOOTH",
"406 134 OFFCURVE",
"350 46 OFFCURVE",
"235 46 CURVE SMOOTH",
"105 46 OFFCURVE",
"103 143 OFFCURVE",
"130 293 CURVE SMOOTH"
);
}
);
width = 550;
},
{
associatedMasterId = "6F85D940-A117-47EE-950D-70F837F8C9CE";
background = {
components = (
{
name = n;
transform = "{1, 0, 0, 1, -9, 0}";
}
);
};
components = (
{
alignment = -1;
name = n;
transform = "{-1, 0, 0, -1, 647, 513}";
}
);
layerId = "9027783A-AD78-4E4A-B20C-ADFAEC8D4F92";
name = "Nov 18 17, 17:54";
width = 657;
},
{
anchors = (
{
name = bottom;
position = "{268, 0}";
},
{
name = ogonek;
position = "{520, 10}";
},
{
name = top;
position = "{358, 513}";
},
{
name = topright;
position = "{650, 513}";
}
);
background = {
components = (
{
name = n;
transform = "{1, 0, 0, 1, -11, 0}";
}
);
};
layerId = "6F85D940-A117-47EE-950D-70F837F8C9CE";
paths = (
{
closed = 1;
nodes = (
"265 513 LINE",
"89 513 LINE",
"46 273 LINE SMOOTH",
"15 101 OFFCURVE",
"80 -15 OFFCURVE",
"268 -15 CURVE SMOOTH",
"444 -15 OFFCURVE",
"550 87 OFFCURVE",
"580 259 CURVE SMOOTH",
"625 513 LINE",
"447 513 LINE",
"406 286 LINE SMOOTH",
"388 185 OFFCURVE",
"357 129 OFFCURVE",
"293 129 CURVE SMOOTH",
"232 129 OFFCURVE",
"205 171 OFFCURVE",
"223 272 CURVE SMOOTH"
);
}
);
width = 625;
}
);
leftKerningGroup = u;
rightKerningGroup = u;
unicode = 0075;
},
{
color = 1;
glyphname = v;
lastChange = "2018-06-18 13:17:57 +0000";
layers = (
{
anchors = (
{
name = bottom;
position = "{271, 0}";
},
{
name = top;
position = "{361, 513}";
}
);
background = {
components = (
{
name = u;
transform = "{1, 0, 0, 1, 7, 0}";
}
);
};
guideLines = (
{
angle = 80;
position = "{293, 75}";
}
);
layerId = "6F85D940-A117-47EE-950D-70F837F8C9CE";
paths = (
{
closed = 1;
nodes = (
"162 378 LINE",
"99 318 OFFCURVE",
"67 262 OFFCURVE",
"56 200 CURVE SMOOTH",
"35 81 OFFCURVE",
"97 -14 OFFCURVE",
"274 -14 CURVE SMOOTH",
"485 -14 OFFCURVE",
"570 122 OFFCURVE",
"601 304 CURVE SMOOTH",
"612 368 OFFCURVE",
"616 439 OFFCURVE",
"610 513 CURVE",
"436 513 LINE",
"442 444 OFFCURVE",
"440 366 OFFCURVE",
"429 301 CURVE SMOOTH",
"413 206 OFFCURVE",
"375 126 OFFCURVE",
"297 126 CURVE SMOOTH",
"208 126 OFFCURVE",
"206 207 OFFCURVE",
"267 327 CURVE SMOOTH",
"359 513 LINE",
"60 513 LINE",
"38 378 LINE"
);
}
);
width = 632;
},
{
associatedMasterId = "7984B694-437B-44C7-A8AE-41A7C9CC5720";
background = {
components = (
{
name = u;
transform = "{1, 0, 0, 1, -7, 0}";
}
);
guideLines = (
{
position = "{197, 228}";
}
);
};
guideLines = (
{
angle = 80;
position = "{224, 195}";
}
);
layerId = "06E70AD4-AD0B-4CE6-878E-CB57BA685BBA";
name = "Mar 3 18, 14:13";
paths = (
{
closed = 1;
nodes = (
"172 458 LINE",
"100 379 OFFCURVE",
"41 282 OFFCURVE",
"26 194 CURVE SMOOTH",
"7 82 OFFCURVE",
"54 -15 OFFCURVE",
"199 -15 CURVE SMOOTH",
"360 -15 OFFCURVE",
"451 109 OFFCURVE",
"480 278 CURVE SMOOTH",
"492 348 OFFCURVE",
"494 430 OFFCURVE",
"487 513 CURVE",
"418 513 LINE",
"429 436 OFFCURVE",
"428 357 OFFCURVE",
"415 286 CURVE SMOOTH",
"391 154 OFFCURVE",
"322 45 OFFCURVE",
"208 45 CURVE SMOOTH",
"53 45 OFFCURVE",
"69 209 OFFCURVE",
"178 381 CURVE SMOOTH",
"262 513 LINE",
"42 513 LINE",
"32 458 LINE"
);
}
);
width = 511;
},
{
anchors = (
{
name = bottom;
position = "{225, 0}";
},
{
name = top;
position = "{315, 513}";
}
);
background = {
components = (
{
name = y;
transform = "{1, 0, 0, 1, 24, 0}";
}
);
guideLines = (
{
position = "{221, 228}";
}
);
};
guideLines = (
{
angle = 80;
position = "{248, 195}";
}
);
layerId = "7984B694-437B-44C7-A8AE-41A7C9CC5720";
paths = (
{
closed = 1;
nodes = (
"188 458 LINE",
"129 379 OFFCURVE",
"68 282 OFFCURVE",
"53 194 CURVE SMOOTH",
"34 82 OFFCURVE",
"81 -16 OFFCURVE",
"223 -16 CURVE SMOOTH",
"384 -16 OFFCURVE",
"475 109 OFFCURVE",
"504 278 CURVE SMOOTH",
"516 348 OFFCURVE",
"518 430 OFFCURVE",
"511 513 CURVE",
"442 513 LINE",
"453 436 OFFCURVE",
"452 357 OFFCURVE",
"439 286 CURVE SMOOTH",
"415 154 OFFCURVE",
"346 44 OFFCURVE",
"232 44 CURVE SMOOTH",
"77 44 OFFCURVE",
"93 209 OFFCURVE",
"202 381 CURVE SMOOTH",
"286 513 LINE",
"66 513 LINE",
"56 458 LINE"
);
}
);
width = 540;
}
);
leftKerningGroup = v;
rightKerningGroup = v;
unicode = 0076;
},
{
color = 5;
glyphname = w;
lastChange = "2018-06-18 13:17:57 +0000";
layers = (
{
anchors = (
{
name = bottom;
position = "{426, 0}";
},
{
name = top;
position = "{516, 513}";
}
);
background = {
components = (
{
name = v;
transform = "{1, 0, 0, 1, 25, 0}";
}
);
};
layerId = "6F85D940-A117-47EE-950D-70F837F8C9CE";
paths = (
{
closed = 1;
nodes = (
"162 378 LINE",
"110 330 OFFCURVE",
"68 268 OFFCURVE",
"57 203 CURVE SMOOTH",
"32 73 OFFCURVE",
"113 -11 OFFCURVE",
"261 -11 CURVE SMOOTH",
"350 -11 OFFCURVE",
"404 25 OFFCURVE",
"443 77 CURVE",
"449 33 OFFCURVE",
"520 -11 OFFCURVE",
"616 -11 CURVE SMOOTH",
"784 -11 OFFCURVE",
"878 120 OFFCURVE",
"909 295 CURVE SMOOTH",
"921 363 OFFCURVE",
"924 437 OFFCURVE",
"918 513 CURVE",
"745 513 LINE",
"750 449 OFFCURVE",
"748 368 OFFCURVE",
"737 297 CURVE SMOOTH",
"721 194 OFFCURVE",
"684 129 OFFCURVE",
"622 129 CURVE SMOOTH",
"561 129 OFFCURVE",
"559 183 OFFCURVE",
"574 276 CURVE SMOOTH",
"612 513 LINE",
"441 513 LINE",
"401 282 LINE SMOOTH",
"384 181 OFFCURVE",
"358 129 OFFCURVE",
"294 129 CURVE SMOOTH",
"190 129 OFFCURVE",
"233 261 OFFCURVE",
"285 365 CURVE SMOOTH",
"359 513 LINE",
"60 513 LINE",
"38 378 LINE"
);
}
);
width = 941;
},
{
associatedMasterId = "7984B694-437B-44C7-A8AE-41A7C9CC5720";
background = {
components = (
{
name = a;
transform = "{1, 0, 0, 1, -17, 0}";
}
);
};
guideLines = (
{
angle = 80;
position = "{363, 319}";
}
);
layerId = "0554ECBF-558C-489C-AF7A-0CF6E88A1481";
name = "Mar 3 18, 14:13";
paths = (
{
closed = 1;
nodes = (
"172 458 LINE",
"93 369 OFFCURVE",
"41 279 OFFCURVE",
"26 194 CURVE SMOOTH",
"5 76 OFFCURVE",
"55 -13 OFFCURVE",
"181 -13 CURVE SMOOTH",
"286 -13 OFFCURVE",
"358 52 OFFCURVE",
"379 131 CURVE",
"369 43 OFFCURVE",
"419 -14 OFFCURVE",
"512 -14 CURVE SMOOTH",
"630 -14 OFFCURVE",
"722 78 OFFCURVE",
"758 280 CURVE SMOOTH",
"772 360 OFFCURVE",
"774 433 OFFCURVE",
"765 513 CURVE",
"697 513 LINE",
"709 442 OFFCURVE",
"708 359 OFFCURVE",
"695 283 CURVE SMOOTH",
"674 159 OFFCURVE",
"619 45 OFFCURVE",
"517 45 CURVE SMOOTH",
"441 45 OFFCURVE",
"410 108 OFFCURVE",
"429 223 CURVE SMOOTH",
"477 513 LINE",
"409 513 LINE",
"360 225 LINE SMOOTH",
"342 121 OFFCURVE",
"279 45 OFFCURVE",
"191 45 CURVE SMOOTH",
"57 45 OFFCURVE",
"69 210 OFFCURVE",
"178 381 CURVE SMOOTH",
"262 513 LINE",
"42 513 LINE",
"32 458 LINE"
);
}
);
width = 789;
},
{
anchors = (
{
name = bottom;
position = "{364, 0}";
},
{
name = top;
position = "{454, 513}";
}
);
background = {
components = (
{
name = v;
transform = "{1, 0, 0, 1, 24, 0}";
}
);
};
guideLines = (
{
angle = 80;
position = "{387, 319}";
}
);
layerId = "7984B694-437B-44C7-A8AE-41A7C9CC5720";
paths = (
{
closed = 1;
nodes = (
"188 458 LINE",
"122 369 OFFCURVE",
"68 279 OFFCURVE",
"53 194 CURVE SMOOTH",
"32 76 OFFCURVE",
"82 -13 OFFCURVE",
"205 -13 CURVE SMOOTH",
"310 -13 OFFCURVE",
"382 52 OFFCURVE",
"403 131 CURVE",
"393 43 OFFCURVE",
"443 -14 OFFCURVE",
"536 -14 CURVE SMOOTH",
"654 -14 OFFCURVE",
"746 78 OFFCURVE",
"782 280 CURVE SMOOTH",
"796 360 OFFCURVE",
"798 433 OFFCURVE",
"789 513 CURVE",
"721 513 LINE",
"733 442 OFFCURVE",
"732 359 OFFCURVE",
"719 283 CURVE SMOOTH",
"698 159 OFFCURVE",
"643 47 OFFCURVE",
"541 47 CURVE SMOOTH",
"465 47 OFFCURVE",
"434 108 OFFCURVE",
"453 223 CURVE SMOOTH",
"501 513 LINE",
"433 513 LINE",
"384 225 LINE SMOOTH",
"366 121 OFFCURVE",
"303 45 OFFCURVE",
"215 45 CURVE SMOOTH",
"81 45 OFFCURVE",
"93 210 OFFCURVE",
"202 381 CURVE SMOOTH",
"286 513 LINE",
"66 513 LINE",
"56 458 LINE"
);
}
);
width = 818;
}
);
leftKerningGroup = v;
leftMetricsKey = v;
note = " ";
rightKerningGroup = v;
rightMetricsKey = v;
unicode = 0077;
},
{
color = 1;
glyphname = x;
lastChange = "2018-06-18 13:17:57 +0000";
layers = (
{
anchors = (
{
name = bottom;
position = "{216, 0}";
},
{
name = top;
position = "{306, 513}";
}
);
layerId = "7984B694-437B-44C7-A8AE-41A7C9CC5720";
paths = (
{
closed = 1;
nodes = (
"538 513 LINE",
"455 513 LINE",
"271 319 LINE",
"157 513 LINE",
"76 513 LINE",
"221 268 LINE",
"-46 0 LINE",
"44 0 LINE",
"257 220 LINE",
"390 0 LINE",
"478 0 LINE",
"307 268 LINE"
);
}
);
width = 522;
},
{
anchors = (
{
name = bottom;
position = "{247, 0}";
},
{
name = top;
position = "{337, 513}";
}
);
layerId = "6F85D940-A117-47EE-950D-70F837F8C9CE";
paths = (
{
closed = 1;
nodes = (
"622 513 LINE",
"420 513 LINE",
"311 382 LINE",
"242 513 LINE",
"52 513 LINE",
"195 268 LINE",
"-64 0 LINE",
"155 0 LINE",
"281 142 LINE",
"361 0 LINE",
"558 0 LINE",
"395 265 LINE"
);
}
);
width = 584;
}
);
leftKerningGroup = z;
rightKerningGroup = c;
unicode = 0078;
},
{
color = 5;
glyphname = y;
lastChange = "2018-06-18 13:17:57 +0000";
layers = (
{
anchors = (
{
name = bottom;
position = "{285, 0}";
},
{
name = top;
position = "{375, 513}";
}
);
background = {
components = (
{
name = u;
transform = "{1, 0, 0, 1, 13, 0}";
}
);
};
guideLines = (
{
alignment = right;
angle = 80;
position = "{169, 202}";
}
);
layerId = "6F85D940-A117-47EE-950D-70F837F8C9CE";
paths = (
{
closed = 1;
nodes = (
"38 378 LINE",
"162 378 LINE",
"98 318 OFFCURVE",
"65 260 OFFCURVE",
"54 195 CURVE SMOOTH",
"31 60 OFFCURVE",
"125 -18 OFFCURVE",
"230 -13 CURVE SMOOTH",
"297 -10 OFFCURVE",
"354 14 OFFCURVE",
"397 119 CURVE",
"382 30 LINE",
"364 -82 OFFCURVE",
"307 -118 OFFCURVE",
"220 -125 CURVE SMOOTH",
"169 -129 OFFCURVE",
"76 -117 OFFCURVE",
"17 -80 CURVE",
"-8 -232 LINE",
"35 -258 OFFCURVE",
"104 -275 OFFCURVE",
"208 -275 CURVE SMOOTH",
"362 -275 OFFCURVE",
"515 -192 OFFCURVE",
"548 3 CURVE SMOOTH",
"635 513 LINE",
"462 513 LINE",
"431 341 LINE SMOOTH",
"409 217 OFFCURVE",
"350 129 OFFCURVE",
"290 129 CURVE SMOOTH",
"208 129 OFFCURVE",
"216 223 OFFCURVE",
"269 331 CURVE SMOOTH",
"359 513 LINE",
"60 513 LINE"
);
}
);
width = 660;
},
{
anchors = (
{
name = bottom;
position = "{237, 0}";
},
{
name = top;
position = "{327, 513}";
}
);
background = {
components = (
{
name = v;
transform = "{1, 0, 0, 1, 24, 0}";
}
);
};
guideLines = (
{
angle = 80;
position = "{518, 54}";
}
);
layerId = "7984B694-437B-44C7-A8AE-41A7C9CC5720";
paths = (
{
closed = 1;
nodes = (
"56 458 LINE",
"190 458 LINE",
"123 374 OFFCURVE",
"66 283 OFFCURVE",
"50 194 CURVE SMOOTH",
"30 85 OFFCURVE",
"75 -14 OFFCURVE",
"223 -14 CURVE SMOOTH",
"326 -14 OFFCURVE",
"383 43 OFFCURVE",
"423 131 CURVE",
"396 -3 LINE SMOOTH",
"376 -100 OFFCURVE",
"339 -160 OFFCURVE",
"258 -193 CURVE SMOOTH",
"185 -224 OFFCURVE",
"88 -212 OFFCURVE",
"13 -174 CURVE",
"2 -241 LINE",
"94 -280 OFFCURVE",
"194 -285 OFFCURVE",
"285 -251 CURVE SMOOTH",
"378 -213 OFFCURVE",
"440 -133 OFFCURVE",
"463 -1 CURVE SMOOTH",
"554 513 LINE",
"482 513 LINE",
"449 323 LINE SMOOTH",
"424 177 OFFCURVE",
"343 45 OFFCURVE",
"234 45 CURVE SMOOTH",
"73 45 OFFCURVE",
"95 214 OFFCURVE",
"202 381 CURVE SMOOTH",
"286 513 LINE",
"66 513 LINE"
);
}
);
width = 564;
},
{
associatedMasterId = "7984B694-437B-44C7-A8AE-41A7C9CC5720";
background = {
components = (
{
name = v;
}
);
};
guideLines = (
{
angle = 80;
position = "{494, 54}";
}
);
layerId = "6D82E241-98D1-46CF-BD0E-FBBA98116057";
name = "Mar 3 18, 14:14";
paths = (
{
closed = 1;
nodes = (
"32 458 LINE",
"172 458 LINE",
"96 373 OFFCURVE",
"42 283 OFFCURVE",
"26 194 CURVE SMOOTH",
"6 85 OFFCURVE",
"51 -14 OFFCURVE",
"199 -14 CURVE SMOOTH",
"302 -14 OFFCURVE",
"359 43 OFFCURVE",
"399 131 CURVE",
"372 -3 LINE SMOOTH",
"352 -100 OFFCURVE",
"315 -160 OFFCURVE",
"234 -193 CURVE SMOOTH",
"161 -224 OFFCURVE",
"64 -212 OFFCURVE",
"-11 -174 CURVE",
"-22 -241 LINE",
"70 -280 OFFCURVE",
"170 -285 OFFCURVE",
"261 -251 CURVE SMOOTH",
"354 -213 OFFCURVE",
"416 -133 OFFCURVE",
"439 -1 CURVE SMOOTH",
"530 513 LINE",
"458 513 LINE",
"425 323 LINE SMOOTH",
"400 177 OFFCURVE",
"319 45 OFFCURVE",
"210 45 CURVE SMOOTH",
"49 45 OFFCURVE",
"71 214 OFFCURVE",
"178 381 CURVE SMOOTH",
"262 513 LINE",
"42 513 LINE"
);
}
);
width = 543;
}
);
leftKerningGroup = v;
leftMetricsKey = v;
rightKerningGroup = j;
rightMetricsKey = g;
unicode = 0079;
},
{
color = 1;
glyphname = z;
lastChange = "2018-06-09 14:11:23 +0000";
layers = (
{
anchors = (
{
name = bottom;
position = "{204, 0}";
},
{
name = top;
position = "{294, 513}";
}
);
layerId = "7984B694-437B-44C7-A8AE-41A7C9CC5720";
paths = (
{
closed = 1;
nodes = (
"85 513 LINE",
"76 455 LINE",
"382 455 LINE",
"-14 38 LINE",
"22 -4 LINE",
"90 57 LINE",
"172 26 LINE SMOOTH",
"250 -4 OFFCURVE",
"283 -11 OFFCURVE",
"320 -11 CURVE SMOOTH",
"356 -11 OFFCURVE",
"390 0 OFFCURVE",
"414 23 CURVE SMOOTH",
"439 47 OFFCURVE",
"453 82 OFFCURVE",
"456 126 CURVE",
"393 128 LINE",
"388 76 OFFCURVE",
"366 53 OFFCURVE",
"327 53 CURVE SMOOTH",
"303 53 OFFCURVE",
"269 59 OFFCURVE",
"201 82 CURVE SMOOTH",
"134 105 LINE",
"504 513 LINE"
);
}
);
width = 501;
},
{
anchors = (
{
name = bottom;
position = "{241, 0}";
},
{
name = top;
position = "{331, 513}";
}
);
layerId = "6F85D940-A117-47EE-950D-70F837F8C9CE";
paths = (
{
closed = 1;
nodes = (
"83 513 LINE",
"60 378 LINE",
"274 378 LINE",
"-24 81 LINE",
"70 -13 LINE",
"145 42 LINE",
"245 6 LINE SMOOTH",
"292 -11 OFFCURVE",
"339 -19 OFFCURVE",
"381 -15 CURVE SMOOTH",
"453 -8 OFFCURVE",
"495 12 OFFCURVE",
"522 78 CURVE SMOOTH",
"535 110 OFFCURVE",
"541 148 OFFCURVE",
"547 192 CURVE",
"395 192 LINE",
"390 158 OFFCURVE",
"381 137 OFFCURVE",
"365 129 CURVE SMOOTH",
"353 123 OFFCURVE",
"338 122 OFFCURVE",
"317 128 CURVE SMOOTH",
"246 148 LINE",
"587 513 LINE"
);
}
);
width = 574;
}
);
leftKerningGroup = z;
rightKerningGroup = c;
unicode = 007A;
},
{
glyphname = v.ss01;
lastChange = "2018-06-18 13:17:57 +0000";
layers = (
{
anchors = (
{
name = bottom;
position = "{219, 0}";
},
{
name = top;
position = "{309, 513}";
}
);
layerId = "7984B694-437B-44C7-A8AE-41A7C9CC5720";
paths = (
{
closed = 1;
nodes = (
"180 0 LINE",
"240 0 LINE",
"565 513 LINE",
"484 513 LINE",
"224 82 LINE",
"108 513 LINE",
"35 513 LINE"
);
}
);
width = 528;
},
{
anchors = (
{
name = bottom;
position = "{258, 0}";
},
{
name = top;
position = "{348, 513}";
}
);
layerId = "6F85D940-A117-47EE-950D-70F837F8C9CE";
paths = (
{
closed = 1;
nodes = (
"190 0 LINE",
"310 0 LINE",
"675 513 LINE",
"465 513 LINE",
"291 234 LINE",
"215 513 LINE",
"5 513 LINE"
);
}
);
width = 605;
}
);
leftKerningGroup = v1;
rightKerningGroup = v1;
},
{
glyphname = w.ss01;
lastChange = "2018-06-18 13:17:57 +0000";
layers = (
{
anchors = (
{
name = bottom;
position = "{300, 0}";
},
{
name = top;
position = "{390, 513}";
}
);
layerId = "7984B694-437B-44C7-A8AE-41A7C9CC5720";
paths = (
{
closed = 1;
nodes = (
"420 0 LINE",
"476 0 LINE",
"724 513 LINE",
"651 513 LINE",
"460 100 LINE",
"403 513 LINE",
"346 513 LINE",
"152 100 LINE",
"107 513 LINE",
"36 513 LINE",
"104 0 LINE",
"164 0 LINE",
"356 395 LINE"
);
}
);
width = 689;
},
{
anchors = (
{
name = bottom;
position = "{386, 0}";
},
{
name = top;
position = "{476, 513}";
}
);
layerId = "6F85D940-A117-47EE-950D-70F837F8C9CE";
paths = (
{
closed = 1;
nodes = (
"516 0 LINE",
"636 0 LINE",
"931 513 LINE",
"737 513 LINE",
"598 224 LINE",
"527 513 LINE",
"405 513 LINE",
"248 224 LINE",
"199 513 LINE",
"5 513 LINE",
"120 0 LINE",
"240 0 LINE",
"427 265 LINE"
);
}
);
width = 861;
}
);
leftKerningGroup = v1;
rightKerningGroup = v1;
},
{
glyphname = y.ss01;
lastChange = "2018-06-18 13:17:57 +0000";
layers = (
{
anchors = (
{
name = bottom;
position = "{205, 0}";
},
{
name = top;
position = "{295, 513}";
}
);
background = {
components = (
{
name = v.ss01;
}
);
};
layerId = "7984B694-437B-44C7-A8AE-41A7C9CC5720";
paths = (
{
closed = 1;
nodes = (
"104 513 LINE",
"30 513 LINE",
"169 -3 LINE",
"109 -120 OFFCURVE",
"33 -208 OFFCURVE",
"-55 -199 CURVE",
"-65 -263 LINE",
"70 -280 OFFCURVE",
"167 -134 OFFCURVE",
"254 17 CURVE SMOOTH",
"540 513 LINE",
"460 513 LINE",
"212 67 LINE"
);
}
);
width = 499;
},
{
anchors = (
{
name = bottom;
position = "{239, 0}";
},
{
name = top;
position = "{329, 513}";
}
);
background = {
components = (
{
name = w.ss01;
transform = "{1, 0, 0, 1, -294, 0}";
}
);
};
guideLines = (
{
position = "{-633, -259}";
}
);
layerId = "6F85D940-A117-47EE-950D-70F837F8C9CE";
paths = (
{
closed = 1;
nodes = (
"194 513 LINE",
"5 513 LINE",
"162 -6 LINE",
"118 -92 OFFCURVE",
"45 -122 OFFCURVE",
"-55 -105 CURVE",
"-83 -258 LINE",
"137 -298 OFFCURVE",
"241 -207 OFFCURVE",
"399 80 CURVE SMOOTH",
"637 513 LINE",
"438 513 LINE",
"275 173 LINE"
);
}
);
width = 567;
},
{
associatedMasterId = "7984B694-437B-44C7-A8AE-41A7C9CC5720";
background = {
components = (
{
name = v.ss01;
}
);
};
layerId = "A5E97B7D-5AFE-49ED-B60C-E528151CCDD8";
name = "Mar 3 18, 14:05";
paths = (
{
closed = 1;
nodes = (
"104 513 LINE",
"30 513 LINE",
"169 -3 LINE",
"109 -120 OFFCURVE",
"33 -208 OFFCURVE",
"-55 -199 CURVE",
"-65 -263 LINE",
"70 -280 OFFCURVE",
"167 -134 OFFCURVE",
"254 17 CURVE SMOOTH",
"540 513 LINE",
"460 513 LINE",
"212 67 LINE"
);
}
);
width = 490;
}
);
leftKerningGroup = v1;
rightKerningGroup = v1;
},
{
color = 3;
glyphname = f_f;
lastChange = "2018-06-10 13:16:39 +0000";
layers = (
{
background = {
paths = (
{
closed = 1;
nodes = (
"25 378 LINE",
"109 378 LINE",
"-4 -264 LINE",
"174 -264 LINE",
"287 378 LINE",
"395 378 LINE",
"418 513 LINE",
"310 513 LINE",
"330 624 LINE SMOOTH",
"343 695 OFFCURVE",
"382 718 OFFCURVE",
"411 718 CURVE SMOOTH",
"430 718 OFFCURVE",
"454 718 OFFCURVE",
"463 717 CURVE",
"490 870 LINE",
"468 873 OFFCURVE",
"446 875 OFFCURVE",
"424 875 CURVE SMOOTH",
"280 875 OFFCURVE",
"180 784 OFFCURVE",
"156 645 CURVE SMOOTH",
"133 513 LINE",
"49 513 LINE"
);
}
);
};
layerId = "6F85D940-A117-47EE-950D-70F837F8C9CE";
paths = (
{
closed = 1;
nodes = (
"113 378 LINE",
"47 0 LINE",
"220 0 LINE",
"286 378 LINE",
"467 378 LINE",
"355 -260 LINE",
"528 -260 LINE",
"640 378 LINE",
"748 378 LINE",
"771 513 LINE",
"663 513 LINE",
"683 624 LINE SMOOTH",
"691 669 OFFCURVE",
"705 699 OFFCURVE",
"728 714 CURVE SMOOTH",
"748 727 OFFCURVE",
"776 729 OFFCURVE",
"816 718 CURVE",
"843 870 LINE",
"821 873 OFFCURVE",
"799 875 OFFCURVE",
"777 875 CURVE SMOOTH",
"633 875 OFFCURVE",
"540 784 OFFCURVE",
"516 645 CURVE SMOOTH",
"493 513 LINE",
"309 513 LINE",
"329 624 LINE SMOOTH",
"337 669 OFFCURVE",
"351 699 OFFCURVE",
"374 714 CURVE SMOOTH",
"394 727 OFFCURVE",
"422 729 OFFCURVE",
"462 718 CURVE",
"489 870 LINE",
"467 873 OFFCURVE",
"445 875 OFFCURVE",
"423 875 CURVE SMOOTH",
"279 875 OFFCURVE",
"186 784 OFFCURVE",
"162 645 CURVE SMOOTH",
"139 513 LINE",
"51 513 LINE",
"27 378 LINE"
);
}
);
width = 723;
},
{
background = {
components = (
{
name = f;
}
);
};
layerId = "7984B694-437B-44C7-A8AE-41A7C9CC5720";
paths = (
{
closed = 1;
nodes = (
"150 455 LINE",
"69 -5 LINE",
"136 -5 LINE",
"217 455 LINE",
"439 456 LINE",
"314 -260 LINE",
"381 -260 LINE",
"506 456 LINE",
"657 456 LINE",
"667 513 LINE",
"516 513 LINE",
"534 615 LINE SMOOTH",
"554 732 OFFCURVE",
"590 816 OFFCURVE",
"679 816 CURVE SMOOTH",
"694 816 OFFCURVE",
"712 814 OFFCURVE",
"732 811 CURVE",
"742 871 LINE",
"728 874 OFFCURVE",
"710 876 OFFCURVE",
"690 876 CURVE SMOOTH",
"566 876 OFFCURVE",
"495 776 OFFCURVE",
"472 644 CURVE SMOOTH",
"449 513 LINE",
"228 513 LINE",
"246 615 LINE SMOOTH",
"277 787 OFFCURVE",
"336 816 OFFCURVE",
"388 816 CURVE SMOOTH",
"416 816 OFFCURVE",
"426 815 OFFCURVE",
"445 811 CURVE",
"455 871 LINE",
"444 873 OFFCURVE",
"430 876 OFFCURVE",
"398 876 CURVE SMOOTH",
"308 876 OFFCURVE",
"216 812 OFFCURVE",
"185 644 CURVE SMOOTH",
"161 513 LINE",
"47 513 LINE",
"36 455 LINE"
);
}
);
width = 622;
}
);
leftKerningGroup = f;
leftMetricsKey = f;
rightKerningGroup = f;
rightMetricsKey = f;
unicode = FB00;
},
{
color = 3;
glyphname = f_f_i;
lastChange = "2018-06-10 13:17:42 +0000";
layers = (
{
layerId = "6F85D940-A117-47EE-950D-70F837F8C9CE";
paths = (
{
closed = 1;
nodes = (
"111 378 LINE",
"44 0 LINE",
"222 0 LINE",
"289 378 LINE",
"469 378 LINE",
"356 -264 LINE",
"534 -264 LINE",
"647 378 LINE",
"810 378 LINE",
"744 0 LINE",
"921 0 LINE",
"1011 513 LINE",
"670 513 LINE",
"690 624 LINE SMOOTH",
"703 695 OFFCURVE",
"742 713 OFFCURVE",
"771 718 CURVE SMOOTH",
"810 725 OFFCURVE",
"849 715 OFFCURVE",
"895 673 CURVE",
"977 792 LINE",
"960 825 OFFCURVE",
"892 880 OFFCURVE",
"773 875 CURVE SMOOTH",
"657 870 OFFCURVE",
"542 795 OFFCURVE",
"516 645 CURVE SMOOTH",
"493 513 LINE",
"312 513 LINE",
"332 624 LINE SMOOTH",
"345 695 OFFCURVE",
"384 718 OFFCURVE",
"413 718 CURVE SMOOTH",
"432 718 OFFCURVE",
"456 718 OFFCURVE",
"465 718 CURVE",
"492 870 LINE",
"477 872 OFFCURVE",
"454 875 OFFCURVE",
"427 875 CURVE SMOOTH",
"285 875 OFFCURVE",
"183 786 OFFCURVE",
"158 645 CURVE SMOOTH",
"135 513 LINE",
"51 513 LINE",
"27 378 LINE"
);
}
);
width = 1009;
},
{
background = {
components = (
{
name = i;
transform = "{1, 0, 0, 1, 636, 0}";
}
);
};
layerId = "7984B694-437B-44C7-A8AE-41A7C9CC5720";
paths = (
{
closed = 1;
nodes = (
"150 455 LINE",
"70 -2 LINE",
"137 -2 LINE",
"217 455 LINE",
"439 456 LINE",
"314 -260 LINE",
"381 -260 LINE",
"506 456 LINE",
"730 456 LINE",
"650 0 LINE",
"717 0 LINE",
"807 513 LINE",
"516 513 LINE",
"534 615 LINE SMOOTH",
"554 732 OFFCURVE",
"594 819 OFFCURVE",
"683 819 CURVE SMOOTH",
"734 819 OFFCURVE",
"763 793 OFFCURVE",
"779 755 CURVE",
"826 796 LINE",
"812 827 OFFCURVE",
"770 876 OFFCURVE",
"690 876 CURVE SMOOTH",
"566 876 OFFCURVE",
"495 776 OFFCURVE",
"472 644 CURVE SMOOTH",
"449 513 LINE",
"228 513 LINE",
"246 615 LINE SMOOTH",
"277 787 OFFCURVE",
"336 816 OFFCURVE",
"388 816 CURVE SMOOTH",
"416 816 OFFCURVE",
"427 815 OFFCURVE",
"446 811 CURVE",
"455 871 LINE",
"444 873 OFFCURVE",
"430 876 OFFCURVE",
"398 876 CURVE SMOOTH",
"308 876 OFFCURVE",
"216 812 OFFCURVE",
"185 644 CURVE SMOOTH",
"161 513 LINE",
"47 513 LINE",
"36 455 LINE"
);
}
);
width = 802;
}
);
leftKerningGroup = f;
leftMetricsKey = f;
rightKerningGroup = i;
rightMetricsKey = i;
unicode = FB03;
},
{
color = 3;
glyphname = f_f_j;
lastChange = "2018-06-09 14:46:22 +0000";
layers = (
{
background = {
paths = (
{
closed = 1;
nodes = (
"27 378 LINE",
"111 378 LINE",
"1 -260 LINE",
"179 -260 LINE",
"289 378 LINE",
"397 378 LINE",
"420 513 LINE",
"312 513 LINE",
"332 624 LINE SMOOTH",
"345 695 OFFCURVE",
"384 718 OFFCURVE",
"413 718 CURVE SMOOTH",
"432 718 OFFCURVE",
"456 718 OFFCURVE",
"465 717 CURVE",
"492 870 LINE",
"492 870 OFFCURVE",
"500 875 OFFCURVE",
"415 875 CURVE SMOOTH",
"299 875 OFFCURVE",
"184 795 OFFCURVE",
"158 645 CURVE SMOOTH",
"135 513 LINE",
"51 513 LINE"
);
},
{
closed = 1;
nodes = (
"586 0 LINE",
"647 378 LINE",
"755 378 LINE",
"778 513 LINE",
"670 513 LINE",
"690 624 LINE SMOOTH",
"703 695 OFFCURVE",
"742 713 OFFCURVE",
"771 718 CURVE SMOOTH",
"810 725 OFFCURVE",
"849 715 OFFCURVE",
"895 673 CURVE",
"977 792 LINE",
"960 825 OFFCURVE",
"892 880 OFFCURVE",
"773 875 CURVE SMOOTH",
"657 870 OFFCURVE",
"542 795 OFFCURVE",
"516 645 CURVE SMOOTH",
"493 513 LINE",
"409 513 LINE",
"385 378 LINE",
"469 378 LINE",
"408 0 LINE"
);
},
{
closed = 1;
nodes = (
"601 -274 OFFCURVE",
"640 -277 OFFCURVE",
"684 -275 CURVE SMOOTH",
"827 -269 OFFCURVE",
"892 -167 OFFCURVE",
"908 -76 CURVE SMOOTH",
"1012 513 LINE",
"685 513 LINE",
"661 378 LINE",
"812 378 LINE",
"738 -48 LINE SMOOTH",
"730 -96 OFFCURVE",
"708 -114 OFFCURVE",
"681 -115 CURVE SMOOTH",
"656 -116 OFFCURVE",
"612 -116 OFFCURVE",
"613 -116 CURVE",
"580 -272 LINE"
);
}
);
};
layerId = "6F85D940-A117-47EE-950D-70F837F8C9CE";
paths = (
{
closed = 1;
nodes = (
"176 -260 LINE",
"289 378 LINE",
"469 378 LINE",
"408 0 LINE",
"586 0 LINE",
"647 378 LINE",
"812 378 LINE",
"738 -48 LINE SMOOTH",
"730 -96 OFFCURVE",
"708 -114 OFFCURVE",
"681 -115 CURVE SMOOTH",
"656 -116 OFFCURVE",
"612 -116 OFFCURVE",
"613 -116 CURVE",
"580 -272 LINE",
"601 -274 OFFCURVE",
"640 -277 OFFCURVE",
"684 -275 CURVE SMOOTH",
"827 -269 OFFCURVE",
"892 -167 OFFCURVE",
"908 -76 CURVE SMOOTH",
"1012 513 LINE",
"670 513 LINE",
"690 624 LINE SMOOTH",
"703 695 OFFCURVE",
"742 713 OFFCURVE",
"771 718 CURVE SMOOTH",
"810 725 OFFCURVE",
"849 715 OFFCURVE",
"895 673 CURVE",
"977 792 LINE",
"960 825 OFFCURVE",
"892 880 OFFCURVE",
"773 875 CURVE SMOOTH",
"657 870 OFFCURVE",
"542 795 OFFCURVE",
"516 645 CURVE SMOOTH",
"493 513 LINE",
"312 513 LINE",
"332 624 LINE SMOOTH",
"345 695 OFFCURVE",
"384 718 OFFCURVE",
"413 718 CURVE SMOOTH",
"432 718 OFFCURVE",
"456 718 OFFCURVE",
"465 718 CURVE",
"492 870 LINE",
"477 872 OFFCURVE",
"454 875 OFFCURVE",
"427 875 CURVE SMOOTH",
"285 875 OFFCURVE",
"183 786 OFFCURVE",
"158 645 CURVE SMOOTH",
"135 513 LINE",
"51 513 LINE",
"27 378 LINE",
"111 378 LINE",
"-2 -260 LINE"
);
}
);
width = 1010;
},
{
layerId = "7984B694-437B-44C7-A8AE-41A7C9CC5720";
paths = (
{
closed = 1;
nodes = (
"95 -260 LINE",
"217 455 LINE",
"439 456 LINE",
"359 0 LINE",
"426 0 LINE",
"506 456 LINE",
"719 456 LINE",
"631 -47 LINE SMOOTH",
"608 -168 OFFCURVE",
"593 -214 OFFCURVE",
"518 -214 CURVE SMOOTH",
"499 -214 OFFCURVE",
"491 -214 OFFCURVE",
"465 -210 CURVE",
"452 -270 LINE",
"477 -275 OFFCURVE",
"486 -275 OFFCURVE",
"505 -275 CURVE SMOOTH",
"627 -275 OFFCURVE",
"671 -199 OFFCURVE",
"693 -74 CURVE SMOOTH",
"797 513 LINE",
"516 513 LINE",
"534 615 LINE SMOOTH",
"554 732 OFFCURVE",
"594 819 OFFCURVE",
"683 819 CURVE SMOOTH",
"734 819 OFFCURVE",
"763 793 OFFCURVE",
"779 755 CURVE",
"826 796 LINE",
"812 827 OFFCURVE",
"770 876 OFFCURVE",
"690 876 CURVE SMOOTH",
"566 876 OFFCURVE",
"495 776 OFFCURVE",
"472 644 CURVE SMOOTH",
"449 513 LINE",
"228 513 LINE",
"246 615 LINE SMOOTH",
"277 787 OFFCURVE",
"336 816 OFFCURVE",
"388 816 CURVE SMOOTH",
"416 816 OFFCURVE",
"427 815 OFFCURVE",
"446 811 CURVE",
"455 871 LINE",
"444 873 OFFCURVE",
"430 876 OFFCURVE",
"398 876 CURVE SMOOTH",
"308 876 OFFCURVE",
"216 812 OFFCURVE",
"185 644 CURVE SMOOTH",
"161 513 LINE",
"47 513 LINE",
"36 455 LINE",
"150 455 LINE",
"28 -260 LINE"
);
}
);
width = 797;
},
{
associatedMasterId = "7984B694-437B-44C7-A8AE-41A7C9CC5720";
layerId = "A4E552E4-62BE-43BB-A58F-34F0EE3B77B8";
paths = (
{
closed = 1;
nodes = (
"943 -275 OFFCURVE",
"987 -170 OFFCURVE",
"987 -79 CURVE SMOOTH",
"987 513 LINE",
"642 513 LINE",
"642 617 LINE SMOOTH",
"642 688 OFFCURVE",
"658 719 OFFCURVE",
"728 719 CURVE SMOOTH",
"781 719 OFFCURVE",
"845 667 OFFCURVE",
"845 667 CURVE",
"907 792 LINE",
"907 792 OFFCURVE",
"814 875 OFFCURVE",
"676 875 CURVE SMOOTH",
"536 875 OFFCURVE",
"466 772 OFFCURVE",
"465 622 CURVE SMOOTH",
"465 513 LINE",
"287 513 LINE",
"287 617 LINE SMOOTH",
"287 688 OFFCURVE",
"297 718 OFFCURVE",
"342 718 CURVE SMOOTH",
"371 718 OFFCURVE",
"395 704 OFFCURVE",
"395 704 CURVE",
"457 829 LINE",
"457 829 OFFCURVE",
"401 875 OFFCURVE",
"311 875 CURVE SMOOTH",
"183 875 OFFCURVE",
"111 772 OFFCURVE",
"110 622 CURVE SMOOTH",
"110 513 LINE",
"36 513 LINE",
"36 378 LINE",
"110 378 LINE",
"110 0 LINE",
"287 0 LINE",
"287 378 LINE",
"465 378 LINE",
"465 0 LINE",
"642 0 LINE",
"642 378 LINE",
"810 378 LINE",
"810 -45 LINE SMOOTH",
"810 -93 OFFCURVE",
"791 -115 OFFCURVE",
"761 -115 CURVE SMOOTH",
"739 -115 OFFCURVE",
"716 -100 OFFCURVE",
"716 -100 CURVE",
"661 -243 LINE",
"686 -254 OFFCURVE",
"718 -275 OFFCURVE",
"802 -275 CURVE SMOOTH"
);
}
);
width = 1047;
},
{
associatedMasterId = "7984B694-437B-44C7-A8AE-41A7C9CC5720";
layerId = "7B60DD57-6012-4D0F-BD38-A72A4BAC0E9D";
paths = (
{
closed = 1;
nodes = (
"756 -275 OFFCURVE",
"784 -180 OFFCURVE",
"784 -79 CURVE SMOOTH",
"784 513 LINE",
"503 513 LINE",
"503 617 LINE SMOOTH",
"503 768 OFFCURVE",
"564 813 OFFCURVE",
"611 813 CURVE SMOOTH",
"710 813 OFFCURVE",
"727 743 OFFCURVE",
"727 743 CURVE",
"763 796 LINE",
"763 796 OFFCURVE",
"725 875 OFFCURVE",
"612 875 CURVE SMOOTH",
"531 875 OFFCURVE",
"436 802 OFFCURVE",
"436 642 CURVE SMOOTH",
"436 513 LINE",
"216 513 LINE",
"216 617 LINE SMOOTH",
"216 768 OFFCURVE",
"267 813 OFFCURVE",
"314 813 CURVE SMOOTH",
"363 813 OFFCURVE",
"386 783 OFFCURVE",
"386 783 CURVE",
"412 847 LINE",
"412 847 OFFCURVE",
"378 875 OFFCURVE",
"315 875 CURVE SMOOTH",
"234 875 OFFCURVE",
"149 802 OFFCURVE",
"149 642 CURVE SMOOTH",
"149 513 LINE",
"35 513 LINE",
"35 448 LINE",
"149 448 LINE",
"149 0 LINE",
"216 0 LINE",
"216 448 LINE",
"436 448 LINE",
"436 0 LINE",
"503 0 LINE",
"503 448 LINE",
"716 448 LINE",
"716 -45 LINE SMOOTH",
"716 -143 OFFCURVE",
"707 -213 OFFCURVE",
"647 -213 CURVE SMOOTH",
"605 -213 OFFCURVE",
"588 -190 OFFCURVE",
"588 -190 CURVE",
"558 -253 LINE",
"561 -255 OFFCURVE",
"595 -275 OFFCURVE",
"649 -275 CURVE SMOOTH"
);
}
);
width = 855;
}
);
leftKerningGroup = f;
leftMetricsKey = f;
rightKerningGroup = j;
rightMetricsKey = j;
},
{
color = 3;
glyphname = f_f_l;
lastChange = "2018-06-09 14:46:22 +0000";
layers = (
{
layerId = "6F85D940-A117-47EE-950D-70F837F8C9CE";
paths = (
{
closed = 1;
nodes = (
"915 0 LINE",
"1066 860 LINE",
"889 860 LINE",
"738 0 LINE"
);
},
{
closed = 1;
nodes = (
"27 378 LINE",
"111 378 LINE",
"44 0 LINE",
"222 0 LINE",
"289 378 LINE",
"469 378 LINE",
"356 -260 LINE",
"534 -260 LINE",
"647 378 LINE",
"755 378 LINE",
"778 513 LINE",
"670 513 LINE",
"690 624 LINE SMOOTH",
"705 704 OFFCURVE",
"758 737 OFFCURVE",
"815 737 CURVE SMOOTH",
"849 737 OFFCURVE",
"885 735 OFFCURVE",
"915 723 CURVE",
"1066 860 LINE",
"1014 867 OFFCURVE",
"926 877 OFFCURVE",
"842 877 CURVE SMOOTH",
"663 877 OFFCURVE",
"546 820 OFFCURVE",
"516 645 CURVE SMOOTH",
"493 513 LINE",
"312 513 LINE",
"332 624 LINE SMOOTH",
"345 695 OFFCURVE",
"384 718 OFFCURVE",
"413 718 CURVE SMOOTH",
"432 718 OFFCURVE",
"456 718 OFFCURVE",
"465 718 CURVE",
"492 870 LINE",
"477 872 OFFCURVE",
"454 875 OFFCURVE",
"427 875 CURVE SMOOTH",
"285 875 OFFCURVE",
"183 786 OFFCURVE",
"158 645 CURVE SMOOTH",
"135 513 LINE",
"51 513 LINE"
);
}
);
width = 1022;
},
{
background = {
paths = (
{
closed = 1;
nodes = (
"707 0 LINE",
"857 860 LINE",
"789 860 LINE",
"639 0 LINE"
);
},
{
closed = 1;
nodes = (
"314 -260 LINE",
"381 -260 LINE",
"506 456 LINE",
"657 456 LINE",
"667 513 LINE",
"516 513 LINE",
"534 615 LINE SMOOTH",
"559 756 OFFCURVE",
"593 823 OFFCURVE",
"717 823 CURVE SMOOTH",
"744 823 OFFCURVE",
"769 819 OFFCURVE",
"783 812 CURVE",
"857 860 LINE",
"828 870 OFFCURVE",
"780 879 OFFCURVE",
"729 879 CURVE SMOOTH",
"572 879 OFFCURVE",
"499 800 OFFCURVE",
"472 644 CURVE SMOOTH",
"449 513 LINE",
"197 513 LINE",
"187 456 LINE",
"439 456 LINE"
);
}
);
};
layerId = "7984B694-437B-44C7-A8AE-41A7C9CC5720";
paths = (
{
closed = 1;
nodes = (
"707 0 LINE",
"857 860 LINE",
"789 860 LINE",
"639 0 LINE"
);
},
{
closed = 1;
nodes = (
"36 455 LINE",
"150 455 LINE",
"71 0 LINE",
"138 0 LINE",
"217 456 LINE",
"439 456 LINE",
"314 -260 LINE",
"381 -260 LINE",
"506 456 LINE",
"657 456 LINE",
"667 513 LINE",
"516 513 LINE",
"534 615 LINE SMOOTH",
"559 756 OFFCURVE",
"593 823 OFFCURVE",
"717 823 CURVE SMOOTH",
"744 823 OFFCURVE",
"769 822 OFFCURVE",
"783 815 CURVE",
"857 860 LINE",
"828 870 OFFCURVE",
"780 879 OFFCURVE",
"729 879 CURVE SMOOTH",
"572 879 OFFCURVE",
"499 800 OFFCURVE",
"472 644 CURVE SMOOTH",
"449 513 LINE",
"228 513 LINE",
"246 615 LINE SMOOTH",
"277 787 OFFCURVE",
"336 816 OFFCURVE",
"388 816 CURVE SMOOTH",
"416 816 OFFCURVE",
"427 815 OFFCURVE",
"446 811 CURVE",
"455 871 LINE",
"444 873 OFFCURVE",
"430 876 OFFCURVE",
"398 876 CURVE SMOOTH",
"308 876 OFFCURVE",
"216 812 OFFCURVE",
"185 644 CURVE SMOOTH",
"161 513 LINE",
"47 513 LINE"
);
}
);
width = 809;
}
);
leftKerningGroup = f;
leftMetricsKey = f;
rightKerningGroup = i;
rightMetricsKey = l;
unicode = FB04;
},
{
color = 3;
glyphname = f_f_t;
lastChange = "2018-06-09 13:57:42 +0000";
layers = (
{
components = (
{
name = t;
transform = "{1, 0, 0, 1, 713, 0}";
}
);
layerId = "6F85D940-A117-47EE-950D-70F837F8C9CE";
paths = (
{
closed = 1;
nodes = (
"843 513 LINE",
"670 513 LINE",
"690 624 LINE SMOOTH",
"703 695 OFFCURVE",
"742 718 OFFCURVE",
"771 718 CURVE SMOOTH",
"788 718 OFFCURVE",
"806 718 OFFCURVE",
"823 718 CURVE",
"850 870 LINE",
"835 872 OFFCURVE",
"812 875 OFFCURVE",
"785 875 CURVE SMOOTH",
"643 875 OFFCURVE",
"541 786 OFFCURVE",
"516 645 CURVE SMOOTH",
"493 513 LINE",
"312 513 LINE",
"332 624 LINE SMOOTH",
"345 695 OFFCURVE",
"384 718 OFFCURVE",
"413 718 CURVE SMOOTH",
"430 718 OFFCURVE",
"448 718 OFFCURVE",
"465 718 CURVE",
"492 870 LINE",
"477 872 OFFCURVE",
"454 875 OFFCURVE",
"427 875 CURVE SMOOTH",
"285 875 OFFCURVE",
"183 786 OFFCURVE",
"158 645 CURVE SMOOTH",
"135 513 LINE",
"51 513 LINE",
"27 378 LINE",
"111 378 LINE",
"44 0 LINE",
"222 0 LINE",
"289 378 LINE",
"469 378 LINE",
"356 -260 LINE",
"534 -260 LINE",
"647 378 LINE",
"819 378 LINE"
);
}
);
width = 1114;
},
{
background = {
components = (
{
name = f;
transform = "{1, 0, 0, 1, 287, 0}";
},
{
name = t;
transform = "{1, 0, 0, 1, 613, 0}";
}
);
paths = (
{
closed = 1;
nodes = (
"138 0 LINE",
"217 455 LINE",
"437 455 LINE",
"448 513 LINE",
"228 513 LINE",
"246 615 LINE SMOOTH",
"277 787 OFFCURVE",
"336 816 OFFCURVE",
"388 816 CURVE SMOOTH",
"416 816 OFFCURVE",
"427 815 OFFCURVE",
"446 811 CURVE",
"455 871 LINE",
"444 873 OFFCURVE",
"430 876 OFFCURVE",
"398 876 CURVE SMOOTH",
"308 876 OFFCURVE",
"216 812 OFFCURVE",
"185 644 CURVE SMOOTH",
"161 513 LINE",
"47 513 LINE",
"36 455 LINE",
"150 455 LINE",
"71 0 LINE"
);
}
);
};
components = (
{
name = t;
transform = "{1, 0, 0, 1, 612, 0}";
}
);
layerId = "7984B694-437B-44C7-A8AE-41A7C9CC5720";
paths = (
{
closed = 1;
nodes = (
"748 513 LINE",
"516 513 LINE",
"534 615 LINE SMOOTH",
"555 732 OFFCURVE",
"590 816 OFFCURVE",
"679 816 CURVE SMOOTH",
"694 816 OFFCURVE",
"713 814 OFFCURVE",
"733 811 CURVE",
"742 871 LINE",
"728 874 OFFCURVE",
"710 876 OFFCURVE",
"690 876 CURVE SMOOTH",
"566 876 OFFCURVE",
"495 776 OFFCURVE",
"472 644 CURVE SMOOTH",
"449 513 LINE",
"228 513 LINE",
"246 615 LINE SMOOTH",
"277 787 OFFCURVE",
"336 816 OFFCURVE",
"388 816 CURVE SMOOTH",
"416 816 OFFCURVE",
"427 815 OFFCURVE",
"446 811 CURVE",
"455 871 LINE",
"444 873 OFFCURVE",
"430 876 OFFCURVE",
"398 876 CURVE SMOOTH",
"308 876 OFFCURVE",
"216 812 OFFCURVE",
"185 644 CURVE SMOOTH",
"161 513 LINE",
"47 513 LINE",
"36 455 LINE",
"150 455 LINE",
"71 0 LINE",
"138 0 LINE",
"217 455 LINE",
"439 455 LINE",
"314 -260 LINE",
"381 -260 LINE",
"506 456 LINE",
"738 456 LINE"
);
}
);
width = 937;
}
);
leftKerningGroup = f;
leftMetricsKey = f;
rightKerningGroup = t;
rightMetricsKey = t;
},
{
color = 3;
glyphname = f_j;
lastChange = "2018-06-09 14:46:22 +0000";
layers = (
{
layerId = "6F85D940-A117-47EE-950D-70F837F8C9CE";
paths = (
{
closed = 1;
nodes = (
"111 378 LINE",
"50 0 LINE",
"228 0 LINE",
"289 378 LINE",
"454 378 LINE",
"380 -48 LINE SMOOTH",
"372 -96 OFFCURVE",
"350 -114 OFFCURVE",
"323 -115 CURVE SMOOTH",
"298 -116 OFFCURVE",
"254 -116 OFFCURVE",
"255 -116 CURVE",
"222 -272 LINE",
"243 -274 OFFCURVE",
"282 -277 OFFCURVE",
"326 -275 CURVE SMOOTH",
"469 -269 OFFCURVE",
"534 -167 OFFCURVE",
"550 -76 CURVE SMOOTH",
"654 513 LINE",
"312 513 LINE",
"332 624 LINE SMOOTH",
"345 695 OFFCURVE",
"384 713 OFFCURVE",
"413 718 CURVE SMOOTH",
"452 725 OFFCURVE",
"491 715 OFFCURVE",
"537 673 CURVE",
"619 792 LINE",
"602 825 OFFCURVE",
"534 880 OFFCURVE",
"415 875 CURVE SMOOTH",
"299 870 OFFCURVE",
"184 795 OFFCURVE",
"158 645 CURVE SMOOTH",
"135 513 LINE",
"51 513 LINE",
"27 378 LINE"
);
}
);
width = 652;
},
{
layerId = "7984B694-437B-44C7-A8AE-41A7C9CC5720";
paths = (
{
closed = 1;
nodes = (
"150 456 LINE",
"70 0 LINE",
"137 0 LINE",
"217 456 LINE",
"410 456 LINE",
"322 -47 LINE SMOOTH",
"301 -168 OFFCURVE",
"284 -214 OFFCURVE",
"209 -214 CURVE SMOOTH",
"190 -214 OFFCURVE",
"182 -214 OFFCURVE",
"156 -210 CURVE",
"143 -270 LINE",
"168 -275 OFFCURVE",
"177 -275 OFFCURVE",
"196 -275 CURVE SMOOTH",
"318 -275 OFFCURVE",
"362 -199 OFFCURVE",
"384 -74 CURVE SMOOTH",
"488 513 LINE",
"227 513 LINE",
"245 615 LINE SMOOTH",
"266 732 OFFCURVE",
"297 819 OFFCURVE",
"386 819 CURVE SMOOTH",
"437 819 OFFCURVE",
"466 793 OFFCURVE",
"482 755 CURVE",
"529 796 LINE",
"515 827 OFFCURVE",
"473 876 OFFCURVE",
"393 876 CURVE SMOOTH",
"269 876 OFFCURVE",
"206 776 OFFCURVE",
"183 644 CURVE SMOOTH",
"160 513 LINE",
"46 513 LINE",
"36 456 LINE"
);
}
);
width = 488;
}
);
leftKerningGroup = f;
leftMetricsKey = f;
rightKerningGroup = j;
rightMetricsKey = j;
},
{
color = 3;
glyphname = f_t;
lastChange = "2018-06-09 13:57:42 +0000";
layers = (
{
layerId = "6F85D940-A117-47EE-950D-70F837F8C9CE";
paths = (
{
closed = 1;
nodes = (
"27 378 LINE",
"113 378 LINE",
"1 -260 LINE",
"174 -260 LINE",
"286 378 LINE",
"447 378 LINE",
"412 192 LINE SMOOTH",
"395 101 OFFCURVE",
"394 -9 OFFCURVE",
"538 -9 CURVE SMOOTH",
"590 -9 OFFCURVE",
"634 1 OFFCURVE",
"670 12 CURVE",
"690 153 LINE",
"648 140 OFFCURVE",
"617 133 OFFCURVE",
"600 139 CURVE",
"583 144 OFFCURVE",
"577 162 OFFCURVE",
"584 196 CURVE SMOOTH",
"617 378 LINE",
"725 378 LINE",
"748 513 LINE",
"640 513 LINE",
"674 704 LINE",
"510 704 LINE",
"477 513 LINE",
"309 513 LINE",
"329 624 LINE SMOOTH",
"337 667 OFFCURVE",
"351 696 OFFCURVE",
"373 711 CURVE SMOOTH",
"395 726 OFFCURVE",
"423 728 OFFCURVE",
"462 718 CURVE",
"489 870 LINE",
"467 873 OFFCURVE",
"445 875 OFFCURVE",
"423 875 CURVE SMOOTH",
"279 875 OFFCURVE",
"186 784 OFFCURVE",
"162 645 CURVE SMOOTH",
"139 513 LINE",
"51 513 LINE"
);
}
);
width = 744;
},
{
background = {
components = (
{
name = f;
transform = "{1, 0, 0, 1, -2, 0}";
},
{
name = t;
transform = "{1, 0, 0, 1, 295, 0}";
}
);
};
layerId = "7984B694-437B-44C7-A8AE-41A7C9CC5720";
paths = (
{
closed = 1;
nodes = (
"36 456 LINE",
"150 456 LINE",
"25 -260 LINE",
"92 -260 LINE",
"217 456 LINE",
"421 456 LINE",
"365 124 LINE SMOOTH",
"350 35 OFFCURVE",
"382 -11 OFFCURVE",
"458 -11 CURVE SMOOTH",
"489 -11 OFFCURVE",
"524 -2 OFFCURVE",
"545 13 CURVE",
"555 72 LINE",
"509 52 OFFCURVE",
"471 38 OFFCURVE",
"443 58 CURVE SMOOTH",
"429 68 OFFCURVE",
"427 92 OFFCURVE",
"434 132 CURVE SMOOTH",
"488 456 LINE",
"626 456 LINE",
"636 513 LINE",
"499 513 LINE",
"532 704 LINE",
"468 704 LINE",
"435 513 LINE",
"227 513 LINE",
"245 615 LINE SMOOTH",
"258 693 OFFCURVE",
"279 756 OFFCURVE",
"318 790 CURVE SMOOTH",
"353 819 OFFCURVE",
"389 818 OFFCURVE",
"442 810 CURVE",
"453 870 LINE",
"399 880 OFFCURVE",
"337 875 OFFCURVE",
"289 841 CURVE SMOOTH",
"233 801 OFFCURVE",
"198 729 OFFCURVE",
"183 644 CURVE SMOOTH",
"160 513 LINE",
"46 513 LINE"
);
}
);
width = 615;
}
);
leftKerningGroup = f;
leftMetricsKey = f;
rightKerningGroup = t;
rightMetricsKey = t;
},
{
color = 3;
glyphname = fi;
lastChange = "2018-06-09 14:46:22 +0000";
layers = (
{
layerId = "6F85D940-A117-47EE-950D-70F837F8C9CE";
paths = (
{
closed = 1;
nodes = (
"176 -264 LINE",
"289 378 LINE",
"452 378 LINE",
"386 0 LINE",
"563 0 LINE",
"653 513 LINE",
"312 513 LINE",
"332 624 LINE SMOOTH",
"345 695 OFFCURVE",
"384 713 OFFCURVE",
"413 718 CURVE SMOOTH",
"452 725 OFFCURVE",
"491 715 OFFCURVE",
"537 673 CURVE",
"619 792 LINE",
"602 825 OFFCURVE",
"534 880 OFFCURVE",
"415 875 CURVE SMOOTH",
"299 870 OFFCURVE",
"184 795 OFFCURVE",
"158 645 CURVE SMOOTH",
"135 513 LINE",
"51 513 LINE",
"27 378 LINE",
"111 378 LINE",
"-2 -264 LINE"
);
}
);
width = 651;
},
{
layerId = "7984B694-437B-44C7-A8AE-41A7C9CC5720";
paths = (
{
closed = 1;
nodes = (
"92 -260 LINE",
"217 456 LINE",
"399 456 LINE",
"319 0 LINE",
"386 0 LINE",
"476 513 LINE",
"227 513 LINE",
"245 615 LINE SMOOTH",
"266 732 OFFCURVE",
"297 819 OFFCURVE",
"386 819 CURVE SMOOTH",
"437 819 OFFCURVE",
"466 793 OFFCURVE",
"482 755 CURVE",
"529 796 LINE",
"515 827 OFFCURVE",
"473 876 OFFCURVE",
"393 876 CURVE SMOOTH",
"269 876 OFFCURVE",
"206 776 OFFCURVE",
"183 644 CURVE SMOOTH",
"160 513 LINE",
"46 513 LINE",
"36 456 LINE",
"150 456 LINE",
"25 -260 LINE"
);
}
);
width = 474;
}
);
leftKerningGroup = f;
leftMetricsKey = f;
rightKerningGroup = i;
rightMetricsKey = i;
unicode = FB01;
},
{
color = 3;
glyphname = fl;
lastChange = "2018-06-09 14:46:22 +0000";
layers = (
{
background = {
components = (
{
name = f_f_l;
transform = "{1, 0, 0, 1, -352, 0}";
}
);
};
layerId = "6F85D940-A117-47EE-950D-70F837F8C9CE";
paths = (
{
closed = 1;
nodes = (
"557 0 LINE",
"708 860 LINE",
"531 860 LINE",
"380 0 LINE"
);
},
{
closed = 1;
nodes = (
"27 378 LINE",
"111 378 LINE",
"-2 -260 LINE",
"176 -260 LINE",
"289 378 LINE",
"397 378 LINE",
"420 513 LINE",
"312 513 LINE",
"332 624 LINE SMOOTH",
"346 704 OFFCURVE",
"400 738 OFFCURVE",
"457 738 CURVE SMOOTH",
"491 738 OFFCURVE",
"527 735 OFFCURVE",
"557 723 CURVE",
"708 860 LINE",
"656 867 OFFCURVE",
"568 877 OFFCURVE",
"484 877 CURVE SMOOTH",
"305 877 OFFCURVE",
"188 820 OFFCURVE",
"158 645 CURVE SMOOTH",
"135 513 LINE",
"51 513 LINE"
);
}
);
width = 664;
},
{
background = {
paths = (
{
closed = 1;
nodes = (
"416 0 LINE",
"566 860 LINE",
"498 860 LINE",
"348 0 LINE"
);
},
{
closed = 1;
nodes = (
"23 -260 LINE",
"90 -260 LINE",
"215 456 LINE",
"366 456 LINE",
"376 513 LINE",
"225 513 LINE",
"243 615 LINE SMOOTH",
"268 756 OFFCURVE",
"302 823 OFFCURVE",
"426 823 CURVE SMOOTH",
"453 823 OFFCURVE",
"478 819 OFFCURVE",
"492 812 CURVE",
"566 860 LINE",
"537 870 OFFCURVE",
"489 879 OFFCURVE",
"438 879 CURVE SMOOTH",
"281 879 OFFCURVE",
"208 800 OFFCURVE",
"181 644 CURVE SMOOTH",
"158 513 LINE",
"46 513 LINE",
"36 456 LINE",
"148 456 LINE"
);
}
);
};
layerId = "7984B694-437B-44C7-A8AE-41A7C9CC5720";
paths = (
{
closed = 1;
nodes = (
"416 0 LINE",
"566 860 LINE",
"498 860 LINE",
"348 0 LINE"
);
},
{
closed = 1;
nodes = (
"36 456 LINE",
"148 456 LINE",
"23 -260 LINE",
"90 -260 LINE",
"215 456 LINE",
"366 456 LINE",
"376 513 LINE",
"225 513 LINE",
"243 615 LINE SMOOTH",
"268 756 OFFCURVE",
"302 823 OFFCURVE",
"426 823 CURVE SMOOTH",
"453 823 OFFCURVE",
"478 822 OFFCURVE",
"492 815 CURVE",
"566 860 LINE",
"537 870 OFFCURVE",
"489 879 OFFCURVE",
"438 879 CURVE SMOOTH",
"281 879 OFFCURVE",
"208 800 OFFCURVE",
"181 644 CURVE SMOOTH",
"158 513 LINE",
"46 513 LINE"
);
}
);
width = 518;
}
);
leftKerningGroup = f;
leftMetricsKey = f;
rightKerningGroup = i;
rightMetricsKey = l;
unicode = FB02;
},
{
glyphname = ordfeminine;
lastChange = "2017-06-25 12:04:12 +0000";
layers = (
{
layerId = "6F85D940-A117-47EE-950D-70F837F8C9CE";
paths = (
{
closed = 1;
nodes = (
"128 586 OFFCURVE",
"184 504 OFFCURVE",
"283 504 CURVE SMOOTH",
"321 504 OFFCURVE",
"359 518 OFFCURVE",
"388 544 CURVE",
"384 549 LINE",
"380 513 LINE",
"487 513 LINE",
"543 830 LINE",
"434 830 LINE",
"424 796 LINE",
"401 821 OFFCURVE",
"368 840 OFFCURVE",
"319 840 CURVE SMOOTH",
"232 840 OFFCURVE",
"161 771 OFFCURVE",
"145 684 CURVE SMOOTH"
);
},
{
closed = 1;
nodes = (
"267 708 OFFCURVE",
"312 746 OFFCURVE",
"359 746 CURVE SMOOTH",
"394 746 OFFCURVE",
"417 722 OFFCURVE",
"410 684 CURVE SMOOTH",
"402 635 OFFCURVE",
"358 597 OFFCURVE",
"310 597 CURVE SMOOTH",
"271 597 OFFCURVE",
"251 621 OFFCURVE",
"258 658 CURVE SMOOTH"
);
}
);
width = 512;
},
{
layerId = "7984B694-437B-44C7-A8AE-41A7C9CC5720";
paths = (
{
closed = 1;
nodes = (
"25 567 OFFCURVE",
"89 503 OFFCURVE",
"178 503 CURVE SMOOTH",
"239 503 OFFCURVE",
"285 540 OFFCURVE",
"292 557 CURVE",
"293 559 LINE",
"285 513 LINE",
"341 513 LINE",
"397 830 LINE",
"340 831 LINE",
"331 784 LINE",
"329 804 OFFCURVE",
"293 840 OFFCURVE",
"228 840 CURVE SMOOTH",
"144 840 OFFCURVE",
"62 780 OFFCURVE",
"44 677 CURVE SMOOTH"
);
},
{
closed = 1;
nodes = (
"110 742 OFFCURVE",
"172 787 OFFCURVE",
"228 787 CURVE SMOOTH",
"286 787 OFFCURVE",
"326 741 OFFCURVE",
"315 677 CURVE SMOOTH",
"303 607 OFFCURVE",
"242 556 OFFCURVE",
"178 556 CURVE SMOOTH",
"126 556 OFFCURVE",
"85 597 OFFCURVE",
"97 667 CURVE SMOOTH"
);
}
);
width = 466;
}
);
rightKerningGroup = d;
unicode = 00AA;
},
{
glyphname = ordmasculine;
lastChange = "2017-09-09 11:23:37 +0000";
layers = (
{
layerId = "6F85D940-A117-47EE-950D-70F837F8C9CE";
paths = (
{
closed = 1;
nodes = (
"127 581 OFFCURVE",
"196 504 OFFCURVE",
"317 504 CURVE SMOOTH",
"420 504 OFFCURVE",
"506 567 OFFCURVE",
"522 658 CURVE SMOOTH",
"540 763 OFFCURVE",
"464 840 OFFCURVE",
"353 840 CURVE SMOOTH",
"252 840 OFFCURVE",
"162 777 OFFCURVE",
"145 684 CURVE SMOOTH"
);
},
{
closed = 1;
nodes = (
"267 708 OFFCURVE",
"312 746 OFFCURVE",
"359 746 CURVE SMOOTH",
"394 746 OFFCURVE",
"417 722 OFFCURVE",
"410 684 CURVE SMOOTH",
"402 635 OFFCURVE",
"358 597 OFFCURVE",
"310 597 CURVE SMOOTH",
"270 597 OFFCURVE",
"251 621 OFFCURVE",
"258 658 CURVE SMOOTH"
);
}
);
width = 521;
},
{
layerId = "7984B694-437B-44C7-A8AE-41A7C9CC5720";
paths = (
{
closed = 1;
nodes = (
"26 573 OFFCURVE",
"93 504 OFFCURVE",
"190 504 CURVE SMOOTH",
"277 504 OFFCURVE",
"366 572 OFFCURVE",
"383 666 CURVE SMOOTH",
"401 768 OFFCURVE",
"327 840 OFFCURVE",
"240 840 CURVE SMOOTH",
"145 840 OFFCURVE",
"61 769 OFFCURVE",
"44 673 CURVE SMOOTH"
);
},
{
closed = 1;
nodes = (
"114 739 OFFCURVE",
"163 791 OFFCURVE",
"232 791 CURVE SMOOTH",
"291 791 OFFCURVE",
"337 738 OFFCURVE",
"325 671 CURVE SMOOTH",
"312 599 OFFCURVE",
"254 552 OFFCURVE",
"192 552 CURVE SMOOTH",
"133 552 OFFCURVE",
"89 600 OFFCURVE",
"101 666 CURVE SMOOTH"
);
}
);
width = 481;
}
);
rightKerningGroup = d;
unicode = 00BA;
},
{
glyphname = zero;
lastChange = "2017-06-25 12:04:12 +0000";
layers = (
{
layerId = "6F85D940-A117-47EE-950D-70F837F8C9CE";
paths = (
{
closed = 1;
nodes = (
"3 113 OFFCURVE",
"145 -15 OFFCURVE",
"328 -15 CURVE SMOOTH",
"499 -15 OFFCURVE",
"672 99 OFFCURVE",
"725 399 CURVE SMOOTH",
"776 691 OFFCURVE",
"639 840 OFFCURVE",
"456 840 CURVE SMOOTH",
"285 840 OFFCURVE",
"107 705 OFFCURVE",
"58 425 CURVE SMOOTH"
);
},
{
closed = 1;
nodes = (
"274 571 OFFCURVE",
"353 675 OFFCURVE",
"450 675 CURVE SMOOTH",
"534 675 OFFCURVE",
"568 586 OFFCURVE",
"539 425 CURVE SMOOTH",
"507 241 OFFCURVE",
"430 150 OFFCURVE",
"334 150 CURVE SMOOTH",
"249 150 OFFCURVE",
"213 227 OFFCURVE",
"244 399 CURVE SMOOTH"
);
}
);
width = 728;
},
{
layerId = "7984B694-437B-44C7-A8AE-41A7C9CC5720";
paths = (
{
closed = 1;
nodes = (
"10 118 OFFCURVE",
"142 -15 OFFCURVE",
"291 -15 CURVE SMOOTH",
"436 -15 OFFCURVE",
"608 114 OFFCURVE",
"660 407 CURVE SMOOTH",
"713 706 OFFCURVE",
"582 840 OFFCURVE",
"433 840 CURVE SMOOTH",
"288 840 OFFCURVE",
"115 710 OFFCURVE",
"63 417 CURVE SMOOTH"
);
},
{
closed = 1;
nodes = (
"178 652 OFFCURVE",
"308 778 OFFCURVE",
"431 778 CURVE SMOOTH",
"549 778 OFFCURVE",
"630 657 OFFCURVE",
"588 417 CURVE SMOOTH",
"545 172 OFFCURVE",
"415 47 OFFCURVE",
"293 47 CURVE SMOOTH",
"174 47 OFFCURVE",
"93 168 OFFCURVE",
"135 407 CURVE SMOOTH"
);
}
);
width = 668;
}
);
unicode = 0030;
},
{
glyphname = one;
lastChange = "2018-08-18 14:47:11 +0000";
layers = (
{
layerId = "6F85D940-A117-47EE-950D-70F837F8C9CE";
paths = (
{
closed = 1;
nodes = (
"112 0 LINE",
"300 0 LINE",
"446 825 LINE",
"356 825 LINE",
"97 693 LINE",
"67 507 LINE",
"215 575 LINE"
);
}
);
width = 406;
},
{
layerId = "7984B694-437B-44C7-A8AE-41A7C9CC5720";
paths = (
{
closed = 1;
nodes = (
"141 0 LINE",
"209 0 LINE",
"355 825 LINE",
"305 825 LINE",
"100 713 LINE",
"88 637 LINE",
"271 735 LINE"
);
}
);
width = 315;
}
);
unicode = 0031;
},
{
glyphname = two;
lastChange = "2018-08-18 17:23:29 +0000";
layers = (
{
layerId = "6F85D940-A117-47EE-950D-70F837F8C9CE";
paths = (
{
closed = 1;
nodes = (
"510 681 OFFCURVE",
"540 647 OFFCURVE",
"525 575 CURVE SMOOTH",
"509 500 OFFCURVE",
"386 392 OFFCURVE",
"270 303 CURVE SMOOTH",
"153 213 OFFCURVE",
"41 142 OFFCURVE",
"41 142 CURVE",
"16 0 LINE",
"609 0 LINE",
"638 165 LINE",
"342 162 LINE SMOOTH",
"342 162 OFFCURVE",
"409 199 OFFCURVE",
"485 259 CURVE SMOOTH",
"578 331 OFFCURVE",
"686 436 OFFCURVE",
"711 547 CURVE SMOOTH",
"735 657 OFFCURVE",
"710 840 OFFCURVE",
"451 840 CURVE SMOOTH",
"203 840 OFFCURVE",
"90 597 OFFCURVE",
"90 597 CURVE",
"235 524 LINE",
"234 524 OFFCURVE",
"319 681 OFFCURVE",
"435 681 CURVE SMOOTH"
);
}
);
width = 715;
},
{
layerId = "7984B694-437B-44C7-A8AE-41A7C9CC5720";
paths = (
{
closed = 1;
nodes = (
"518 778 OFFCURVE",
"565 712 OFFCURVE",
"549 622 CURVE SMOOTH",
"522 467 OFFCURVE",
"343 318 OFFCURVE",
"204 206 CURVE SMOOTH",
"95 118 OFFCURVE",
"1 55 OFFCURVE",
"1 55 CURVE",
"-9 0 LINE",
"504 0 LINE",
"516 66 LINE",
"107 62 LINE",
"107 62 OFFCURVE",
"235 141 OFFCURVE",
"350 243 CURVE SMOOTH",
"471 351 OFFCURVE",
"592 475 OFFCURVE",
"620 613 CURVE SMOOTH",
"643 743 OFFCURVE",
"563 840 OFFCURVE",
"403 840 CURVE SMOOTH",
"201 840 OFFCURVE",
"108 649 OFFCURVE",
"108 649 CURVE",
"174 622 LINE",
"174 622 OFFCURVE",
"249 778 OFFCURVE",
"401 778 CURVE SMOOTH"
);
}
);
width = 611;
}
);
unicode = 0032;
},
{
glyphname = three;
lastChange = "2017-06-25 12:04:12 +0000";
layers = (
{
layerId = "6F85D940-A117-47EE-950D-70F837F8C9CE";
paths = (
{
closed = 1;
nodes = (
"254 587 LINE",
"253 587 OFFCURVE",
"302 689 OFFCURVE",
"411 689 CURVE SMOOTH",
"459 689 OFFCURVE",
"496 658 OFFCURVE",
"488 611 CURVE SMOOTH",
"476 545 OFFCURVE",
"413 494 OFFCURVE",
"363 494 CURVE SMOOTH",
"327 494 LINE",
"311 371 LINE",
"311 371 OFFCURVE",
"327 371 OFFCURVE",
"353 371 CURVE SMOOTH",
"413 371 OFFCURVE",
"454 334 OFFCURVE",
"443 269 CURVE SMOOTH",
"429 193 OFFCURVE",
"365 147 OFFCURVE",
"291 147 CURVE SMOOTH",
"172 147 OFFCURVE",
"194 270 OFFCURVE",
"194 270 CURVE",
"5 188 LINE",
"6 188 OFFCURVE",
"26 -15 OFFCURVE",
"286 -15 CURVE SMOOTH",
"457 -15 OFFCURVE",
"599 91 OFFCURVE",
"626 243 CURVE SMOOTH",
"644 346 OFFCURVE",
"592 426 OFFCURVE",
"536 442 CURVE",
"600 458 OFFCURVE",
"644 525 OFFCURVE",
"655 587 CURVE SMOOTH",
"681 733 OFFCURVE",
"580 840 OFFCURVE",
"417 840 CURVE SMOOTH",
"192 840 OFFCURVE",
"118 656 OFFCURVE",
"118 656 CURVE"
);
}
);
width = 660;
},
{
layerId = "7984B694-437B-44C7-A8AE-41A7C9CC5720";
paths = (
{
closed = 1;
nodes = (
"196 679 LINE",
"195 679 OFFCURVE",
"237 778 OFFCURVE",
"379 778 CURVE SMOOTH",
"494 778 OFFCURVE",
"532 708 OFFCURVE",
"517 623 CURVE SMOOTH",
"498 515 OFFCURVE",
"410 466 OFFCURVE",
"320 466 CURVE SMOOTH",
"281 466 LINE",
"272 399 LINE",
"272 399 OFFCURVE",
"303 399 OFFCURVE",
"306 399 CURVE SMOOTH",
"434 399 OFFCURVE",
"490 355 OFFCURVE",
"470 241 CURVE SMOOTH",
"451 134 OFFCURVE",
"368 47 OFFCURVE",
"239 47 CURVE SMOOTH",
"85 47 OFFCURVE",
"72 176 OFFCURVE",
"72 176 CURVE",
"-2 146 LINE",
"-1 146 OFFCURVE",
"26 -15 OFFCURVE",
"238 -15 CURVE SMOOTH",
"397 -15 OFFCURVE",
"520 93 OFFCURVE",
"544 231 CURVE SMOOTH",
"566 358 OFFCURVE",
"495 427 OFFCURVE",
"424 435 CURVE",
"503 450 OFFCURVE",
"572 519 OFFCURVE",
"589 615 CURVE SMOOTH",
"610 737 OFFCURVE",
"543 840 OFFCURVE",
"383 840 CURVE SMOOTH",
"205 840 OFFCURVE",
"129 708 OFFCURVE",
"129 708 CURVE"
);
}
);
width = 580;
}
);
unicode = 0033;
},
{
glyphname = four;
lastChange = "2018-08-18 14:47:49 +0000";
layers = (
{
layerId = "6F85D940-A117-47EE-950D-70F837F8C9CE";
paths = (
{
closed = 1;
nodes = (
"441 825 LINE",
"20 309 LINE",
"-2 174 LINE",
"338 174 LINE",
"307 0 LINE",
"483 0 LINE",
"514 174 LINE",
"610 174 LINE",
"639 339 LINE",
"543 339 LINE",
"629 825 LINE"
);
},
{
closed = 1;
nodes = (
"220 339 LINE",
"409 574 LINE",
"408 574 LINE",
"367 339 LINE"
);
}
);
width = 638;
},
{
background = {
paths = (
{
closed = 1;
nodes = (
"378 825 LINE",
"11 234 LINE",
"11 174 LINE",
"361 174 LINE",
"361 0 LINE",
"427 0 LINE",
"427 174 LINE",
"523 174 LINE",
"523 242 LINE",
"427 242 LINE",
"427 825 LINE"
);
},
{
closed = 1;
nodes = (
"96 242 LINE",
"361 668 LINE",
"361 668 LINE",
"361 242 LINE"
);
}
);
};
layerId = "7984B694-437B-44C7-A8AE-41A7C9CC5720";
paths = (
{
closed = 1;
nodes = (
"478 825 LINE",
"7 234 LINE",
"-3 174 LINE",
"347 174 LINE",
"316 0 LINE",
"382 0 LINE",
"413 174 LINE",
"509 174 LINE",
"521 238 LINE",
"425 238 LINE",
"528 825 LINE"
);
},
{
closed = 1;
nodes = (
"91 237 LINE",
"439 682 LINE",
"435 666 LINE",
"358 238 LINE"
);
}
);
width = 537;
}
);
unicode = 0034;
},
{
glyphname = five;
lastChange = "2018-03-03 13:09:04 +0000";
layers = (
{
layerId = "6F85D940-A117-47EE-950D-70F837F8C9CE";
paths = (
{
closed = 1;
nodes = (
"10 170 LINE",
"28 86 OFFCURVE",
"100 -15 OFFCURVE",
"282 -15 CURVE SMOOTH",
"453 -15 OFFCURVE",
"596 95 OFFCURVE",
"627 273 CURVE SMOOTH",
"661 463 OFFCURVE",
"529 552 OFFCURVE",
"396 547 CURVE SMOOTH",
"328 543 OFFCURVE",
"310 525 OFFCURVE",
"310 525 CURVE",
"359 660 LINE",
"643 660 LINE",
"672 825 LINE",
"230 825 LINE",
"83 381 LINE",
"253 354 LINE",
"253 354 OFFCURVE",
"291 400 OFFCURVE",
"355 402 CURVE SMOOTH",
"440 405 OFFCURVE",
"459 364 OFFCURVE",
"446 289 CURVE SMOOTH",
"432 208 OFFCURVE",
"361 142 OFFCURVE",
"287 142 CURVE SMOOTH",
"207 142 OFFCURVE",
"173 179 OFFCURVE",
"167 230 CURVE"
);
}
);
width = 659;
},
{
layerId = "7984B694-437B-44C7-A8AE-41A7C9CC5720";
paths = (
{
closed = 1;
nodes = (
"18 133 LINE",
"25 101 OFFCURVE",
"71 -15 OFFCURVE",
"240 -15 CURVE SMOOTH",
"414 -15 OFFCURVE",
"536 103 OFFCURVE",
"565 268 CURVE SMOOTH",
"594 441 OFFCURVE",
"484 529 OFFCURVE",
"353 526 CURVE SMOOTH",
"244 523 OFFCURVE",
"198 459 OFFCURVE",
"198 459 CURVE",
"300 757 LINE",
"615 757 LINE",
"627 825 LINE",
"250 825 LINE",
"92 360 LINE",
"162 350 LINE",
"161 350 OFFCURVE",
"210 461 OFFCURVE",
"340 462 CURVE SMOOTH",
"439 463 OFFCURVE",
"511 395 OFFCURVE",
"492 276 CURVE SMOOTH",
"470 139 OFFCURVE",
"368 47 OFFCURVE",
"242 47 CURVE SMOOTH",
"124 47 OFFCURVE",
"92 141 OFFCURVE",
"90 165 CURVE"
);
}
);
width = 603;
}
);
rightKerningGroup = "6";
unicode = 0035;
},
{
glyphname = six;
lastChange = "2018-08-18 14:53:09 +0000";
layers = (
{
layerId = "6F85D940-A117-47EE-950D-70F837F8C9CE";
paths = (
{
closed = 1;
nodes = (
"476 -15 OFFCURVE",
"619 96 OFFCURVE",
"647 254 CURVE SMOOTH",
"678 427 OFFCURVE",
"558 552 OFFCURVE",
"403 552 CURVE SMOOTH",
"378 552 OFFCURVE",
"326 539 OFFCURVE",
"290 531 CURVE SMOOTH",
"161 487 OFFCURVE",
"56 377 OFFCURVE",
"39 280 CURVE SMOOTH",
"9 110 OFFCURVE",
"116 -15 OFFCURVE",
"306 -15 CURVE SMOOTH"
);
},
{
closed = 1;
nodes = (
"241 143 OFFCURVE",
"203 187 OFFCURVE",
"215 255 CURVE SMOOTH",
"229 335 OFFCURVE",
"301 394 OFFCURVE",
"379 394 CURVE SMOOTH",
"443 394 OFFCURVE",
"487 349 OFFCURVE",
"475 281 CURVE SMOOTH",
"461 201 OFFCURVE",
"391 143 OFFCURVE",
"312 143 CURVE SMOOTH"
);
},
{
closed = 1;
nodes = (
"103 491 OFFCURVE",
"58 390 OFFCURVE",
"38 274 CURVE",
"343 517 LINE",
"365 531 OFFCURVE",
"391 548 OFFCURVE",
"404 561 CURVE",
"671 825 LINE",
"439 825 LINE",
"207 599 LINE"
);
}
);
width = 688;
},
{
layerId = "7984B694-437B-44C7-A8AE-41A7C9CC5720";
paths = (
{
closed = 1;
nodes = (
"442 -15 OFFCURVE",
"560 91 OFFCURVE",
"589 252 CURVE SMOOTH",
"619 422 OFFCURVE",
"521 532 OFFCURVE",
"378 532 CURVE SMOOTH",
"278 532 OFFCURVE",
"224 487 OFFCURVE",
"193 472 CURVE SMOOTH",
"129 432 OFFCURVE",
"56 372 OFFCURVE",
"38 272 CURVE SMOOTH",
"9 105 OFFCURVE",
"90 -15 OFFCURVE",
"270 -15 CURVE SMOOTH"
);
},
{
closed = 1;
nodes = (
"141 47 OFFCURVE",
"89 141 OFFCURVE",
"111 262 CURVE SMOOTH",
"133 389 OFFCURVE",
"232 470 OFFCURVE",
"367 470 CURVE SMOOTH",
"486 470 OFFCURVE",
"538 383 OFFCURVE",
"516 262 CURVE SMOOTH",
"494 135 OFFCURVE",
"403 47 OFFCURVE",
"272 47 CURVE SMOOTH"
);
},
{
closed = 1;
nodes = (
"168 515 OFFCURVE",
"64 415 OFFCURVE",
"38 269 CURVE",
"153 432 LINE",
"157 435 OFFCURVE",
"288 551 OFFCURVE",
"301 564 CURVE",
"559 825 LINE",
"471 825 LINE",
"241 596 LINE"
);
}
);
width = 631;
}
);
rightKerningGroup = "6";
unicode = 0036;
},
{
glyphname = seven;
lastChange = "2018-08-18 14:49:07 +0000";
layers = (
{
layerId = "6F85D940-A117-47EE-950D-70F837F8C9CE";
paths = (
{
closed = 1;
nodes = (
"144 660 LINE",
"496 660 LINE",
"0 0 LINE",
"226 0 LINE",
"747 697 LINE",
"768 825 LINE",
"173 825 LINE"
);
}
);
width = 682;
},
{
layerId = "7984B694-437B-44C7-A8AE-41A7C9CC5720";
paths = (
{
closed = 1;
nodes = (
"150 757 LINE",
"574 757 LINE",
"3 0 LINE",
"85 0 LINE",
"657 765 LINE",
"667 825 LINE",
"162 825 LINE"
);
}
);
width = 580;
}
);
unicode = 0037;
},
{
glyphname = eight;
lastChange = "2017-06-25 12:04:12 +0000";
layers = (
{
layerId = "6F85D940-A117-47EE-950D-70F837F8C9CE";
paths = (
{
closed = 1;
nodes = (
"703 762 OFFCURVE",
"582 840 OFFCURVE",
"435 840 CURVE SMOOTH",
"305 840 OFFCURVE",
"162 776 OFFCURVE",
"137 635 CURVE SMOOTH",
"120 538 OFFCURVE",
"162 484 OFFCURVE",
"214 451 CURVE",
"118 410 OFFCURVE",
"52 352 OFFCURVE",
"33 245 CURVE SMOOTH",
"5 85 OFFCURVE",
"142 -15 OFFCURVE",
"308 -15 CURVE SMOOTH",
"457 -15 OFFCURVE",
"620 71 OFFCURVE",
"646 219 CURVE SMOOTH",
"667 338 OFFCURVE",
"611 404 OFFCURVE",
"539 439 CURVE",
"613 478 OFFCURVE",
"661 524 OFFCURVE",
"676 609 CURVE SMOOTH"
);
},
{
closed = 1;
nodes = (
"248 307 OFFCURVE",
"308 357 OFFCURVE",
"373 357 CURVE SMOOTH",
"425 357 OFFCURVE",
"460 321 OFFCURVE",
"450 265 CURVE SMOOTH",
"438 198 OFFCURVE",
"378 147 OFFCURVE",
"313 147 CURVE SMOOTH",
"256 147 OFFCURVE",
"227 184 OFFCURVE",
"236 239 CURVE SMOOTH"
);
},
{
closed = 1;
nodes = (
"488 557 OFFCURVE",
"437 513 OFFCURVE",
"378 513 CURVE SMOOTH",
"333 513 OFFCURVE",
"302 543 OFFCURVE",
"311 592 CURVE SMOOTH",
"321 651 OFFCURVE",
"375 698 OFFCURVE",
"434 698 CURVE SMOOTH",
"482 698 OFFCURVE",
"507 665 OFFCURVE",
"499 618 CURVE SMOOTH"
);
}
);
width = 688;
},
{
layerId = "7984B694-437B-44C7-A8AE-41A7C9CC5720";
paths = (
{
closed = 1;
nodes = (
"644 771 OFFCURVE",
"555 840 OFFCURVE",
"412 840 CURVE SMOOTH",
"278 840 OFFCURVE",
"162 775 OFFCURVE",
"136 631 CURVE SMOOTH",
"120 537 OFFCURVE",
"167 472 OFFCURVE",
"223 447 CURVE",
"133 418 OFFCURVE",
"53 357 OFFCURVE",
"32 237 CURVE SMOOTH",
"6 90 OFFCURVE",
"99 -15 OFFCURVE",
"271 -15 CURVE SMOOTH",
"434 -15 OFFCURVE",
"562 86 OFFCURVE",
"587 227 CURVE SMOOTH",
"609 353 OFFCURVE",
"547 416 OFFCURVE",
"470 443 CURVE",
"539 470 OFFCURVE",
"602 533 OFFCURVE",
"618 621 CURVE SMOOTH"
);
},
{
closed = 1;
nodes = (
"124 341 OFFCURVE",
"215 414 OFFCURVE",
"346 414 CURVE SMOOTH",
"472 414 OFFCURVE",
"534 345 OFFCURVE",
"515 237 CURVE SMOOTH",
"495 125 OFFCURVE",
"404 47 OFFCURVE",
"272 47 CURVE SMOOTH",
"142 47 OFFCURVE",
"86 121 OFFCURVE",
"104 227 CURVE SMOOTH"
);
},
{
closed = 1;
nodes = (
"536 545 OFFCURVE",
"474 476 OFFCURVE",
"349 476 CURVE SMOOTH",
"230 476 OFFCURVE",
"192 541 OFFCURVE",
"205 618 CURVE SMOOTH",
"222 714 OFFCURVE",
"286 778 OFFCURVE",
"411 778 CURVE SMOOTH",
"533 778 OFFCURVE",
"567 718 OFFCURVE",
"551 628 CURVE SMOOTH"
);
}
);
width = 627;
}
);
unicode = 0038;
},
{
glyphname = onesuperior;
lastChange = "2018-08-18 17:26:21 +0000";
layers = (
{
layerId = "6F85D940-A117-47EE-950D-70F837F8C9CE";
paths = (
{
closed = 1;
nodes = (
"96 513 LINE",
"183 513 LINE",
"237 825 LINE",
"173 825 LINE",
"84 775 LINE",
"69 694 LINE",
"132 720 LINE"
);
}
);
width = 164;
},
{
layerId = "7984B694-437B-44C7-A8AE-41A7C9CC5720";
paths = (
{
closed = 1;
nodes = (
"98 513 LINE",
"147 513 LINE",
"201 825 LINE",
"174 825 LINE",
"87 779 LINE",
"78 729 LINE",
"141 761 LINE"
);
}
);
width = 117;
}
);
rightKerningGroup = d;
unicode = 00B9;
},
{
glyphname = twosuperior;
lastChange = "2018-08-18 17:25:27 +0000";
layers = (
{
layerId = "6F85D940-A117-47EE-950D-70F837F8C9CE";
paths = (
{
closed = 1;
nodes = (
"245 764 OFFCURVE",
"253 748 OFFCURVE",
"243 724 CURVE SMOOTH",
"228 688 OFFCURVE",
"157 635 OFFCURVE",
"77 588 CURVE",
"63 513 LINE",
"301 513 LINE",
"316 595 LINE",
"180 593 LINE",
"287 625 OFFCURVE",
"335 687 OFFCURVE",
"343 740 CURVE SMOOTH",
"353 803 OFFCURVE",
"319 840 OFFCURVE",
"238 840 CURVE SMOOTH",
"127 840 OFFCURVE",
"99 755 OFFCURVE",
"99 755 CURVE",
"162 723 LINE",
"162 723 OFFCURVE",
"182 764 OFFCURVE",
"220 764 CURVE SMOOTH"
);
}
);
width = 285;
},
{
layerId = "7984B694-437B-44C7-A8AE-41A7C9CC5720";
paths = (
{
closed = 1;
nodes = (
"269 797 OFFCURVE",
"281 773 OFFCURVE",
"266 729 CURVE SMOOTH",
"244 663 OFFCURVE",
"71 553 OFFCURVE",
"71 553 CURVE",
"65 514 LINE",
"279 514 LINE",
"286 559 LINE",
"152 559 LINE SMOOTH",
"152 559 OFFCURVE",
"291 646 OFFCURVE",
"317 730 CURVE SMOOTH",
"330 772 OFFCURVE",
"323 839 OFFCURVE",
"231 839 CURVE SMOOTH",
"142 839 OFFCURVE",
"103 756 OFFCURVE",
"103 756 CURVE",
"143 736 LINE",
"143 736 OFFCURVE",
"173 797 OFFCURVE",
"224 797 CURVE SMOOTH"
);
}
);
width = 249;
}
);
rightKerningGroup = d;
unicode = 00B2;
},
{
glyphname = threesuperior;
lastChange = "2018-08-18 17:24:44 +0000";
layers = (
{
layerId = "6F85D940-A117-47EE-950D-70F837F8C9CE";
paths = (
{
closed = 1;
nodes = (
"145 731 LINE",
"145 731 OFFCURVE",
"169 765 OFFCURVE",
"204 767 CURVE SMOOTH",
"226 768 OFFCURVE",
"238 761 OFFCURVE",
"234 741 CURVE SMOOTH",
"231 724 OFFCURVE",
"214 715 OFFCURVE",
"193 715 CURVE SMOOTH",
"156 715 LINE",
"144 648 LINE",
"144 648 OFFCURVE",
"158 648 OFFCURVE",
"184 648 CURVE SMOOTH",
"209 648 OFFCURVE",
"224 637 OFFCURVE",
"221 617 CURVE SMOOTH",
"218 595 OFFCURVE",
"203 584 OFFCURVE",
"176 584 CURVE SMOOTH",
"141 584 OFFCURVE",
"127 623 OFFCURVE",
"127 623 CURVE",
"50 591 LINE",
"50 591 OFFCURVE",
"59 512 OFFCURVE",
"155 510 CURVE SMOOTH",
"254 508 OFFCURVE",
"309 558 OFFCURVE",
"318 616 CURVE SMOOTH",
"324 653 OFFCURVE",
"307 680 OFFCURVE",
"265 686 CURVE",
"295 692 OFFCURVE",
"322 730 OFFCURVE",
"327 763 CURVE SMOOTH",
"334 809 OFFCURVE",
"296 838 OFFCURVE",
"234 840 CURVE SMOOTH",
"123 844 OFFCURVE",
"87 761 OFFCURVE",
"87 761 CURVE"
);
}
);
width = 252;
},
{
layerId = "7984B694-437B-44C7-A8AE-41A7C9CC5720";
paths = (
{
closed = 1;
nodes = (
"154 763 LINE",
"154 763 OFFCURVE",
"170 801 OFFCURVE",
"217 801 CURVE SMOOTH",
"249 801 OFFCURVE",
"265 780 OFFCURVE",
"260 752 CURVE SMOOTH",
"254 721 OFFCURVE",
"227 703 OFFCURVE",
"200 703 CURVE SMOOTH",
"185 703 LINE",
"179 667 LINE",
"179 667 OFFCURVE",
"188 667 OFFCURVE",
"192 667 CURVE SMOOTH",
"229 667 OFFCURVE",
"249 650 OFFCURVE",
"243 614 CURVE SMOOTH",
"237 580 OFFCURVE",
"211 556 OFFCURVE",
"173 556 CURVE SMOOTH",
"118 556 OFFCURVE",
"117 605 OFFCURVE",
"117 605 CURVE",
"68 583 LINE",
"68 583 OFFCURVE",
"77 513 OFFCURVE",
"165 513 CURVE SMOOTH",
"230 513 OFFCURVE",
"283 556 OFFCURVE",
"293 614 CURVE SMOOTH",
"300 656 OFFCURVE",
"278 684 OFFCURVE",
"252 688 CURVE",
"278 694 OFFCURVE",
"302 722 OFFCURVE",
"307 753 CURVE SMOOTH",
"315 804 OFFCURVE",
"285 842 OFFCURVE",
"225 842 CURVE SMOOTH",
"145 842 OFFCURVE",
"116 782 OFFCURVE",
"116 782 CURVE"
);
}
);
width = 245;
}
);
rightKerningGroup = d;
unicode = 00B3;
},
{
glyphname = fraction;
lastChange = "2017-06-25 12:04:12 +0000";
layers = (
{
layerId = "6F85D940-A117-47EE-950D-70F837F8C9CE";
paths = (
{
closed = 1;
nodes = (
"-212 0 LINE",
"-90 0 LINE",
"536 825 LINE",
"414 825 LINE"
);
}
);
width = 269;
},
{
layerId = "7984B694-437B-44C7-A8AE-41A7C9CC5720";
paths = (
{
closed = 1;
nodes = (
"-212 0 LINE",
"-152 0 LINE",
"474 825 LINE",
"414 825 LINE"
);
}
);
width = 207;
}
);
rightKerningGroup = d;
unicode = 2044;
},
{
glyphname = onehalf;
lastChange = "2018-08-18 17:23:43 +0000";
layers = (
{
components = (
{
alignment = -1;
name = fraction;
transform = "{1, 0, 0, 1, 331, 0}";
}
);
layerId = "6F85D940-A117-47EE-950D-70F837F8C9CE";
paths = (
{
closed = 1;
nodes = (
"153.632 344 LINE",
"263.8 344 LINE",
"349.356 827.45 LINE",
"296.616 827.45 LINE",
"144.842 750.098 LINE",
"127.262 641.102 LINE",
"213.99 680.95 LINE"
);
},
{
closed = 1;
nodes = (
"868.202 395.93 OFFCURVE",
"882 378 OFFCURVE",
"869.959 332.663 CURVE SMOOTH",
"859 289 OFFCURVE",
"789 227 OFFCURVE",
"721 174 CURVE SMOOTH",
"653 122 OFFCURVE",
"587 80 OFFCURVE",
"587.018 80.184 CURVE",
"572.373 -3 LINE",
"919.752 -3 LINE",
"936.74 93.657 LINE",
"763.344 91.9 LINE SMOOTH",
"763 92 OFFCURVE",
"803 114 OFFCURVE",
"847 149 CURVE SMOOTH",
"902 191 OFFCURVE",
"965 252 OFFCURVE",
"979.504 317.433 CURVE SMOOTH",
"993.563 381.871 OFFCURVE",
"978.918 489.072 OFFCURVE",
"827.196 489.072 CURVE SMOOTH",
"681.917 489.072 OFFCURVE",
"615.722 346.723 OFFCURVE",
"615.722 346.723 CURVE",
"700.663 303.959 LINE",
"700.077 303.959 OFFCURVE",
"756.314 395.93 OFFCURVE",
"824.267 395.93 CURVE SMOOTH"
);
}
);
width = 1010;
},
{
components = (
{
alignment = -1;
name = fraction;
transform = "{1, 0, 0, 1, 326, 0}";
}
);
layerId = "7984B694-437B-44C7-A8AE-41A7C9CC5720";
paths = (
{
closed = 1;
nodes = (
"165 351 LINE",
"220 351 LINE",
"302 822 LINE",
"269 822 LINE",
"144 755 LINE",
"134 696 LINE",
"234 748 LINE"
);
},
{
closed = 1;
nodes = (
"839 434 OFFCURVE",
"858 393 OFFCURVE",
"831 319 CURVE SMOOTH",
"814 273 OFFCURVE",
"757 216 OFFCURVE",
"697 166 CURVE SMOOTH",
"618 100 OFFCURVE",
"535 46 OFFCURVE",
"535 46 CURVE",
"527 0 LINE",
"834 0 LINE",
"844 53 LINE",
"632 53 LINE SMOOTH",
"632 53 OFFCURVE",
"681 86 OFFCURVE",
"737 134 CURVE SMOOTH",
"798 186 OFFCURVE",
"867 256 OFFCURVE",
"890 322 CURVE SMOOTH",
"912 385 OFFCURVE",
"903 484 OFFCURVE",
"771 484 CURVE SMOOTH",
"646 484 OFFCURVE",
"589 367 OFFCURVE",
"589 367 CURVE",
"637 345 LINE",
"637 345 OFFCURVE",
"681 434 OFFCURVE",
"762 434 CURVE SMOOTH"
);
}
);
width = 929;
}
);
rightKerningGroup = d;
unicode = 00BD;
},
{
glyphname = onequarter;
lastChange = "2018-08-18 17:21:20 +0000";
layers = (
{
components = (
{
alignment = -1;
name = fraction;
transform = "{1, 0, 0, 1, 341, 0}";
}
);
layerId = "6F85D940-A117-47EE-950D-70F837F8C9CE";
paths = (
{
closed = 1;
nodes = (
"769.235 481.222 LINE",
"523.666 180.24 LINE",
"510.833 101.494 LINE",
"709.155 101.494 LINE",
"691.073 0 LINE",
"793.734 0 LINE",
"811.816 101.494 LINE",
"867.813 101.494 LINE",
"884.729 197.739 LINE",
"828.732 197.739 LINE",
"878.896 481.222 LINE"
);
},
{
closed = 1;
nodes = (
"640.326 197.739 LINE",
"750.57 334.814 LINE",
"726.071 197.739 LINE"
);
},
{
closed = 1;
nodes = (
"153.632 344 LINE",
"263.8 344 LINE",
"349.356 827.45 LINE",
"296.616 827.45 LINE",
"144.842 750.098 LINE",
"127.262 641.102 LINE",
"213.99 680.95 LINE"
);
}
);
width = 938;
},
{
components = (
{
alignment = -1;
name = fraction;
transform = "{1, 0, 0, 1, 318, 0}";
}
);
layerId = "7984B694-437B-44C7-A8AE-41A7C9CC5720";
paths = (
{
closed = 1;
nodes = (
"728 473 LINE",
"466 145 LINE",
"458 100 LINE",
"657 100 LINE",
"639 0 LINE",
"693 0 LINE",
"711 100 LINE",
"765 100 LINE",
"774 152 LINE",
"720 152 LINE",
"776 473 LINE"
);
},
{
closed = 1;
nodes = (
"531 152 LINE",
"703 369 LINE",
"666 152 LINE"
);
},
{
closed = 1;
nodes = (
"165 351 LINE",
"220 351 LINE",
"302 822 LINE",
"269 822 LINE",
"144 755 LINE",
"134 696 LINE",
"234 748 LINE"
);
}
);
width = 837;
}
);
rightKerningGroup = d;
unicode = 00BC;
},
